Mont_SC_170814_Bold.ufo
<glyph name="exclam" format="1">
  <advance width="263"/>
  <unicode hex="0021"/>
  <outline>
    <contour>
      <point x="196" y="223" type="line"/>
      <point x="236" y="429" type="line"/>
      <point x="236" y="585" type="line"/>
      <point x="27" y="585" type="line"/>
      <point x="27" y="429" type="line"/>
      <point x="67" y="223" type="line"/>
    </contour>
    <component base="period" xOffset="8.320"/>
  </outline>
</glyph>
<glyph name="numbersign" format="1">
  <advance width="636"/>
  <unicode hex="0023"/>
  <outline>
    <contour>
      <point x="471" y="0" type="line"/>
      <point x="545" y="583" type="line"/>
      <point x="390" y="583" type="line"/>
      <point x="316" y="0" type="line"/>
    </contour>
    <contour>
      <point x="592" y="106" type="line"/>
      <point x="610" y="250" type="line"/>
      <point x="16" y="250" type="line"/>
      <point x="-3" y="106" type="line"/>
    </contour>
    <contour>
      <point x="247" y="0" type="line"/>
      <point x="320" y="583" type="line"/>
      <point x="165" y="583" type="line"/>
      <point x="92" y="0" type="line"/>
    </contour>
    <contour>
      <point x="621" y="325" type="line"/>
      <point x="639" y="469" type="line"/>
      <point x="44" y="469" type="line"/>
      <point x="26" y="325" type="line"/>
    </contour>
  </outline>
</glyph>
<glyph name="dollar" format="1">
  <advance width="572"/>
  <unicode hex="0024"/>
  <outline>
    <contour>
      <point x="381" y="567" type="line"/>
      <point x="381" y="823" type="line"/>
      <point x="220" y="823" type="line"/>
      <point x="220" y="567" type="line"/>
    </contour>
    <contour>
      <point x="381" y="-242" type="line"/>
      <point x="381" y="13" type="line"/>
      <point x="220" y="13" type="line"/>
      <point x="220" y="-242" type="line"/>
    </contour>
    <component base="S"/>
  </outline>
</glyph>
<glyph name="percent" format="1">
  <advance width="775"/>
  <unicode hex="0025"/>
  <outline>
    <contour>
      <point x="251" y="0" type="line"/>
      <point x="656" y="583" type="line"/>
      <point x="513" y="583" type="line"/>
      <point x="108" y="0" type="line"/>
    </contour>
    <contour>
      <point x="316" y="424" type="curve" smooth="yes"/>
      <point x="316" y="521"/>
      <point x="255" y="586"/>
      <point x="164" y="586" type="curve" smooth="yes"/>
      <point x="73" y="586"/>
      <point x="10" y="521"/>
      <point x="10" y="424" type="curve" smooth="yes"/>
      <point x="10" y="326"/>
      <point x="73" y="260"/>
      <point x="164" y="260" type="curve" smooth="yes"/>
      <point x="255" y="260"/>
      <point x="316" y="326"/>
    </contour>
    <contour>
      <point x="142" y="424" type="curve" smooth="yes"/>
      <point x="142" y="454"/>
      <point x="152" y="478"/>
      <point x="164" y="478" type="curve" smooth="yes"/>
      <point x="176" y="478"/>
      <point x="187" y="454"/>
      <point x="187" y="424" type="curve" smooth="yes"/>
      <point x="187" y="391"/>
      <point x="176" y="369"/>
      <point x="164" y="369" type="curve" smooth="yes"/>
      <point x="152" y="369"/>
      <point x="142" y="391"/>
    </contour>
    <contour>
      <point x="764" y="160" type="curve" smooth="yes"/>
      <point x="764" y="257"/>
      <point x="703" y="322"/>
      <point x="612" y="322" type="curve" smooth="yes"/>
      <point x="520" y="322"/>
      <point x="458" y="257"/>
      <point x="458" y="160" type="curve" smooth="yes"/>
      <point x="458" y="62"/>
      <point x="520" y="-4"/>
      <point x="612" y="-4" type="curve" smooth="yes"/>
      <point x="703" y="-4"/>
      <point x="764" y="62"/>
    </contour>
    <contour>
      <point x="589" y="160" type="curve" smooth="yes"/>
      <point x="589" y="190"/>
      <point x="599" y="214"/>
      <point x="612" y="214" type="curve" smooth="yes"/>
      <point x="623" y="214"/>
      <point x="634" y="190"/>
      <point x="634" y="160" type="curve" smooth="yes"/>
      <point x="634" y="127"/>
      <point x="623" y="104"/>
      <point x="612" y="104" type="curve" smooth="yes"/>
      <point x="599" y="104"/>
      <point x="589" y="127"/>
    </contour>
  </outline>
</glyph>
<glyph name="ampersand" format="1">
  <advance width="609"/>
  <unicode hex="0026"/>
  <outline>
    <contour>
      <point x="608" y="29" type="curve"/>
      <point x="299" y="306"/>
      <point x="222" y="393"/>
      <point x="222" y="470" type="curve"/>
      <point x="233" y="524"/>
      <point x="264" y="558"/>
      <point x="308" y="558" type="curve" smooth="yes"/>
      <point x="347" y="558"/>
      <point x="375" y="532"/>
      <point x="375" y="495" type="curve" smooth="yes"/>
      <point x="375" y="348"/>
      <point x="-10" y="350"/>
      <point x="-10" y="120" type="curve" smooth="yes"/>
      <point x="-10" y="-6"/>
      <point x="103" y="-96"/>
      <point x="261" y="-96" type="curve" smooth="yes"/>
      <point x="428" y="-96"/>
      <point x="570" y="15"/>
      <point x="629" y="189" type="curve" smooth="yes"/>
      <point x="629" y="206"/>
      <point x="464" y="322"/>
      <point x="426" y="355" type="curve"/>
      <point x="398" y="231"/>
      <point x="315" y="137"/>
      <point x="226" y="137" type="curve"/>
      <point x="217" y="103"/>
      <point x="209" y="111"/>
      <point x="209" y="138" type="curve" smooth="yes"/>
      <point x="209" y="242"/>
      <point x="528" y="241"/>
      <point x="517" y="435" type="curve" smooth="yes"/>
      <point x="506" y="529"/>
      <point x="409" y="600"/>
      <point x="282" y="608" type="curve" smooth="yes"/>
      <point x="151" y="630"/>
      <point x="120" y="564"/>
      <point x="120" y="485" type="curve" smooth="yes"/>
      <point x="120" y="379"/>
      <point x="188" y="304"/>
      <point x="543" y="-38" type="curve" smooth="yes"/>
      <point x="525" y="-38"/>
      <point x="620" y="52"/>
    </contour>
  </outline>
</glyph>
<glyph name="quotesingle" format="1">
  <advance width="264"/>
  <unicode hex="0027"/>
  <outline>
    <contour>
      <point x="214" y="318" type="line"/>
      <point x="214" y="583" type="line"/>
      <point x="51" y="583" type="line"/>
      <point x="51" y="318" type="line"/>
    </contour>
  </outline>
</glyph>
<glyph name="parenleft" format="1">
  <advance width="326"/>
  <unicode hex="0028"/>
  <outline>
    <contour>
      <point x="343" y="-103" type="line"/>
      <point x="281" y="-2"/>
      <point x="237" y="125"/>
      <point x="237" y="257" type="curve" smooth="yes"/>
      <point x="237" y="388"/>
      <point x="281" y="516"/>
      <point x="343" y="617" type="curve"/>
      <point x="147" y="617" type="line"/>
      <point x="73" y="516"/>
      <point x="32" y="388"/>
      <point x="32" y="257" type="curve" smooth="yes"/>
      <point x="32" y="125"/>
      <point x="73" y="-2"/>
      <point x="147" y="-103" type="curve"/>
    </contour>
  </outline>
</glyph>
<glyph name="asterisk" format="1">
  <advance width="359"/>
  <unicode hex="002A"/>
  <outline>
    <contour>
      <point x="232" y="286" type="line"/>
      <point x="229" y="356" type="line"/>
      <point x="290" y="318" type="line"/>
      <point x="343" y="408" type="line"/>
      <point x="279" y="442" type="line"/>
      <point x="343" y="474" type="line"/>
      <point x="290" y="562" type="line"/>
      <point x="230" y="526" type="line"/>
      <point x="232" y="596" type="line"/>
      <point x="126" y="596" type="line"/>
      <point x="128" y="526" type="line"/>
      <point x="69" y="564" type="line"/>
      <point x="16" y="474" type="line"/>
      <point x="78" y="442" type="line"/>
      <point x="16" y="408" type="line"/>
      <point x="69" y="320" type="line"/>
      <point x="129" y="357" type="line"/>
      <point x="126" y="286" type="line"/>
    </contour>
  </outline>
</glyph>
<glyph name="plus" format="1">
  <advance width="446"/>
  <unicode hex="002B"/>
  <outline>
    <contour>
      <point x="290" y="80" type="line"/>
      <point x="290" y="469" type="line"/>
      <point x="155" y="469" type="line"/>
      <point x="155" y="80" type="line"/>
    </contour>
    <contour>
      <point x="422" y="209" type="line"/>
      <point x="422" y="340" type="line"/>
      <point x="24" y="340" type="line"/>
      <point x="24" y="209" type="line"/>
    </contour>
  </outline>
</glyph>
<glyph name="comma" format="1">
  <advance width="282"/>
  <unicode hex="002C"/>
  <outline>
    <contour>
      <point x="165" y="-135" type="line"/>
      <point x="230" y="-9" type="line"/>
      <point x="264" y="61"/>
      <point x="268" y="83"/>
      <point x="268" y="113" type="curve" smooth="yes"/>
      <point x="268" y="187"/>
      <point x="216" y="233"/>
      <point x="141" y="233" type="curve" smooth="yes"/>
      <point x="66" y="233"/>
      <point x="14" y="187"/>
      <point x="14" y="113" type="curve" smooth="yes"/>
      <point x="14" y="39"/>
      <point x="66" y="-4"/>
      <point x="141" y="-4" type="curve"/>
      <point x="108" y="115" type="line"/>
      <point x="30" y="-135" type="line"/>
    </contour>
  </outline>
</glyph>
<glyph name="hyphen" format="1">
  <advance width="325"/>
  <unicode hex="002D"/>
  <outline>
    <contour>
      <point x="285" y="192" type="line"/>
      <point x="285" y="323" type="line"/>
      <point x="39" y="323" type="line"/>
      <point x="39" y="192" type="line"/>
    </contour>
  </outline>
</glyph>
<glyph name="period" format="1">
  <advance width="282"/>
  <unicode hex="002E"/>
  <outline>
    <contour>
      <point x="268" y="113" type="curve" smooth="yes"/>
      <point x="268" y="187"/>
      <point x="216" y="233"/>
      <point x="141" y="233" type="curve" smooth="yes"/>
      <point x="66" y="233"/>
      <point x="14" y="187"/>
      <point x="14" y="113" type="curve" smooth="yes"/>
      <point x="14" y="39"/>
      <point x="66" y="-9"/>
      <point x="141" y="-9" type="curve" smooth="yes"/>
      <point x="216" y="-9"/>
      <point x="268" y="39"/>
    </contour>
  </outline>
</glyph>
<glyph name="slash" format="1">
  <advance width="327"/>
  <unicode hex="002F"/>
  <outline>
    <contour>
      <point x="133" y="-83" type="line"/>
      <point x="414" y="667" type="line"/>
      <point x="232" y="667" type="line"/>
      <point x="-50" y="-83" type="line"/>
    </contour>
  </outline>
</glyph>
<glyph name="zero" format="1">
  <advance width="601"/>
  <unicode hex="0030"/>
  <outline>
    <contour>
      <point x="577" y="291" type="curve" smooth="yes"/>
      <point x="577" y="486"/>
      <point x="463" y="597"/>
      <point x="300" y="597" type="curve" smooth="yes"/>
      <point x="138" y="597"/>
      <point x="24" y="486"/>
      <point x="24" y="291" type="curve" smooth="yes"/>
      <point x="24" y="96"/>
      <point x="138" y="-15"/>
      <point x="300" y="-15" type="curve" smooth="yes"/>
      <point x="463" y="-15"/>
      <point x="577" y="96"/>
    </contour>
    <contour>
      <point x="251" y="291" type="curve" smooth="yes"/>
      <point x="251" y="395"/>
      <point x="274" y="419"/>
      <point x="300" y="419" type="curve" smooth="yes"/>
      <point x="326" y="419"/>
      <point x="350" y="395"/>
      <point x="350" y="291" type="curve" smooth="yes"/>
      <point x="350" y="187"/>
      <point x="326" y="163"/>
      <point x="300" y="163" type="curve" smooth="yes"/>
      <point x="274" y="163"/>
      <point x="251" y="187"/>
    </contour>
  </outline>
</glyph>
<glyph name="one" format="1">
  <advance width="359"/>
  <unicode hex="0031"/>
  <outline>
    <contour>
      <point x="322" y="0" type="line"/>
      <point x="322" y="582" type="line"/>
      <point x="-2" y="582" type="line"/>
      <point x="-2" y="414" type="line"/>
      <point x="190" y="414" type="line"/>
      <point x="91" y="505" type="line"/>
      <point x="91" y="0" type="line"/>
    </contour>
  </outline>
</glyph>
<glyph name="two" format="1">
  <advance width="543"/>
  <unicode hex="0032"/>
  <outline>
    <contour>
      <point x="526" y="0" type="line"/>
      <point x="526" y="172" type="line"/>
      <point x="224" y="172" type="line"/>
      <point x="254" y="95" type="line"/>
      <point x="396" y="223" type="line" smooth="yes"/>
      <point x="484" y="302"/>
      <point x="506" y="352"/>
      <point x="506" y="408" type="curve" smooth="yes"/>
      <point x="506" y="525"/>
      <point x="401" y="597"/>
      <point x="258" y="597" type="curve" smooth="yes"/>
      <point x="123" y="597"/>
      <point x="29" y="544"/>
      <point x="-8" y="452" type="curve"/>
      <point x="158" y="369" type="line"/>
      <point x="172" y="402"/>
      <point x="197" y="421"/>
      <point x="238" y="421" type="curve" smooth="yes"/>
      <point x="267" y="421"/>
      <point x="279" y="406"/>
      <point x="279" y="392" type="curve" smooth="yes"/>
      <point x="279" y="375"/>
      <point x="272" y="355"/>
      <point x="235" y="322" type="curve" smooth="yes"/>
      <point x="30" y="137" type="line"/>
      <point x="30" y="0" type="line"/>
    </contour>
  </outline>
</glyph>
<glyph name="three" format="1">
  <advance width="543"/>
  <unicode hex="0033"/>
  <outline>
    <contour>
      <point x="542" y="188" type="curve" smooth="yes"/>
      <point x="542" y="291"/>
      <point x="461" y="364"/>
      <point x="313" y="364" type="curve" smooth="yes"/>
      <point x="257" y="364" type="line"/>
      <point x="346" y="304" type="line"/>
      <point x="508" y="445" type="line"/>
      <point x="508" y="582" type="line"/>
      <point x="18" y="582" type="line"/>
      <point x="18" y="414" type="line"/>
      <point x="340" y="414" type="line"/>
      <point x="318" y="489" type="line"/>
      <point x="164" y="347" type="line"/>
      <point x="164" y="211" type="line"/>
      <point x="248" y="211" type="line" smooth="yes"/>
      <point x="303" y="211"/>
      <point x="315" y="202"/>
      <point x="315" y="188" type="curve" smooth="yes"/>
      <point x="315" y="169"/>
      <point x="293" y="160"/>
      <point x="252" y="160" type="curve" smooth="yes"/>
      <point x="198" y="160"/>
      <point x="129" y="176"/>
      <point x="69" y="207" type="curve"/>
      <point x="-4" y="43" type="line"/>
      <point x="60" y="7"/>
      <point x="161" y="-15"/>
      <point x="256" y="-15" type="curve" smooth="yes"/>
      <point x="459" y="-15"/>
      <point x="542" y="90"/>
    </contour>
  </outline>
</glyph>
<glyph name="four" format="1">
  <advance width="617"/>
  <unicode hex="0034"/>
  <outline>
    <contour>
      <point x="603" y="89" type="line"/>
      <point x="603" y="261" type="line"/>
      <point x="152" y="261" type="line"/>
      <point x="255" y="230" type="line"/>
      <point x="478" y="582" type="line"/>
      <point x="242" y="582" type="line"/>
      <point x="12" y="230" type="line"/>
      <point x="12" y="89" type="line"/>
    </contour>
    <contour>
      <point x="534" y="0" type="line"/>
      <point x="534" y="341" type="line"/>
      <point x="322" y="341" type="line"/>
      <point x="322" y="261" type="line"/>
      <point x="315" y="89" type="line"/>
      <point x="315" y="0" type="line"/>
    </contour>
  </outline>
</glyph>
<glyph name="five" format="1">
  <advance width="543"/>
  <unicode hex="0035"/>
  <outline>
    <contour>
      <point x="530" y="194" type="curve" smooth="yes"/>
      <point x="530" y="312"/>
      <point x="438" y="372"/>
      <point x="306" y="379" type="curve" smooth="yes"/>
      <point x="127" y="389" type="line"/>
      <point x="247" y="292" type="line"/>
      <point x="267" y="510" type="line"/>
      <point x="143" y="414" type="line"/>
      <point x="485" y="414" type="line"/>
      <point x="485" y="582" type="line"/>
      <point x="67" y="582" type="line"/>
      <point x="34" y="218" type="line"/>
      <point x="226" y="211" type="line" smooth="yes"/>
      <point x="285" y="208"/>
      <point x="303" y="203"/>
      <point x="303" y="185" type="curve" smooth="yes"/>
      <point x="303" y="165"/>
      <point x="287" y="157"/>
      <point x="240" y="157" type="curve" smooth="yes"/>
      <point x="192" y="157"/>
      <point x="127" y="171"/>
      <point x="68" y="198" type="curve"/>
      <point x="-5" y="34" type="line"/>
      <point x="57" y="3"/>
      <point x="159" y="-15"/>
      <point x="249" y="-15" type="curve" smooth="yes"/>
      <point x="418" y="-15"/>
      <point x="530" y="64"/>
    </contour>
  </outline>
</glyph>
<glyph name="six" format="1">
  <advance width="592"/>
  <unicode hex="0036"/>
  <outline>
    <contour>
      <point x="566" y="197" type="curve" smooth="yes"/>
      <point x="566" y="314"/>
      <point x="470" y="389"/>
      <point x="361" y="389" type="curve" smooth="yes"/>
      <point x="279" y="389"/>
      <point x="234" y="361"/>
      <point x="196" y="313" type="curve"/>
      <point x="248" y="268" type="line"/>
      <point x="250" y="281"/>
      <point x="251" y="292"/>
      <point x="251" y="307" type="curve" smooth="yes"/>
      <point x="251" y="390"/>
      <point x="297" y="429"/>
      <point x="371" y="429" type="curve" smooth="yes"/>
      <point x="409" y="429"/>
      <point x="442" y="422"/>
      <point x="476" y="398" type="curve"/>
      <point x="554" y="553" type="line"/>
      <point x="509" y="580"/>
      <point x="440" y="597"/>
      <point x="365" y="597" type="curve" smooth="yes"/>
      <point x="161" y="597"/>
      <point x="24" y="475"/>
      <point x="24" y="270" type="curve" smooth="yes"/>
      <point x="24" y="92"/>
      <point x="134" y="-15"/>
      <point x="309" y="-15" type="curve" smooth="yes"/>
      <point x="457" y="-15"/>
      <point x="566" y="67"/>
    </contour>
    <contour>
      <point x="257" y="186" type="curve" smooth="yes"/>
      <point x="257" y="218"/>
      <point x="278" y="236"/>
      <point x="303" y="236" type="curve" smooth="yes"/>
      <point x="326" y="236"/>
      <point x="348" y="217"/>
      <point x="348" y="186" type="curve" smooth="yes"/>
      <point x="348" y="156"/>
      <point x="326" y="138"/>
      <point x="301" y="138" type="curve" smooth="yes"/>
      <point x="280" y="138"/>
      <point x="257" y="153"/>
    </contour>
  </outline>
</glyph>
<glyph name="seven" format="1">
  <advance width="570"/>
  <unicode hex="0037"/>
  <outline>
    <contour>
      <point x="348" y="0" type="line"/>
      <point x="552" y="445" type="line"/>
      <point x="552" y="582" type="line"/>
      <point x="22" y="582" type="line"/>
      <point x="22" y="329" type="line"/>
      <point x="211" y="329" type="line"/>
      <point x="211" y="511" type="line"/>
      <point x="122" y="409" type="line"/>
      <point x="391" y="409" type="line"/>
      <point x="331" y="503" type="line"/>
      <point x="100" y="0" type="line"/>
    </contour>
  </outline>
</glyph>
<glyph name="eight" format="1">
  <advance width="601"/>
  <unicode hex="0038"/>
  <outline>
    <contour>
      <point x="575" y="175" type="curve" smooth="yes"/>
      <point x="575" y="291"/>
      <point x="456" y="357"/>
      <point x="300" y="357" type="curve" smooth="yes"/>
      <point x="145" y="357"/>
      <point x="25" y="291"/>
      <point x="25" y="175" type="curve" smooth="yes"/>
      <point x="25" y="60"/>
      <point x="140" y="-15"/>
      <point x="300" y="-15" type="curve" smooth="yes"/>
      <point x="461" y="-15"/>
      <point x="575" y="60"/>
    </contour>
    <contour>
      <point x="252" y="183" type="curve" smooth="yes"/>
      <point x="252" y="213"/>
      <point x="275" y="232"/>
      <point x="300" y="232" type="curve" smooth="yes"/>
      <point x="326" y="232"/>
      <point x="348" y="213"/>
      <point x="348" y="183" type="curve" smooth="yes"/>
      <point x="348" y="153"/>
      <point x="326" y="135"/>
      <point x="300" y="135" type="curve" smooth="yes"/>
      <point x="275" y="135"/>
      <point x="252" y="153"/>
    </contour>
    <contour>
      <point x="554" y="419" type="curve" smooth="yes"/>
      <point x="554" y="527"/>
      <point x="449" y="597"/>
      <point x="300" y="597" type="curve" smooth="yes"/>
      <point x="152" y="597"/>
      <point x="47" y="527"/>
      <point x="47" y="419" type="curve" smooth="yes"/>
      <point x="47" y="310"/>
      <point x="158" y="250"/>
      <point x="300" y="250" type="curve" smooth="yes"/>
      <point x="443" y="250"/>
      <point x="554" y="310"/>
    </contour>
    <contour>
      <point x="272" y="409" type="curve" smooth="yes"/>
      <point x="272" y="433"/>
      <point x="287" y="447"/>
      <point x="300" y="447" type="curve" smooth="yes"/>
      <point x="314" y="447"/>
      <point x="329" y="433"/>
      <point x="329" y="409" type="curve" smooth="yes"/>
      <point x="329" y="385"/>
      <point x="314" y="371"/>
      <point x="300" y="371" type="curve" smooth="yes"/>
      <point x="287" y="371"/>
      <point x="272" y="385"/>
    </contour>
  </outline>
</glyph>
<glyph name="less" format="1">
  <advance width="446"/>
  <unicode hex="003C"/>
  <outline>
    <contour>
      <point x="422" y="177" type="line"/>
      <point x="163" y="268" type="line"/>
      <point x="422" y="359" type="line"/>
      <point x="422" y="505" type="line"/>
      <point x="24" y="351" type="line"/>
      <point x="24" y="184" type="line"/>
      <point x="422" y="31" type="line"/>
    </contour>
  </outline>
</glyph>
<glyph name="equal" format="1">
  <advance width="446"/>
  <unicode hex="003D"/>
  <outline>
    <contour>
      <point x="422" y="302" type="line"/>
      <point x="422" y="433" type="line"/>
      <point x="24" y="433" type="line"/>
      <point x="24" y="302" type="line"/>
    </contour>
    <contour>
      <point x="422" y="116" type="line"/>
      <point x="422" y="247" type="line"/>
      <point x="24" y="247" type="line"/>
      <point x="24" y="116" type="line"/>
    </contour>
  </outline>
</glyph>
<glyph name="question" format="1">
  <advance width="436"/>
  <unicode hex="003F"/>
  <outline>
    <contour>
      <point x="298" y="213" type="line"/>
      <point x="298" y="293"/>
      <point x="439" y="323"/>
      <point x="439" y="440" type="curve" smooth="yes"/>
      <point x="439" y="537"/>
      <point x="366" y="595"/>
      <point x="237" y="595" type="curve" smooth="yes"/>
      <point x="96" y="595"/>
      <point x="16" y="510"/>
      <point x="17" y="368" type="curve"/>
      <point x="184" y="368" type="line"/>
      <point x="183" y="410"/>
      <point x="192" y="428"/>
      <point x="216" y="428" type="curve" smooth="yes"/>
      <point x="233" y="428"/>
      <point x="235" y="421"/>
      <point x="235" y="404" type="curve" smooth="yes"/>
      <point x="235" y="351"/>
      <point x="136" y="334"/>
      <point x="136" y="213" type="curve"/>
    </contour>
    <component base="period" xOffset="94.461"/>
  </outline>
</glyph>
<glyph name="at" format="1">
  <advance width="737"/>
  <unicode hex="0040"/>
  <outline>
    <contour>
      <point x="570" y="-50" type="curve"/>
      <point x="521" y="30" type="line"/>
      <point x="472" y="-9"/>
      <point x="412" y="-24"/>
      <point x="364" y="-24" type="curve" smooth="yes"/>
      <point x="229" y="-24"/>
      <point x="124" y="83"/>
      <point x="124" y="223" type="curve" smooth="yes"/>
      <point x="124" y="366"/>
      <point x="238" y="485"/>
      <point x="374" y="485" type="curve" smooth="yes"/>
      <point x="532" y="485"/>
      <point x="614" y="371"/>
      <point x="614" y="229" type="curve" smooth="yes"/>
      <point x="614" y="163"/>
      <point x="585" y="116"/>
      <point x="561" y="116" type="curve" smooth="yes"/>
      <point x="549" y="116"/>
      <point x="542" y="121"/>
      <point x="542" y="147" type="curve" smooth="yes"/>
      <point x="542" y="404" type="line"/>
      <point x="412" y="404" type="line"/>
      <point x="412" y="383" type="line"/>
      <point x="417" y="372"/>
      <point x="387" y="415"/>
      <point x="331" y="415" type="curve" smooth="yes"/>
      <point x="235" y="415"/>
      <point x="177" y="326"/>
      <point x="177" y="226" type="curve" smooth="yes"/>
      <point x="177" y="113"/>
      <point x="264" y="40"/>
      <point x="346" y="40" type="curve" smooth="yes"/>
      <point x="376" y="40"/>
      <point x="412" y="51"/>
      <point x="443" y="89" type="curve"/>
      <point x="445" y="90" type="line"/>
      <point x="460" y="49"/>
      <point x="497" y="33"/>
      <point x="549" y="33" type="curve" smooth="yes"/>
      <point x="645" y="33"/>
      <point x="717" y="112"/>
      <point x="717" y="231" type="curve" smooth="yes"/>
      <point x="717" y="430"/>
      <point x="569" y="577"/>
      <point x="374" y="577" type="curve" smooth="yes"/>
      <point x="180" y="577"/>
      <point x="20" y="421"/>
      <point x="20" y="223" type="curve" smooth="yes"/>
      <point x="20" y="29"/>
      <point x="170" y="-116"/>
      <point x="364" y="-116" type="curve" smooth="yes"/>
      <point x="433" y="-116"/>
      <point x="520" y="-91"/>
    </contour>
    <contour>
      <point x="320" y="231" type="curve" smooth="yes"/>
      <point x="320" y="266"/>
      <point x="334" y="299"/>
      <point x="359" y="299" type="curve" smooth="yes"/>
      <point x="389" y="299"/>
      <point x="403" y="267"/>
      <point x="403" y="230" type="curve" smooth="yes"/>
      <point x="403" y="190"/>
      <point x="390" y="153"/>
      <point x="360" y="153" type="curve" smooth="yes"/>
      <point x="333" y="153"/>
      <point x="320" y="191"/>
    </contour>
  </outline>
</glyph>
<glyph name="A" format="1">
  <advance width="698"/>
  <unicode hex="0041"/>
  <outline>
    <contour>
      <point x="214" y="0" type="line"/>
      <point x="392" y="477" type="line"/>
      <point x="303" y="477" type="line"/>
      <point x="481" y="0" type="line"/>
      <point x="718" y="0" type="line"/>
      <point x="462" y="582" type="line"/>
      <point x="236" y="582" type="line"/>
      <point x="-20" y="0" type="line"/>
    </contour>
    <contour>
      <point x="515" y="74" type="line"/>
      <point x="457" y="234" type="line"/>
      <point x="204" y="234" type="line"/>
      <point x="146" y="74" type="line"/>
    </contour>
    <contour>
      <point x="718" y="0" type="move" name="ogonek"/>
    </contour>
    <contour>
      <point x="349" y="582" type="move" name="top"/>
    </contour>
    <contour>
      <point x="104" y="583" type="move" name="topleft"/>
    </contour>
    <contour>
      <point x="349" y="0" type="move" name="bottom"/>
    </contour>
  </outline>
</glyph>
<glyph name="B" format="1">
  <advance width="657"/>
  <unicode hex="0042"/>
  <outline>
    <contour>
      <point x="384" y="0" type="line"/>
      <point x="551" y="0"/>
      <point x="641" y="60"/>
      <point x="641" y="162" type="curve" smooth="yes"/>
      <point x="641" y="263"/>
      <point x="551" y="325"/>
      <point x="413" y="325" type="curve"/>
      <point x="395" y="275" type="line"/>
      <point x="538" y="275"/>
      <point x="614" y="342"/>
      <point x="614" y="429" type="curve" smooth="yes"/>
      <point x="614" y="516"/>
      <point x="538" y="582"/>
      <point x="368" y="582" type="curve" smooth="yes"/>
      <point x="38" y="582" type="line"/>
      <point x="38" y="0" type="line"/>
    </contour>
    <contour>
      <point x="264" y="220" type="line"/>
      <point x="364" y="220" type="line" smooth="yes"/>
      <point x="395" y="220"/>
      <point x="409" y="208"/>
      <point x="409" y="187" type="curve" smooth="yes"/>
      <point x="409" y="167"/>
      <point x="395" y="155"/>
      <point x="364" y="155" type="curve" smooth="yes"/>
      <point x="264" y="155" type="line"/>
    </contour>
    <contour>
      <point x="264" y="427" type="line"/>
      <point x="335" y="427" type="line" smooth="yes"/>
      <point x="369" y="427"/>
      <point x="382" y="416"/>
      <point x="382" y="396" type="curve" smooth="yes"/>
      <point x="382" y="377"/>
      <point x="369" y="366"/>
      <point x="335" y="366" type="curve" smooth="yes"/>
      <point x="264" y="366" type="line"/>
    </contour>
    <contour>
      <point x="324" y="582" type="move" name="top"/>
    </contour>
    <contour>
      <point x="324" y="0" type="move" name="bottom"/>
    </contour>
  </outline>
</glyph>
<glyph name="C" format="1">
  <advance width="634"/>
  <unicode hex="0043"/>
  <outline>
    <contour>
      <point x="631" y="108" type="curve"/>
      <point x="486" y="233" type="line"/>
      <point x="454" y="191"/>
      <point x="417" y="165"/>
      <point x="366" y="165" type="curve" smooth="yes"/>
      <point x="297" y="165"/>
      <point x="252" y="212"/>
      <point x="252" y="291" type="curve" smooth="yes"/>
      <point x="252" y="370"/>
      <point x="297" y="417"/>
      <point x="366" y="417" type="curve" smooth="yes"/>
      <point x="417" y="417"/>
      <point x="454" y="391"/>
      <point x="486" y="349" type="curve"/>
      <point x="631" y="474" type="line"/>
      <point x="571" y="552"/>
      <point x="477" y="597"/>
      <point x="355" y="597" type="curve" smooth="yes"/>
      <point x="161" y="597"/>
      <point x="20" y="471"/>
      <point x="20" y="291" type="curve" smooth="yes"/>
      <point x="20" y="111"/>
      <point x="161" y="-15"/>
      <point x="355" y="-15" type="curve" smooth="yes"/>
      <point x="477" y="-15"/>
      <point x="571" y="29"/>
    </contour>
    <contour>
      <point x="355" y="583" type="move" name="top"/>
    </contour>
    <contour>
      <point x="329" y="0" type="move" name="bottom"/>
    </contour>
  </outline>
</glyph>
<glyph name="D" format="1">
  <advance width="699"/>
  <unicode hex="0044"/>
  <outline>
    <contour>
      <point x="341" y="0" type="line"/>
      <point x="540" y="0"/>
      <point x="678" y="109"/>
      <point x="678" y="291" type="curve" smooth="yes"/>
      <point x="678" y="473"/>
      <point x="540" y="582"/>
      <point x="341" y="582" type="curve" smooth="yes"/>
      <point x="38" y="582" type="line"/>
      <point x="38" y="0" type="line"/>
    </contour>
    <contour>
      <point x="268" y="408" type="line"/>
      <point x="331" y="408" type="line" smooth="yes"/>
      <point x="399" y="408"/>
      <point x="447" y="369"/>
      <point x="447" y="291" type="curve" smooth="yes"/>
      <point x="447" y="212"/>
      <point x="399" y="173"/>
      <point x="331" y="173" type="curve" smooth="yes"/>
      <point x="268" y="173" type="line"/>
    </contour>
    <contour>
      <point x="299" y="582" type="move" name="top"/>
    </contour>
    <contour>
      <point x="175" y="295" type="move" name="center"/>
    </contour>
    <contour>
      <point x="300" y="0" type="move" name="bottom"/>
    </contour>
  </outline>
</glyph>
<glyph name="E" format="1">
  <advance width="567"/>
  <unicode hex="0045"/>
  <outline>
    <contour>
      <point x="546" y="0" type="line"/>
      <point x="546" y="168" type="line"/>
      <point x="264" y="168" type="line"/>
      <point x="264" y="215" type="line"/>
      <point x="501" y="215" type="line"/>
      <point x="501" y="375" type="line"/>
      <point x="264" y="375" type="line"/>
      <point x="264" y="414" type="line"/>
      <point x="535" y="414" type="line"/>
      <point x="535" y="582" type="line"/>
      <point x="38" y="582" type="line"/>
      <point x="38" y="0" type="line"/>
    </contour>
    <contour>
      <point x="546" y="0" type="move" name="ogonek"/>
    </contour>
    <contour>
      <point x="287" y="582" type="move" name="top"/>
    </contour>
    <contour>
      <point x="-15" y="582" type="move" name="topleft"/>
    </contour>
    <contour>
      <point x="285" y="0" type="move" name="bottom"/>
    </contour>
  </outline>
</glyph>
<glyph name="F" format="1">
  <advance width="545"/>
  <unicode hex="0046"/>
  <outline>
    <contour>
      <point x="268" y="0" type="line"/>
      <point x="268" y="174" type="line"/>
      <point x="501" y="174" type="line"/>
      <point x="501" y="341" type="line"/>
      <point x="268" y="341" type="line"/>
      <point x="268" y="414" type="line"/>
      <point x="535" y="414" type="line"/>
      <point x="535" y="582" type="line"/>
      <point x="38" y="582" type="line"/>
      <point x="38" y="0" type="line"/>
    </contour>
  </outline>
</glyph>
<glyph name="G" format="1">
  <advance width="650"/>
  <unicode hex="0047"/>
  <outline>
    <contour>
      <point x="622" y="59" type="curve"/>
      <point x="494" y="212" type="line"/>
      <point x="446" y="177"/>
      <point x="409" y="165"/>
      <point x="369" y="165" type="curve" smooth="yes"/>
      <point x="297" y="165"/>
      <point x="252" y="214"/>
      <point x="252" y="291" type="curve" smooth="yes"/>
      <point x="252" y="371"/>
      <point x="297" y="417"/>
      <point x="372" y="417" type="curve" smooth="yes"/>
      <point x="421" y="417"/>
      <point x="460" y="395"/>
      <point x="495" y="354" type="curve"/>
      <point x="642" y="479" type="line"/>
      <point x="580" y="554"/>
      <point x="483" y="597"/>
      <point x="360" y="597" type="curve" smooth="yes"/>
      <point x="161" y="597"/>
      <point x="20" y="471"/>
      <point x="20" y="291" type="curve" smooth="yes"/>
      <point x="20" y="111"/>
      <point x="161" y="-15"/>
      <point x="355" y="-15" type="curve" smooth="yes"/>
      <point x="443" y="-15"/>
      <point x="547" y="11"/>
    </contour>
    <contour>
      <point x="622" y="341" type="line"/>
      <point x="420" y="310" type="line"/>
      <point x="423" y="56" type="line"/>
      <point x="625" y="59" type="line"/>
    </contour>
    <contour>
      <point x="362" y="583" type="move" name="top"/>
    </contour>
    <contour>
      <point x="348" y="0" type="move" name="bottom"/>
    </contour>
  </outline>
</glyph>
<glyph name="H" format="1">
  <advance width="678"/>
  <unicode hex="0048"/>
  <outline>
    <contour>
      <point x="268" y="0" type="line"/>
      <point x="268" y="204" type="line"/>
      <point x="411" y="204" type="line"/>
      <point x="411" y="0" type="line"/>
      <point x="641" y="0" type="line"/>
      <point x="641" y="582" type="line"/>
      <point x="411" y="582" type="line"/>
      <point x="411" y="386" type="line"/>
      <point x="268" y="386" type="line"/>
      <point x="268" y="582" type="line"/>
      <point x="38" y="582" type="line"/>
      <point x="38" y="0" type="line"/>
    </contour>
    <contour>
      <point x="339" y="582" type="move" name="top"/>
    </contour>
    <contour>
      <point x="339" y="483" type="move" name="center"/>
    </contour>
    <contour>
      <point x="339" y="0" type="move" name="bottom"/>
    </contour>
  </outline>
</glyph>
<glyph name="J" format="1">
  <advance width="499"/>
  <unicode hex="004A"/>
  <outline>
    <contour>
      <point x="467" y="234" type="curve" smooth="yes"/>
      <point x="467" y="582" type="line"/>
      <point x="42" y="582" type="line"/>
      <point x="42" y="414" type="line"/>
      <point x="240" y="414" type="line"/>
      <point x="240" y="224" type="line" smooth="yes"/>
      <point x="240" y="185"/>
      <point x="220" y="165"/>
      <point x="186" y="165" type="curve" smooth="yes"/>
      <point x="157" y="165"/>
      <point x="130" y="179"/>
      <point x="99" y="214" type="curve"/>
      <point x="-24" y="72" type="line"/>
      <point x="28" y="15"/>
      <point x="108" y="-15"/>
      <point x="206" y="-15" type="curve" smooth="yes"/>
      <point x="375" y="-15"/>
      <point x="467" y="67"/>
    </contour>
    <contour>
      <point x="255" y="582" type="move" name="top"/>
    </contour>
  </outline>
</glyph>
<glyph name="K" format="1">
  <advance width="657"/>
  <unicode hex="004B"/>
  <outline>
    <contour>
      <point x="298" y="184" type="line"/>
      <point x="426" y="310" type="line"/>
      <point x="674" y="582" type="line"/>
      <point x="424" y="582" type="line"/>
      <point x="231" y="365" type="line"/>
      <point x="243" y="121" type="line"/>
    </contour>
    <contour>
      <point x="264" y="0" type="line"/>
      <point x="264" y="582" type="line"/>
      <point x="38" y="582" type="line"/>
      <point x="38" y="0" type="line"/>
    </contour>
    <contour>
      <point x="684" y="0" type="line"/>
      <point x="411" y="366" type="line"/>
      <point x="262" y="213" type="line"/>
      <point x="419" y="0" type="line"/>
    </contour>
    <contour>
      <point x="327" y="582" type="move" name="top"/>
    </contour>
    <contour>
      <point x="327" y="0" type="move" name="bottom"/>
    </contour>
  </outline>
</glyph>
<glyph name="L" format="1">
  <advance width="527"/>
  <unicode hex="004C"/>
  <outline>
    <contour>
      <point x="521" y="0" type="line"/>
      <point x="521" y="172" type="line"/>
      <point x="268" y="172" type="line"/>
      <point x="268" y="582" type="line"/>
      <point x="38" y="582" type="line"/>
      <point x="38" y="0" type="line"/>
    </contour>
    <contour>
      <point x="153" y="337" type="move" name="center"/>
    </contour>
    <contour>
      <point x="416" y="380" type="move" name="dot"/>
    </contour>
    <contour>
      <point x="153" y="582" type="move" name="top"/>
    </contour>
    <contour>
      <point x="355" y="582" type="move" name="topright"/>
    </contour>
    <contour>
      <point x="289" y="0" type="move" name="bottom"/>
    </contour>
  </outline>
</glyph>
<glyph name="M" format="1">
  <advance width="807"/>
  <unicode hex="004D"/>
  <outline>
    <contour>
      <point x="247" y="0" type="line"/>
      <point x="247" y="276" type="line"/>
      <point x="207" y="276" type="line"/>
      <point x="352" y="48" type="line"/>
      <point x="453" y="48" type="line"/>
      <point x="590" y="276" type="line"/>
      <point x="558" y="276" type="line"/>
      <point x="560" y="0" type="line"/>
      <point x="769" y="0" type="line"/>
      <point x="767" y="582" type="line"/>
      <point x="578" y="582" type="line"/>
      <point x="357" y="217" type="line"/>
      <point x="456" y="217" type="line"/>
      <point x="227" y="582" type="line"/>
      <point x="38" y="582" type="line"/>
      <point x="38" y="0" type="line"/>
    </contour>
    <contour>
      <point x="402" y="582" type="move" name="top"/>
    </contour>
    <contour>
      <point x="402" y="0" type="move" name="bottom"/>
    </contour>
  </outline>
</glyph>
<glyph name="N" format="1">
  <advance width="678"/>
  <unicode hex="004E"/>
  <outline>
    <contour>
      <point x="262" y="0" type="line"/>
      <point x="262" y="323" type="line"/>
      <point x="174" y="323" type="line"/>
      <point x="452" y="0" type="line"/>
      <point x="641" y="0" type="line"/>
      <point x="641" y="582" type="line"/>
      <point x="417" y="582" type="line"/>
      <point x="417" y="259" type="line"/>
      <point x="504" y="259" type="line"/>
      <point x="227" y="582" type="line"/>
      <point x="38" y="582" type="line"/>
      <point x="38" y="0" type="line"/>
    </contour>
    <contour>
      <point x="339" y="582" type="move" name="top"/>
    </contour>
    <contour>
      <point x="339" y="0" type="move" name="bottom"/>
    </contour>
  </outline>
</glyph>
<glyph name="O" format="1">
  <advance width="719"/>
  <unicode hex="004F"/>
  <outline>
    <contour>
      <point x="699" y="291" type="curve" smooth="yes"/>
      <point x="699" y="468"/>
      <point x="556" y="597"/>
      <point x="360" y="597" type="curve" smooth="yes"/>
      <point x="163" y="597"/>
      <point x="20" y="468"/>
      <point x="20" y="291" type="curve" smooth="yes"/>
      <point x="20" y="113"/>
      <point x="163" y="-15"/>
      <point x="360" y="-15" type="curve" smooth="yes"/>
      <point x="556" y="-15"/>
      <point x="699" y="113"/>
    </contour>
    <contour>
      <point x="252" y="291" type="curve" smooth="yes"/>
      <point x="252" y="371"/>
      <point x="301" y="417"/>
      <point x="360" y="417" type="curve" smooth="yes"/>
      <point x="418" y="417"/>
      <point x="467" y="371"/>
      <point x="467" y="291" type="curve" smooth="yes"/>
      <point x="467" y="210"/>
      <point x="418" y="165"/>
      <point x="360" y="165" type="curve" smooth="yes"/>
      <point x="301" y="165"/>
      <point x="252" y="210"/>
    </contour>
    <contour>
      <point x="360" y="0" type="move" name="bottom"/>
    </contour>
    <contour>
      <point x="474" y="0" type="move" name="ogonek"/>
    </contour>
    <contour>
      <point x="360" y="582" type="move" name="top"/>
    </contour>
    <contour>
      <point x="488" y="582" type="move" name="topright"/>
    </contour>
    <contour>
      <point x="25" y="582" type="move" name="topleft"/>
    </contour>
    <contour>
      <point x="360" y="291" type="move" name="center"/>
    </contour>
  </outline>
</glyph>
<glyph name="P" format="1">
  <advance width="633"/>
  <unicode hex="0050"/>
  <outline>
    <contour>
      <point x="268" y="0" type="line"/>
      <point x="268" y="230" type="line"/>
      <point x="165" y="135" type="line"/>
      <point x="337" y="135" type="line" smooth="yes"/>
      <point x="505" y="135"/>
      <point x="613" y="221"/>
      <point x="613" y="358" type="curve" smooth="yes"/>
      <point x="613" y="495"/>
      <point x="505" y="582"/>
      <point x="337" y="582" type="curve" smooth="yes"/>
      <point x="38" y="582" type="line"/>
      <point x="38" y="0" type="line"/>
    </contour>
    <contour>
      <point x="268" y="511" type="line"/>
      <point x="165" y="410" type="line"/>
      <point x="322" y="410" type="line" smooth="yes"/>
      <point x="363" y="410"/>
      <point x="381" y="390"/>
      <point x="381" y="358" type="curve" smooth="yes"/>
      <point x="381" y="326"/>
      <point x="363" y="306"/>
      <point x="322" y="306" type="curve" smooth="yes"/>
      <point x="165" y="306" type="line"/>
      <point x="268" y="205" type="line"/>
    </contour>
  </outline>
</glyph>
<glyph name="Q" format="1">
  <advance width="719"/>
  <unicode hex="0051"/>
  <outline>
    <contour>
      <point x="699" y="291" type="curve" smooth="yes"/>
      <point x="699" y="468"/>
      <point x="556" y="597"/>
      <point x="360" y="597" type="curve" smooth="yes"/>
      <point x="163" y="597"/>
      <point x="20" y="468"/>
      <point x="20" y="291" type="curve" smooth="yes"/>
      <point x="20" y="113"/>
      <point x="163" y="-15"/>
      <point x="360" y="-15" type="curve" smooth="yes"/>
      <point x="556" y="-15"/>
      <point x="699" y="113"/>
    </contour>
    <contour>
      <point x="732" y="-78" type="curve"/>
      <point x="633" y="35" type="line"/>
      <point x="610" y="13"/>
      <point x="583" y="1"/>
      <point x="558" y="1" type="curve" smooth="yes"/>
      <point x="525" y="1"/>
      <point x="512" y="14"/>
      <point x="475" y="75" type="curve"/>
      <point x="238" y="19" type="line"/>
      <point x="365" y="-116"/>
      <point x="433" y="-154"/>
      <point x="553" y="-154" type="curve" smooth="yes"/>
      <point x="627" y="-154"/>
      <point x="689" y="-127"/>
    </contour>
    <contour>
      <point x="252" y="291" type="curve" smooth="yes"/>
      <point x="252" y="372"/>
      <point x="301" y="417"/>
      <point x="360" y="417" type="curve" smooth="yes"/>
      <point x="418" y="417"/>
      <point x="467" y="372"/>
      <point x="467" y="291" type="curve" smooth="yes"/>
      <point x="467" y="210"/>
      <point x="418" y="165"/>
      <point x="360" y="165" type="curve" smooth="yes"/>
      <point x="301" y="165"/>
      <point x="252" y="210"/>
    </contour>
    <contour>
      <point x="361" y="582" type="move" name="top"/>
    </contour>
  </outline>
</glyph>
<glyph name="R" format="1">
  <advance width="634"/>
  <unicode hex="0052"/>
  <outline>
    <contour>
      <point x="268" y="0" type="line"/>
      <point x="264" y="230" type="line"/>
      <point x="165" y="138" type="line"/>
      <point x="337" y="138" type="line" smooth="yes"/>
      <point x="505" y="138"/>
      <point x="613" y="221"/>
      <point x="613" y="358" type="curve" smooth="yes"/>
      <point x="613" y="495"/>
      <point x="505" y="582"/>
      <point x="337" y="582" type="curve" smooth="yes"/>
      <point x="38" y="582" type="line"/>
      <point x="38" y="0" type="line"/>
    </contour>
    <contour>
      <point x="626" y="0" type="line"/>
      <point x="480" y="212" type="line"/>
      <point x="237" y="212" type="line"/>
      <point x="381" y="0" type="line"/>
    </contour>
    <contour>
      <point x="268" y="511" type="line"/>
      <point x="165" y="410" type="line"/>
      <point x="322" y="410" type="line" smooth="yes"/>
      <point x="363" y="410"/>
      <point x="381" y="390"/>
      <point x="381" y="358" type="curve" smooth="yes"/>
      <point x="381" y="326"/>
      <point x="363" y="306"/>
      <point x="322" y="306" type="curve" smooth="yes"/>
      <point x="165" y="306" type="line"/>
      <point x="264" y="205" type="line"/>
    </contour>
    <contour>
      <point x="322" y="582" type="move" name="top"/>
    </contour>
    <contour>
      <point x="322" y="0" type="move" name="bottom"/>
    </contour>
  </outline>
</glyph>
<glyph name="S" format="1">
  <advance width="564"/>
  <unicode hex="0053"/>
  <outline>
    <contour>
      <point x="559" y="189" type="curve" smooth="yes"/>
      <point x="559" y="404"/>
      <point x="240" y="354"/>
      <point x="240" y="405" type="curve" smooth="yes"/>
      <point x="240" y="417"/>
      <point x="252" y="427"/>
      <point x="299" y="427" type="curve" smooth="yes"/>
      <point x="351" y="427"/>
      <point x="405" y="413"/>
      <point x="465" y="385" type="curve"/>
      <point x="533" y="546" type="line"/>
      <point x="468" y="581"/>
      <point x="384" y="597"/>
      <point x="301" y="597" type="curve" smooth="yes"/>
      <point x="110" y="597"/>
      <point x="13" y="506"/>
      <point x="13" y="393" type="curve" smooth="yes"/>
      <point x="13" y="176"/>
      <point x="332" y="227"/>
      <point x="332" y="172" type="curve" smooth="yes"/>
      <point x="332" y="159"/>
      <point x="318" y="155"/>
      <point x="273" y="155" type="curve" smooth="yes"/>
      <point x="211" y="155"/>
      <point x="137" y="173"/>
      <point x="78" y="204" type="curve"/>
      <point x="5" y="42" type="line"/>
      <point x="67" y="8"/>
      <point x="170" y="-15"/>
      <point x="271" y="-15" type="curve" smooth="yes"/>
      <point x="462" y="-15"/>
      <point x="559" y="78"/>
    </contour>
    <contour>
      <point x="280" y="582" type="move" name="top"/>
    </contour>
    <contour>
      <point x="280" y="0" type="move" name="bottom"/>
    </contour>
  </outline>
</glyph>
<glyph name="T" format="1">
  <advance width="568"/>
  <unicode hex="0054"/>
  <outline>
    <contour>
      <point x="399" y="0" type="line"/>
      <point x="399" y="409" type="line"/>
      <point x="565" y="409" type="line"/>
      <point x="565" y="582" type="line"/>
      <point x="3" y="582" type="line"/>
      <point x="3" y="409" type="line"/>
      <point x="169" y="409" type="line"/>
      <point x="169" y="0" type="line"/>
    </contour>
    <contour>
      <point x="284" y="582" type="move" name="top"/>
    </contour>
    <contour>
      <point x="284" y="257" type="move" name="center"/>
    </contour>
    <contour>
      <point x="284" y="0" type="move" name="bottom"/>
    </contour>
  </outline>
</glyph>
<glyph name="U" format="1">
  <advance width="662"/>
  <unicode hex="0055"/>
  <outline>
    <contour>
      <point x="629" y="264" type="curve" smooth="yes"/>
      <point x="629" y="582" type="line"/>
      <point x="403" y="582" type="line"/>
      <point x="403" y="271" type="line" smooth="yes"/>
      <point x="403" y="192"/>
      <point x="376" y="165"/>
      <point x="333" y="165" type="curve" smooth="yes"/>
      <point x="290" y="165"/>
      <point x="262" y="192"/>
      <point x="262" y="271" type="curve" smooth="yes"/>
      <point x="262" y="582" type="line"/>
      <point x="32" y="582" type="line"/>
      <point x="32" y="264" type="line" smooth="yes"/>
      <point x="32" y="88"/>
      <point x="142" y="-15"/>
      <point x="331" y="-15" type="curve" smooth="yes"/>
      <point x="520" y="-15"/>
      <point x="629" y="88"/>
    </contour>
    <contour>
      <point x="530" y="0" type="move" name="ogonek"/>
    </contour>
    <contour>
      <point x="333" y="582" type="move" name="top"/>
    </contour>
    <contour>
      <point x="537" y="582" type="move" name="topright"/>
    </contour>
    <contour>
      <point x="333" y="0" type="move" name="bottom"/>
    </contour>
  </outline>
</glyph>
<glyph name="V" format="1">
  <advance width="681"/>
  <unicode hex="0056"/>
  <outline>
    <contour>
      <point x="454" y="0" type="line"/>
      <point x="701" y="582" type="line"/>
      <point x="476" y="582" type="line"/>
      <point x="274" y="102" type="line"/>
      <point x="422" y="102" type="line"/>
      <point x="227" y="582" type="line"/>
      <point x="-20" y="582" type="line"/>
      <point x="228" y="0" type="line"/>
    </contour>
  </outline>
</glyph>
<glyph name="W" format="1">
  <advance width="1076"/>
  <unicode hex="0057"/>
  <outline>
    <contour>
      <point x="448" y="0" type="line"/>
      <point x="575" y="378" type="line"/>
      <point x="509" y="378" type="line"/>
      <point x="628" y="0" type="line"/>
      <point x="875" y="0" type="line"/>
      <point x="1071" y="582" type="line"/>
      <point x="850" y="582" type="line"/>
      <point x="688" y="102" type="line"/>
      <point x="807" y="102" type="line"/>
      <point x="656" y="582" type="line"/>
      <point x="439" y="582" type="line"/>
      <point x="275" y="102" type="line"/>
      <point x="400" y="102" type="line"/>
      <point x="245" y="582" type="line"/>
      <point x="6" y="582" type="line"/>
      <point x="202" y="0" type="line"/>
    </contour>
    <contour>
      <point x="538" y="582" type="move" name="top"/>
    </contour>
    <contour>
      <point x="538" y="0" type="move" name="bottom"/>
    </contour>
  </outline>
</glyph>
<glyph name="X" format="1">
  <advance width="664"/>
  <unicode hex="0058"/>
  <outline>
    <contour>
      <point x="251" y="0" type="line"/>
      <point x="383" y="217" type="line"/>
      <point x="276" y="216" type="line"/>
      <point x="413" y="0" type="line"/>
      <point x="676" y="0" type="line"/>
      <point x="402" y="379" type="line"/>
      <point x="402" y="223" type="line"/>
      <point x="664" y="582" type="line"/>
      <point x="417" y="582" type="line"/>
      <point x="281" y="373" type="line"/>
      <point x="392" y="374" type="line"/>
      <point x="253" y="582" type="line"/>
      <point x="-5" y="582" type="line"/>
      <point x="256" y="215" type="line"/>
      <point x="257" y="370" type="line"/>
      <point x="-11" y="0" type="line"/>
    </contour>
  </outline>
</glyph>
<glyph name="Y" format="1">
  <advance width="665"/>
  <unicode hex="0059"/>
  <outline>
    <contour>
      <point x="448" y="0" type="line"/>
      <point x="448" y="221" type="line"/>
      <point x="397" y="88" type="line"/>
      <point x="694" y="582" type="line"/>
      <point x="469" y="582" type="line"/>
      <point x="268" y="249" type="line"/>
      <point x="416" y="249" type="line"/>
      <point x="217" y="582" type="line"/>
      <point x="-28" y="582" type="line"/>
      <point x="270" y="88" type="line"/>
      <point x="218" y="221" type="line"/>
      <point x="218" y="0" type="line"/>
    </contour>
    <contour>
      <point x="333" y="582" type="move" name="top"/>
    </contour>
    <contour>
      <point x="333" y="0" type="move" name="bottom"/>
    </contour>
  </outline>
</glyph>
<glyph name="Z" format="1">
  <advance width="588"/>
  <unicode hex="005A"/>
  <outline>
    <contour>
      <point x="582" y="0" type="line"/>
      <point x="582" y="172" type="line"/>
      <point x="227" y="172" type="line"/>
      <point x="255" y="95" type="line"/>
      <point x="567" y="446" type="line"/>
      <point x="567" y="583" type="line"/>
      <point x="34" y="583" type="line"/>
      <point x="34" y="410" type="line"/>
      <point x="365" y="410" type="line"/>
      <point x="337" y="488" type="line"/>
      <point x="25" y="137" type="line"/>
      <point x="25" y="0" type="line"/>
    </contour>
    <contour>
      <point x="304" y="582" type="move" name="top"/>
    </contour>
    <contour>
      <point x="302" y="0" type="move" name="bottom"/>
    </contour>
  </outline>
</glyph>
<glyph name="bracketleft" format="1">
  <advance width="336"/>
  <unicode hex="005B"/>
  <outline>
    <contour>
      <point x="330" y="-103" type="line"/>
      <point x="330" y="53" type="line"/>
      <point x="233" y="53" type="line"/>
      <point x="233" y="461" type="line"/>
      <point x="330" y="461" type="line"/>
      <point x="330" y="617" type="line"/>
      <point x="38" y="617" type="line"/>
      <point x="38" y="-103" type="line"/>
    </contour>
  </outline>
</glyph>
<glyph name="underscore" format="1">
  <advance width="515"/>
  <unicode hex="005F"/>
  <outline>
    <contour>
      <point x="515" y="-170" type="line"/>
      <point x="515" y="-57" type="line"/>
      <point x="0" y="-57" type="line"/>
      <point x="0" y="-170" type="line"/>
    </contour>
  </outline>
</glyph>
<glyph name="a" format="1">
  <advance width="540"/>
  <unicode hex="0061"/>
  <outline>
    <contour>
      <point x="508" y="0" type="line"/>
      <point x="508" y="239" type="line" smooth="yes"/>
      <point x="508" y="398"/>
      <point x="410" y="467"/>
      <point x="243" y="467" type="curve" smooth="yes"/>
      <point x="171" y="467"/>
      <point x="86" y="450"/>
      <point x="29" y="418" type="curve"/>
      <point x="98" y="277" type="line"/>
      <point x="128" y="298"/>
      <point x="173" y="309"/>
      <point x="205" y="309" type="curve" smooth="yes"/>
      <point x="265" y="309"/>
      <point x="288" y="289"/>
      <point x="288" y="251" type="curve" smooth="yes"/>
      <point x="288" y="100" type="line"/>
      <point x="303" y="77" type="line"/>
      <point x="303" y="0" type="line"/>
    </contour>
    <contour>
      <point x="315" y="89" type="curve"/>
      <point x="288" y="152" type="line"/>
      <point x="281" y="128"/>
      <point x="262" y="118"/>
      <point x="245" y="118" type="curve" smooth="yes"/>
      <point x="226" y="118"/>
      <point x="215" y="130"/>
      <point x="215" y="145" type="curve" smooth="yes"/>
      <point x="215" y="165"/>
      <point x="229" y="174"/>
      <point x="260" y="174" type="curve" smooth="yes"/>
      <point x="308" y="174" type="line"/>
      <point x="308" y="276" type="line"/>
      <point x="224" y="276" type="line" smooth="yes"/>
      <point x="78" y="276"/>
      <point x="8" y="227"/>
      <point x="8" y="135" type="curve" smooth="yes"/>
      <point x="8" y="56"/>
      <point x="64" y="-9"/>
      <point x="178" y="-9" type="curve" smooth="yes"/>
      <point x="256" y="-9"/>
      <point x="301" y="22"/>
    </contour>
    <contour>
      <point x="268" y="458" type="move" name="top"/>
    </contour>
    <contour>
      <point x="447" y="0" type="move" name="ogonek"/>
    </contour>
    <contour>
      <point x="244" y="0" type="move" name="bottom"/>
    </contour>
  </outline>
</glyph>
<glyph name="b" format="1">
  <advance width="590"/>
  <unicode hex="0062"/>
  <outline>
    <contour>
      <point x="577" y="230" type="curve" smooth="yes"/>
      <point x="577" y="379"/>
      <point x="475" y="467"/>
      <point x="355" y="467" type="curve" smooth="yes"/>
      <point x="236" y="467"/>
      <point x="188" y="396"/>
      <point x="188" y="230" type="curve" smooth="yes"/>
      <point x="188" y="60"/>
      <point x="228" y="-9"/>
      <point x="355" y="-9" type="curve" smooth="yes"/>
      <point x="475" y="-9"/>
      <point x="577" y="80"/>
    </contour>
    <contour>
      <point x="242" y="0" type="line"/>
      <point x="242" y="47" type="line"/>
      <point x="245" y="229" type="line"/>
      <point x="253" y="412" type="line"/>
      <point x="253" y="617" type="line"/>
      <point x="33" y="617" type="line"/>
      <point x="33" y="0" type="line"/>
    </contour>
    <contour>
      <point x="249" y="230" type="curve" smooth="yes"/>
      <point x="249" y="280"/>
      <point x="274" y="302"/>
      <point x="305" y="302" type="curve" smooth="yes"/>
      <point x="335" y="302"/>
      <point x="360" y="280"/>
      <point x="360" y="230" type="curve" smooth="yes"/>
      <point x="360" y="179"/>
      <point x="335" y="156"/>
      <point x="305" y="156" type="curve" smooth="yes"/>
      <point x="274" y="156"/>
      <point x="249" y="179"/>
    </contour>
  </outline>
</glyph>
<glyph name="c" format="1">
  <advance width="518"/>
  <unicode hex="0063"/>
  <outline>
    <contour>
      <point x="523" y="135" type="curve"/>
      <point x="359" y="215" type="line"/>
      <point x="342" y="173"/>
      <point x="318" y="156"/>
      <point x="289" y="156" type="curve" smooth="yes"/>
      <point x="258" y="156"/>
      <point x="230" y="179"/>
      <point x="230" y="230" type="curve" smooth="yes"/>
      <point x="230" y="280"/>
      <point x="258" y="302"/>
      <point x="289" y="302" type="curve" smooth="yes"/>
      <point x="318" y="302"/>
      <point x="342" y="285"/>
      <point x="359" y="243" type="curve"/>
      <point x="523" y="323" type="line"/>
      <point x="495" y="413"/>
      <point x="408" y="467"/>
      <point x="290" y="467" type="curve" smooth="yes"/>
      <point x="128" y="467"/>
      <point x="13" y="369"/>
      <point x="13" y="230" type="curve" smooth="yes"/>
      <point x="13" y="89"/>
      <point x="128" y="-9"/>
      <point x="290" y="-9" type="curve" smooth="yes"/>
      <point x="408" y="-9"/>
      <point x="495" y="46"/>
    </contour>
    <contour>
      <point x="273" y="458" type="move" name="top"/>
    </contour>
    <contour>
      <point x="265" y="0" type="move" name="bottom"/>
    </contour>
  </outline>
</glyph>
<glyph name="d" format="1">
  <advance width="595"/>
  <unicode hex="0064"/>
  <outline>
    <contour>
      <point x="408" y="230" type="curve" smooth="yes"/>
      <point x="408" y="396"/>
      <point x="359" y="467"/>
      <point x="240" y="467" type="curve" smooth="yes"/>
      <point x="120" y="467"/>
      <point x="18" y="379"/>
      <point x="18" y="230" type="curve" smooth="yes"/>
      <point x="18" y="80"/>
      <point x="120" y="-9"/>
      <point x="240" y="-9" type="curve" smooth="yes"/>
      <point x="367" y="-9"/>
      <point x="408" y="60"/>
    </contour>
    <contour>
      <point x="235" y="230" type="curve" smooth="yes"/>
      <point x="235" y="280"/>
      <point x="260" y="302"/>
      <point x="291" y="302" type="curve" smooth="yes"/>
      <point x="321" y="302"/>
      <point x="346" y="280"/>
      <point x="346" y="230" type="curve" smooth="yes"/>
      <point x="346" y="179"/>
      <point x="321" y="156"/>
      <point x="291" y="156" type="curve" smooth="yes"/>
      <point x="260" y="156"/>
      <point x="235" y="179"/>
    </contour>
    <contour>
      <point x="562" y="0" type="line"/>
      <point x="562" y="617" type="line"/>
      <point x="342" y="617" type="line"/>
      <point x="342" y="412" type="line"/>
      <point x="350" y="229" type="line"/>
      <point x="353" y="47" type="line"/>
      <point x="353" y="0" type="line"/>
    </contour>
    <contour>
      <point x="412" y="533" type="move" name="center"/>
    </contour>
    <contour>
      <point x="325" y="0" type="move" name="bottom"/>
    </contour>
    <contour>
      <point x="620" y="617" type="move" name="topright"/>
    </contour>
  </outline>
</glyph>
<glyph name="e" format="1">
  <advance width="562"/>
  <unicode hex="0065"/>
  <outline>
    <contour>
      <point x="513" y="64" type="curve"/>
      <point x="400" y="176" type="line"/>
      <point x="370" y="157"/>
      <point x="351" y="148"/>
      <point x="311" y="148" type="curve" smooth="yes"/>
      <point x="256" y="148"/>
      <point x="227" y="173"/>
      <point x="227" y="223" type="curve" smooth="yes"/>
      <point x="227" y="255" type="line" smooth="yes"/>
      <point x="227" y="298"/>
      <point x="249" y="323"/>
      <point x="287" y="323" type="curve" smooth="yes"/>
      <point x="325" y="323"/>
      <point x="346" y="298"/>
      <point x="346" y="255" type="curve"/>
      <point x="432" y="281" type="line"/>
      <point x="197" y="281" type="line"/>
      <point x="197" y="179" type="line"/>
      <point x="545" y="179" type="line"/>
      <point x="547" y="194"/>
      <point x="549" y="214"/>
      <point x="549" y="229" type="curve" smooth="yes"/>
      <point x="549" y="387"/>
      <point x="426" y="467"/>
      <point x="285" y="467" type="curve" smooth="yes"/>
      <point x="130" y="467"/>
      <point x="13" y="369"/>
      <point x="13" y="230" type="curve" smooth="yes"/>
      <point x="13" y="93"/>
      <point x="125" y="-9"/>
      <point x="304" y="-9" type="curve" smooth="yes"/>
      <point x="400" y="-9"/>
      <point x="466" y="16"/>
    </contour>
    <contour>
      <point x="285" y="458" type="move" name="top"/>
    </contour>
    <contour>
      <point x="482" y="0" type="move" name="ogonek"/>
    </contour>
    <contour>
      <point x="285" y="0" type="move" name="bottom"/>
    </contour>
  </outline>
</glyph>
<glyph name="f" format="1">
  <advance width="377"/>
  <unicode hex="0066"/>
  <outline>
    <contour>
      <point x="277" y="0" type="line"/>
      <point x="277" y="319" type="line"/>
      <point x="270" y="406" type="line"/>
      <point x="270" y="419" type="line" smooth="yes"/>
      <point x="270" y="452"/>
      <point x="287" y="465"/>
      <point x="308" y="465" type="curve" smooth="yes"/>
      <point x="321" y="465"/>
      <point x="335" y="461"/>
      <point x="347" y="456" type="curve"/>
      <point x="398" y="605" type="line"/>
      <point x="369" y="619"/>
      <point x="322" y="626"/>
      <point x="280" y="626" type="curve" smooth="yes"/>
      <point x="137" y="626"/>
      <point x="57" y="545"/>
      <point x="57" y="420" type="curve" smooth="yes"/>
      <point x="57" y="0" type="line"/>
    </contour>
    <contour>
      <point x="363" y="274" type="line"/>
      <point x="363" y="430" type="line"/>
      <point x="-3" y="430" type="line"/>
      <point x="-3" y="274" type="line"/>
    </contour>
  </outline>
</glyph>
<glyph name="g" format="1">
  <advance width="600"/>
  <unicode hex="0067"/>
  <outline>
    <contour>
      <point x="567" y="98" type="curve" smooth="yes"/>
      <point x="567" y="458" type="line"/>
      <point x="358" y="458" type="line"/>
      <point x="358" y="402" type="line"/>
      <point x="356" y="247" type="line"/>
      <point x="347" y="93" type="line"/>
      <point x="347" y="69" type="line" smooth="yes"/>
      <point x="347" y="18"/>
      <point x="320" y="-12"/>
      <point x="252" y="-12" type="curve" smooth="yes"/>
      <point x="207" y="-12"/>
      <point x="146" y="4"/>
      <point x="111" y="29" type="curve"/>
      <point x="38" y="-116" type="line"/>
      <point x="98" y="-152"/>
      <point x="182" y="-170"/>
      <point x="274" y="-170" type="curve" smooth="yes"/>
      <point x="456" y="-170"/>
      <point x="567" y="-83"/>
    </contour>
    <contour>
      <point x="399" y="247" type="curve" smooth="yes"/>
      <point x="399" y="401"/>
      <point x="352" y="467"/>
      <point x="234" y="467" type="curve" smooth="yes"/>
      <point x="118" y="467"/>
      <point x="13" y="384"/>
      <point x="13" y="247" type="curve" smooth="yes"/>
      <point x="13" y="111"/>
      <point x="118" y="27"/>
      <point x="234" y="27" type="curve" smooth="yes"/>
      <point x="352" y="27"/>
      <point x="399" y="94"/>
    </contour>
    <contour>
      <point x="230" y="247" type="curve" smooth="yes"/>
      <point x="230" y="281"/>
      <point x="256" y="302"/>
      <point x="284" y="302" type="curve" smooth="yes"/>
      <point x="313" y="302"/>
      <point x="337" y="281"/>
      <point x="337" y="247" type="curve" smooth="yes"/>
      <point x="337" y="214"/>
      <point x="313" y="192"/>
      <point x="284" y="192" type="curve" smooth="yes"/>
      <point x="256" y="192"/>
      <point x="230" y="214"/>
    </contour>
    <contour>
      <point x="300" y="458" type="move" name="top"/>
    </contour>
  </outline>
</glyph>
<glyph name="i" format="1">
  <advance width="285"/>
  <unicode hex="0069"/>
  <outline>
    <component base="dotaccentcomb.i" xOffset="-110.565"/>
    <component base="idotless"/>
    <contour>
      <point x="252" y="0" type="move" name="ogonek"/>
    </contour>
    <contour>
      <point x="143" y="0" type="move" name="bottom"/>
    </contour>
  </outline>
</glyph>
<glyph name="k" format="1">
  <advance width="602"/>
  <unicode hex="006B"/>
  <outline>
    <contour>
      <point x="292" y="148" type="line"/>
      <point x="401" y="234" type="line"/>
      <point x="616" y="458" type="line"/>
      <point x="357" y="458" type="line"/>
      <point x="223" y="318" type="line"/>
      <point x="218" y="67" type="line"/>
    </contour>
    <contour>
      <point x="253" y="0" type="line"/>
      <point x="253" y="617" type="line"/>
      <point x="33" y="617" type="line"/>
      <point x="33" y="0" type="line"/>
    </contour>
    <contour>
      <point x="631" y="0" type="line"/>
      <point x="386" y="306" type="line"/>
      <point x="251" y="144" type="line"/>
      <point x="365" y="0" type="line"/>
    </contour>
    <contour>
      <point x="143" y="617" type="move" name="top"/>
    </contour>
    <contour>
      <point x="270" y="458" type="move" name="topright"/>
    </contour>
    <contour>
      <point x="276" y="0" type="move" name="bottom"/>
    </contour>
  </outline>
</glyph>
<glyph name="l" format="1">
  <advance width="286"/>
  <unicode hex="006C"/>
  <outline>
    <contour>
      <point x="253" y="0" type="line"/>
      <point x="253" y="617" type="line"/>
      <point x="33" y="617" type="line"/>
      <point x="33" y="0" type="line"/>
    </contour>
    <contour>
      <point x="143" y="310" type="move" name="center"/>
    </contour>
    <contour>
      <point x="375" y="310" type="move" name="dot"/>
    </contour>
    <contour>
      <point x="143" y="617" type="move" name="top"/>
    </contour>
    <contour>
      <point x="308" y="617" type="move" name="topright"/>
    </contour>
    <contour>
      <point x="143" y="0" type="move" name="bottom"/>
    </contour>
  </outline>
</glyph>
<glyph name="m" format="1">
  <advance width="876"/>
  <unicode hex="006D"/>
  <outline>
    <contour>
      <point x="844" y="0" type="line"/>
      <point x="844" y="260" type="line" smooth="yes"/>
      <point x="844" y="407"/>
      <point x="762" y="467"/>
      <point x="657" y="467" type="curve" smooth="yes"/>
      <point x="564" y="467"/>
      <point x="488" y="412"/>
      <point x="459" y="320" type="curve"/>
      <point x="549" y="220" type="line"/>
      <point x="549" y="274"/>
      <point x="568" y="288"/>
      <point x="589" y="288" type="curve" smooth="yes"/>
      <point x="608" y="288"/>
      <point x="624" y="272"/>
      <point x="624" y="223" type="curve" smooth="yes"/>
      <point x="624" y="0" type="line"/>
    </contour>
    <contour>
      <point x="253" y="0" type="line"/>
      <point x="253" y="327" type="line"/>
      <point x="242" y="368" type="line"/>
      <point x="242" y="458" type="line"/>
      <point x="33" y="458" type="line"/>
      <point x="33" y="0" type="line"/>
    </contour>
    <contour>
      <point x="549" y="0" type="line"/>
      <point x="549" y="260" type="line" smooth="yes"/>
      <point x="549" y="404"/>
      <point x="467" y="467"/>
      <point x="366" y="467" type="curve" smooth="yes"/>
      <point x="273" y="467"/>
      <point x="192" y="410"/>
      <point x="174" y="284" type="curve"/>
      <point x="253" y="220" type="line"/>
      <point x="253" y="274"/>
      <point x="273" y="288"/>
      <point x="294" y="288" type="curve" smooth="yes"/>
      <point x="315" y="288"/>
      <point x="328" y="272"/>
      <point x="328" y="223" type="curve" smooth="yes"/>
      <point x="328" y="0" type="line"/>
    </contour>
    <contour>
      <point x="437" y="0" type="move" name="bottom"/>
    </contour>
  </outline>
</glyph>
<glyph name="n" format="1">
  <advance width="599"/>
  <unicode hex="006E"/>
  <outline>
    <contour>
      <point x="567" y="0" type="line"/>
      <point x="567" y="260" type="line" smooth="yes"/>
      <point x="567" y="407"/>
      <point x="481" y="467"/>
      <point x="375" y="467" type="curve" smooth="yes"/>
      <point x="278" y="467"/>
      <point x="193" y="410"/>
      <point x="174" y="284" type="curve"/>
      <point x="253" y="211" type="line"/>
      <point x="253" y="272"/>
      <point x="280" y="288"/>
      <point x="307" y="288" type="curve" smooth="yes"/>
      <point x="331" y="288"/>
      <point x="346" y="272"/>
      <point x="346" y="223" type="curve" smooth="yes"/>
      <point x="346" y="0" type="line"/>
    </contour>
    <contour>
      <point x="253" y="0" type="line"/>
      <point x="253" y="327" type="line"/>
      <point x="242" y="368" type="line"/>
      <point x="242" y="458" type="line"/>
      <point x="33" y="458" type="line"/>
      <point x="33" y="0" type="line"/>
    </contour>
    <contour>
      <point x="303" y="458" type="move" name="top"/>
    </contour>
    <contour>
      <point x="303" y="0" type="move" name="bottom"/>
    </contour>
  </outline>
</glyph>
<glyph name="o" format="1">
  <advance width="571"/>
  <unicode hex="006F"/>
  <outline>
    <contour>
      <point x="558" y="230" type="curve" smooth="yes"/>
      <point x="558" y="369"/>
      <point x="445" y="467"/>
      <point x="286" y="467" type="curve" smooth="yes"/>
      <point x="126" y="467"/>
      <point x="13" y="369"/>
      <point x="13" y="230" type="curve" smooth="yes"/>
      <point x="13" y="90"/>
      <point x="126" y="-9"/>
      <point x="286" y="-9" type="curve" smooth="yes"/>
      <point x="445" y="-9"/>
      <point x="558" y="90"/>
    </contour>
    <contour>
      <point x="230" y="230" type="curve" smooth="yes"/>
      <point x="230" y="280"/>
      <point x="255" y="302"/>
      <point x="286" y="302" type="curve" smooth="yes"/>
      <point x="316" y="302"/>
      <point x="341" y="280"/>
      <point x="341" y="230" type="curve" smooth="yes"/>
      <point x="341" y="179"/>
      <point x="316" y="156"/>
      <point x="286" y="156" type="curve" smooth="yes"/>
      <point x="255" y="156"/>
      <point x="230" y="179"/>
    </contour>
    <contour>
      <point x="283" y="230" type="move" name="center"/>
    </contour>
    <contour>
      <point x="392" y="0" type="move" name="ogonek"/>
    </contour>
    <contour>
      <point x="283" y="458" type="move" name="top"/>
    </contour>
    <contour>
      <point x="355" y="458" type="move" name="topright"/>
    </contour>
    <contour>
      <point x="283" y="0" type="move" name="bottom"/>
    </contour>
  </outline>
</glyph>
<glyph name="p" format="1">
  <advance width="590"/>
  <unicode hex="0070"/>
  <outline>
    <contour>
      <point x="577" y="229" type="curve" smooth="yes"/>
      <point x="577" y="378"/>
      <point x="475" y="467"/>
      <point x="355" y="467" type="curve" smooth="yes"/>
      <point x="228" y="467"/>
      <point x="188" y="398"/>
      <point x="188" y="229" type="curve" smooth="yes"/>
      <point x="188" y="62"/>
      <point x="236" y="-9"/>
      <point x="355" y="-9" type="curve" smooth="yes"/>
      <point x="475" y="-9"/>
      <point x="577" y="80"/>
    </contour>
    <contour>
      <point x="253" y="-161" type="line"/>
      <point x="253" y="47" type="line"/>
      <point x="245" y="229" type="line"/>
      <point x="242" y="411" type="line"/>
      <point x="242" y="458" type="line"/>
      <point x="33" y="458" type="line"/>
      <point x="33" y="-161" type="line"/>
    </contour>
    <contour>
      <point x="249" y="229" type="curve" smooth="yes"/>
      <point x="249" y="279"/>
      <point x="274" y="302"/>
      <point x="305" y="302" type="curve" smooth="yes"/>
      <point x="335" y="302"/>
      <point x="360" y="279"/>
      <point x="360" y="229" type="curve" smooth="yes"/>
      <point x="360" y="179"/>
      <point x="335" y="156"/>
      <point x="305" y="156" type="curve" smooth="yes"/>
      <point x="274" y="156"/>
      <point x="249" y="179"/>
    </contour>
    <contour>
      <point x="306" y="458" type="move" name="top"/>
    </contour>
    <contour>
      <point x="357" y="0" type="move" name="bottom"/>
    </contour>
  </outline>
</glyph>
<glyph name="q" format="1">
  <advance width="590"/>
  <unicode hex="0071"/>
  <outline>
    <contour>
      <point x="403" y="229" type="curve" smooth="yes"/>
      <point x="403" y="398"/>
      <point x="362" y="467"/>
      <point x="235" y="467" type="curve" smooth="yes"/>
      <point x="115" y="467"/>
      <point x="13" y="378"/>
      <point x="13" y="229" type="curve" smooth="yes"/>
      <point x="13" y="80"/>
      <point x="115" y="-9"/>
      <point x="235" y="-9" type="curve" smooth="yes"/>
      <point x="354" y="-9"/>
      <point x="403" y="62"/>
    </contour>
    <contour>
      <point x="230" y="229" type="curve" smooth="yes"/>
      <point x="230" y="279"/>
      <point x="255" y="302"/>
      <point x="286" y="302" type="curve" smooth="yes"/>
      <point x="316" y="302"/>
      <point x="341" y="279"/>
      <point x="341" y="229" type="curve" smooth="yes"/>
      <point x="341" y="179"/>
      <point x="316" y="156"/>
      <point x="286" y="156" type="curve" smooth="yes"/>
      <point x="255" y="156"/>
      <point x="230" y="179"/>
    </contour>
    <contour>
      <point x="557" y="-161" type="line"/>
      <point x="557" y="458" type="line"/>
      <point x="348" y="458" type="line"/>
      <point x="348" y="411" type="line"/>
      <point x="346" y="229" type="line"/>
      <point x="337" y="47" type="line"/>
      <point x="337" y="-161" type="line"/>
    </contour>
    <contour>
      <point x="286" y="458" type="move" name="top"/>
    </contour>
    <contour>
      <point x="235" y="0" type="move" name="bottom"/>
    </contour>
  </outline>
</glyph>
<glyph name="r" format="1">
  <advance width="395"/>
  <unicode hex="0072"/>
  <outline>
    <contour>
      <point x="253" y="0" type="line"/>
      <point x="253" y="327" type="line"/>
      <point x="242" y="368" type="line"/>
      <point x="242" y="458" type="line"/>
      <point x="33" y="458" type="line"/>
      <point x="33" y="0" type="line"/>
    </contour>
    <contour>
      <point x="340" y="283" type="curve" smooth="yes"/>
      <point x="356" y="283"/>
      <point x="369" y="282"/>
      <point x="389" y="279" type="curve"/>
      <point x="387" y="467" type="line"/>
      <point x="271" y="467"/>
      <point x="193" y="406"/>
      <point x="193" y="273" type="curve"/>
      <point x="253" y="198" type="line"/>
      <point x="253" y="264"/>
      <point x="290" y="283"/>
    </contour>
    <contour>
      <point x="210" y="458" type="move" name="top"/>
    </contour>
    <contour>
      <point x="143" y="0" type="move" name="bottom"/>
    </contour>
  </outline>
</glyph>
<glyph name="s" format="1">
  <advance width="506"/>
  <unicode hex="0073"/>
  <outline>
    <contour>
      <point x="487" y="151" type="curve" smooth="yes"/>
      <point x="487" y="336"/>
      <point x="227" y="280"/>
      <point x="227" y="312" type="curve" smooth="yes"/>
      <point x="227" y="315"/>
      <point x="234" y="323"/>
      <point x="277" y="323" type="curve" smooth="yes"/>
      <point x="314" y="323"/>
      <point x="361" y="316"/>
      <point x="411" y="291" type="curve"/>
      <point x="470" y="431" type="line"/>
      <point x="413" y="456"/>
      <point x="344" y="467"/>
      <point x="274" y="467" type="curve" smooth="yes"/>
      <point x="98" y="467"/>
      <point x="23" y="394"/>
      <point x="23" y="307" type="curve" smooth="yes"/>
      <point x="23" y="121"/>
      <point x="284" y="178"/>
      <point x="284" y="146" type="curve" smooth="yes"/>
      <point x="284" y="140"/>
      <point x="278" y="135"/>
      <point x="239" y="135" type="curve" smooth="yes"/>
      <point x="187" y="135"/>
      <point x="124" y="149"/>
      <point x="78" y="174" type="curve"/>
      <point x="18" y="34" type="line"/>
      <point x="68" y="8"/>
      <point x="154" y="-9"/>
      <point x="234" y="-9" type="curve" smooth="yes"/>
      <point x="415" y="-9"/>
      <point x="487" y="67"/>
    </contour>
    <contour>
      <point x="247" y="458" type="move" name="top"/>
    </contour>
    <contour>
      <point x="247" y="0" type="move" name="bottom"/>
    </contour>
  </outline>
</glyph>
<glyph name="t" format="1">
  <advance width="399"/>
  <unicode hex="0074"/>
  <outline>
    <contour>
      <point x="398" y="14" type="curve"/>
      <point x="347" y="162" type="line"/>
      <point x="335" y="155"/>
      <point x="321" y="152"/>
      <point x="308" y="152" type="curve" smooth="yes"/>
      <point x="292" y="152"/>
      <point x="277" y="165"/>
      <point x="277" y="188" type="curve" smooth="yes"/>
      <point x="277" y="562" type="line"/>
      <point x="57" y="562" type="line"/>
      <point x="57" y="187" type="line" smooth="yes"/>
      <point x="57" y="52"/>
      <point x="137" y="-9"/>
      <point x="275" y="-9" type="curve" smooth="yes"/>
      <point x="322" y="-9"/>
      <point x="367" y="-2"/>
    </contour>
    <contour>
      <point x="363" y="274" type="line"/>
      <point x="363" y="430" type="line"/>
      <point x="-3" y="430" type="line"/>
      <point x="-3" y="274" type="line"/>
    </contour>
    <contour>
      <point x="180" y="211" type="move" name="center"/>
    </contour>
    <contour>
      <point x="167" y="562" type="move" name="top"/>
    </contour>
    <contour>
      <point x="309" y="617" type="move" name="topright"/>
    </contour>
    <contour>
      <point x="236" y="0" type="move" name="bottom"/>
    </contour>
  </outline>
</glyph>
<glyph name="u" format="1">
  <advance width="595"/>
  <unicode hex="0075"/>
  <outline>
    <contour>
      <point x="422" y="174" type="curve"/>
      <point x="342" y="248" type="line"/>
      <point x="342" y="187"/>
      <point x="316" y="170"/>
      <point x="295" y="170" type="curve" smooth="yes"/>
      <point x="269" y="170"/>
      <point x="252" y="186"/>
      <point x="252" y="245" type="curve" smooth="yes"/>
      <point x="252" y="458" type="line"/>
      <point x="32" y="458" type="line"/>
      <point x="32" y="208" type="line" smooth="yes"/>
      <point x="32" y="55"/>
      <point x="118" y="-9"/>
      <point x="229" y="-9" type="curve" smooth="yes"/>
      <point x="320" y="-9"/>
      <point x="402" y="49"/>
    </contour>
    <contour>
      <point x="562" y="0" type="line"/>
      <point x="562" y="458" type="line"/>
      <point x="342" y="458" type="line"/>
      <point x="342" y="131" type="line"/>
      <point x="353" y="90" type="line"/>
      <point x="353" y="0" type="line"/>
    </contour>
    <contour>
      <point x="562" y="0" type="move" name="ogonek"/>
    </contour>
    <contour>
      <point x="297" y="458" type="move" name="top"/>
    </contour>
    <contour>
      <point x="452" y="458" type="move" name="topright"/>
    </contour>
    <contour>
      <point x="297" y="0" type="move" name="bottom"/>
    </contour>
  </outline>
</glyph>
<glyph name="v" format="1">
  <advance width="564"/>
  <unicode hex="0076"/>
  <outline>
    <contour>
      <point x="396" y="0" type="line"/>
      <point x="580" y="458" type="line"/>
      <point x="372" y="458" type="line"/>
      <point x="228" y="97" type="line"/>
      <point x="343" y="97" type="line"/>
      <point x="210" y="458" type="line"/>
      <point x="-16" y="458" type="line"/>
      <point x="168" y="0" type="line"/>
    </contour>
    <contour>
      <point x="282" y="458" type="move" name="top"/>
    </contour>
    <contour>
      <point x="282" y="0" type="move" name="bottom"/>
    </contour>
  </outline>
</glyph>
<glyph name="w" format="1">
  <advance width="908"/>
  <unicode hex="0077"/>
  <outline>
    <contour>
      <point x="390" y="0" type="line"/>
      <point x="490" y="273" type="line"/>
      <point x="422" y="273" type="line"/>
      <point x="518" y="0" type="line"/>
      <point x="746" y="0" type="line"/>
      <point x="919" y="458" type="line"/>
      <point x="711" y="458" type="line"/>
      <point x="572" y="97" type="line"/>
      <point x="691" y="97" type="line"/>
      <point x="564" y="458" type="line"/>
      <point x="359" y="458" type="line"/>
      <point x="221" y="97" type="line"/>
      <point x="341" y="97" type="line"/>
      <point x="213" y="458" type="line"/>
      <point x="-10" y="458" type="line"/>
      <point x="162" y="0" type="line"/>
    </contour>
    <contour>
      <point x="454" y="458" type="move" name="top"/>
    </contour>
    <contour>
      <point x="454" y="0" type="move" name="bottom"/>
    </contour>
  </outline>
</glyph>
<glyph name="x" format="1">
  <advance width="566"/>
  <unicode hex="0078"/>
  <outline>
    <contour>
      <point x="225" y="0" type="line"/>
      <point x="325" y="140" type="line"/>
      <point x="232" y="153" type="line"/>
      <point x="327" y="0" type="line"/>
      <point x="579" y="0" type="line"/>
      <point x="361" y="295" type="line"/>
      <point x="361" y="177" type="line"/>
      <point x="576" y="458" type="line"/>
      <point x="346" y="458" type="line"/>
      <point x="241" y="308" type="line"/>
      <point x="333" y="315" type="line"/>
      <point x="239" y="458" type="line"/>
      <point x="-9" y="458" type="line"/>
      <point x="206" y="166" type="line"/>
      <point x="212" y="289" type="line"/>
      <point x="-13" y="0" type="line"/>
    </contour>
  </outline>
</glyph>
<glyph name="y" format="1">
  <advance width="564"/>
  <unicode hex="0079"/>
  <outline>
    <contour>
      <point x="389" y="-17" type="curve" smooth="yes"/>
      <point x="580" y="458" type="line"/>
      <point x="372" y="458" type="line"/>
      <point x="231" y="95" type="line"/>
      <point x="216" y="75" type="line"/>
      <point x="202" y="38" type="line" smooth="yes"/>
      <point x="192" y="12"/>
      <point x="178" y="-3"/>
      <point x="145" y="-3" type="curve" smooth="yes"/>
      <point x="124" y="-3"/>
      <point x="98" y="4"/>
      <point x="80" y="17" type="curve"/>
      <point x="8" y="-129" type="line"/>
      <point x="41" y="-154"/>
      <point x="103" y="-170"/>
      <point x="156" y="-170" type="curve" smooth="yes"/>
      <point x="262" y="-170"/>
      <point x="343" y="-133"/>
    </contour>
    <contour>
      <point x="340" y="114" type="line"/>
      <point x="210" y="458" type="line"/>
      <point x="-16" y="458" type="line"/>
      <point x="185" y="-23" type="line"/>
    </contour>
    <contour>
      <point x="275" y="458" type="move" name="top"/>
    </contour>
    <contour>
      <point x="472" y="0" type="move" name="bottom"/>
    </contour>
  </outline>
</glyph>
<glyph name="z" format="1">
  <advance width="493"/>
  <unicode hex="007A"/>
  <outline>
    <contour>
      <point x="482" y="0" type="line"/>
      <point x="482" y="155" type="line"/>
      <point x="202" y="155" type="line"/>
      <point x="237" y="87" type="line"/>
      <point x="472" y="336" type="line"/>
      <point x="472" y="458" type="line"/>
      <point x="30" y="458" type="line"/>
      <point x="30" y="303" type="line"/>
      <point x="294" y="303" type="line"/>
      <point x="258" y="371" type="line"/>
      <point x="23" y="122" type="line"/>
      <point x="23" y="0" type="line"/>
    </contour>
    <contour>
      <point x="252" y="458" type="move" name="top"/>
    </contour>
    <contour>
      <point x="250" y="0" type="move" name="bottom"/>
    </contour>
  </outline>
</glyph>
<glyph name="braceleft" format="1">
  <advance width="327"/>
  <unicode hex="007B"/>
  <outline>
    <contour>
      <point x="40" y="177" type="line"/>
      <point x="116" y="250" type="line" smooth="yes"/>
      <point x="223" y="258"/>
      <point x="258" y="288"/>
      <point x="258" y="375" type="curve" smooth="yes"/>
      <point x="258" y="417" type="line" smooth="yes"/>
      <point x="258" y="452"/>
      <point x="267" y="464"/>
      <point x="322" y="464" type="curve"/>
      <point x="322" y="619" type="line"/>
      <point x="236" y="619" type="line" smooth="yes"/>
      <point x="105" y="619"/>
      <point x="63" y="586"/>
      <point x="63" y="485" type="curve" smooth="yes"/>
      <point x="63" y="360" type="line" smooth="yes"/>
      <point x="63" y="342"/>
      <point x="58" y="337"/>
      <point x="40" y="337" type="curve" smooth="yes"/>
      <point x="-2" y="337" type="line"/>
      <point x="-2" y="177" type="line"/>
    </contour>
    <contour>
      <point x="322" y="-105" type="line"/>
      <point x="322" y="50" type="line"/>
      <point x="267" y="50"/>
      <point x="258" y="61"/>
      <point x="258" y="96" type="curve" smooth="yes"/>
      <point x="258" y="139" type="line" smooth="yes"/>
      <point x="258" y="226"/>
      <point x="223" y="256"/>
      <point x="116" y="264" type="curve" smooth="yes"/>
      <point x="40" y="337" type="line"/>
      <point x="-2" y="337" type="line"/>
      <point x="-2" y="177" type="line"/>
      <point x="40" y="177" type="line" smooth="yes"/>
      <point x="58" y="177"/>
      <point x="63" y="172"/>
      <point x="63" y="153" type="curve" smooth="yes"/>
      <point x="63" y="29" type="line" smooth="yes"/>
      <point x="63" y="-72"/>
      <point x="105" y="-105"/>
      <point x="236" y="-105" type="curve" smooth="yes"/>
    </contour>
  </outline>
</glyph>
<glyph name="asciitilde" format="1">
  <advance width="446"/>
  <unicode hex="007E"/>
  <outline>
    <contour>
      <point x="411" y="364" type="curve"/>
      <point x="268" y="364" type="line"/>
      <point x="268" y="342"/>
      <point x="262" y="333"/>
      <point x="249" y="333" type="curve" smooth="yes"/>
      <point x="231" y="333"/>
      <point x="211" y="366"/>
      <point x="151" y="366" type="curve" smooth="yes"/>
      <point x="71" y="366"/>
      <point x="35" y="309"/>
      <point x="35" y="184" type="curve"/>
      <point x="179" y="184" type="line"/>
      <point x="179" y="206"/>
      <point x="184" y="216"/>
      <point x="198" y="216" type="curve" smooth="yes"/>
      <point x="216" y="216"/>
      <point x="237" y="182"/>
      <point x="295" y="182" type="curve" smooth="yes"/>
      <point x="375" y="182"/>
      <point x="411" y="240"/>
    </contour>
  </outline>
</glyph>
<glyph name="cent" format="1">
  <advance width="508"/>
  <unicode hex="00A2"/>
  <outline>
    <contour>
      <point x="346" y="-140" type="line"/>
      <point x="346" y="92" type="line"/>
      <point x="185" y="92" type="line"/>
      <point x="185" y="-140" type="line"/>
    </contour>
    <contour>
      <point x="346" y="376" type="line"/>
      <point x="346" y="601" type="line"/>
      <point x="185" y="601" type="line"/>
      <point x="185" y="376" type="line"/>
    </contour>
    <component base="c"/>
  </outline>
</glyph>
<glyph name="sterling" format="1">
  <advance width="493"/>
  <unicode hex="00A3"/>
  <outline>
    <contour>
      <point x="486" y="0" type="line"/>
      <point x="486" y="163" type="line"/>
      <point x="197" y="163" type="line"/>
      <point x="295" y="67" type="line"/>
      <point x="295" y="376" type="line" smooth="yes"/>
      <point x="295" y="400"/>
      <point x="305" y="411"/>
      <point x="326" y="411" type="curve" smooth="yes"/>
      <point x="351" y="411"/>
      <point x="382" y="395"/>
      <point x="418" y="366" type="curve"/>
      <point x="499" y="526" type="line"/>
      <point x="448" y="569"/>
      <point x="376" y="592"/>
      <point x="302" y="592" type="curve" smooth="yes"/>
      <point x="153" y="592"/>
      <point x="68" y="515"/>
      <point x="68" y="381" type="curve" smooth="yes"/>
      <point x="68" y="67" type="line"/>
      <point x="167" y="163" type="line"/>
      <point x="12" y="163" type="line"/>
      <point x="12" y="0" type="line"/>
    </contour>
    <contour>
      <point x="425" y="248" type="line"/>
      <point x="425" y="313" type="line"/>
      <point x="12" y="313" type="line"/>
      <point x="12" y="248" type="line"/>
    </contour>
  </outline>
</glyph>
<glyph name="currency" format="1">
  <advance width="582"/>
  <unicode hex="00A4"/>
  <outline>
    <contour>
      <point x="501" y="269" type="curve" smooth="yes"/>
      <point x="501" y="384"/>
      <point x="408" y="478"/>
      <point x="290" y="478" type="curve" smooth="yes"/>
      <point x="174" y="478"/>
      <point x="79" y="384"/>
      <point x="79" y="269" type="curve" smooth="yes"/>
      <point x="79" y="154"/>
      <point x="174" y="60"/>
      <point x="290" y="60" type="curve" smooth="yes"/>
      <point x="407" y="60"/>
      <point x="501" y="154"/>
    </contour>
    <contour>
      <point x="217" y="73" type="line"/>
      <point x="96" y="191" type="line"/>
      <point x="7" y="103" type="line"/>
      <point x="129" y="-14" type="line"/>
    </contour>
    <contour>
      <point x="149" y="515" type="line"/>
      <point x="60" y="602" type="line"/>
      <point x="-61" y="484" type="line"/>
      <point x="28" y="397" type="line"/>
    </contour>
    <contour>
      <point x="643" y="43" type="line"/>
      <point x="554" y="130" type="line"/>
      <point x="433" y="13" type="line"/>
      <point x="521" y="-74" type="line"/>
    </contour>
    <contour>
      <point x="249" y="269" type="curve" smooth="yes"/>
      <point x="249" y="294"/>
      <point x="267" y="314"/>
      <point x="290" y="314" type="curve" smooth="yes"/>
      <point x="313" y="314"/>
      <point x="332" y="294"/>
      <point x="332" y="269" type="curve" smooth="yes"/>
      <point x="332" y="244"/>
      <point x="313" y="225"/>
      <point x="290" y="225" type="curve" smooth="yes"/>
      <point x="267" y="225"/>
      <point x="249" y="244"/>
    </contour>
    <contour>
      <point x="574" y="424" type="line"/>
      <point x="453" y="542" type="line"/>
      <point x="364" y="455" type="line"/>
      <point x="485" y="337" type="line"/>
    </contour>
  </outline>
</glyph>
<glyph name="yen" format="1">
  <advance width="644"/>
  <unicode hex="00A5"/>
  <outline>
    <contour>
      <point x="337" y="-13" type="line"/>
      <point x="645" y="583" type="line"/>
      <point x="421" y="583" type="line"/>
      <point x="324" y="376" type="line"/>
      <point x="223" y="583" type="line"/>
      <point x="-1" y="583" type="line"/>
      <point x="310" y="-13" type="line"/>
    </contour>
    <contour>
      <point x="437" y="0" type="line"/>
      <point x="437" y="268" type="line"/>
      <point x="211" y="268" type="line"/>
      <point x="211" y="0" type="line"/>
    </contour>
    <contour>
      <point x="585" y="134" type="line"/>
      <point x="585" y="199" type="line"/>
      <point x="60" y="199" type="line"/>
      <point x="60" y="134" type="line"/>
    </contour>
    <contour>
      <point x="585" y="231" type="line"/>
      <point x="585" y="295" type="line"/>
      <point x="60" y="295" type="line"/>
      <point x="60" y="231" type="line"/>
    </contour>
  </outline>
</glyph>
<glyph name="brokenbar" format="1">
  <advance width="291"/>
  <unicode hex="00A6"/>
  <outline>
    <contour>
      <point x="226" y="378" type="line"/>
      <point x="226" y="658" type="line"/>
      <point x="65" y="658" type="line"/>
      <point x="65" y="378" type="line"/>
    </contour>
    <contour>
      <point x="226" y="-82" type="line"/>
      <point x="226" y="198" type="line"/>
      <point x="65" y="198" type="line"/>
      <point x="65" y="-82" type="line"/>
    </contour>
  </outline>
</glyph>
<glyph name="section" format="1">
  <advance width="534"/>
  <unicode hex="00A7"/>
  <outline>
    <contour>
      <point x="471" y="72" type="curve" smooth="yes"/>
      <point x="471" y="108"/>
      <point x="460" y="120"/>
      <point x="442" y="141" type="curve"/>
      <point x="492" y="170"/>
      <point x="515" y="208"/>
      <point x="515" y="255" type="curve" smooth="yes"/>
      <point x="515" y="401"/>
      <point x="268" y="404"/>
      <point x="268" y="435" type="curve" smooth="yes"/>
      <point x="268" y="436"/>
      <point x="269" y="438"/>
      <point x="280" y="438" type="curve" smooth="yes"/>
      <point x="310" y="438"/>
      <point x="367" y="420"/>
      <point x="444" y="385" type="curve"/>
      <point x="509" y="516" type="line"/>
      <point x="431" y="556"/>
      <point x="351" y="577"/>
      <point x="278" y="577" type="curve" smooth="yes"/>
      <point x="147" y="577"/>
      <point x="68" y="513"/>
      <point x="68" y="425" type="curve" smooth="yes"/>
      <point x="68" y="400"/>
      <point x="69" y="380"/>
      <point x="93" y="358" type="curve"/>
      <point x="49" y="329"/>
      <point x="24" y="290"/>
      <point x="24" y="241" type="curve" smooth="yes"/>
      <point x="24" y="95"/>
      <point x="265" y="92"/>
      <point x="265" y="65" type="curve" smooth="yes"/>
      <point x="265" y="65"/>
      <point x="265" y="65"/>
      <point x="250" y="65" type="curve" smooth="yes"/>
      <point x="206" y="65"/>
      <point x="144" y="84"/>
      <point x="76" y="121" type="curve"/>
      <point x="18" y="-11" type="line"/>
      <point x="89" y="-55"/>
      <point x="175" y="-76"/>
      <point x="254" y="-76" type="curve" smooth="yes"/>
      <point x="390" y="-76"/>
      <point x="471" y="-14"/>
    </contour>
    <contour>
      <point x="223" y="254" type="curve" smooth="yes"/>
      <point x="223" y="260"/>
      <point x="229" y="263"/>
      <point x="249" y="263" type="curve" smooth="yes"/>
      <point x="278" y="263"/>
      <point x="310" y="256"/>
      <point x="310" y="245" type="curve" smooth="yes"/>
      <point x="310" y="242"/>
      <point x="302" y="240"/>
      <point x="277" y="240" type="curve" smooth="yes"/>
      <point x="245" y="240"/>
      <point x="223" y="244"/>
    </contour>
  </outline>
</glyph>
<glyph name="copyright" format="1">
  <advance width="613"/>
  <unicode hex="00A9"/>
  <outline>
    <contour>
      <point x="593" y="291" type="curve" smooth="yes"/>
      <point x="593" y="445"/>
      <point x="468" y="573"/>
      <point x="307" y="573" type="curve" smooth="yes"/>
      <point x="146" y="573"/>
      <point x="20" y="443"/>
      <point x="20" y="289" type="curve" smooth="yes"/>
      <point x="20" y="135"/>
      <point x="145" y="7"/>
      <point x="305" y="7" type="curve" smooth="yes"/>
      <point x="467" y="7"/>
      <point x="593" y="137"/>
    </contour>
    <contour>
      <point x="427" y="212" type="curve"/>
      <point x="369" y="271" type="line"/>
      <point x="353" y="254"/>
      <point x="331" y="242"/>
      <point x="315" y="242" type="curve" smooth="yes"/>
      <point x="291" y="242"/>
      <point x="274" y="262"/>
      <point x="274" y="292" type="curve" smooth="yes"/>
      <point x="274" y="321"/>
      <point x="291" y="341"/>
      <point x="315" y="341" type="curve" smooth="yes"/>
      <point x="333" y="341"/>
      <point x="355" y="326"/>
      <point x="369" y="305" type="curve"/>
      <point x="427" y="372" type="line"/>
      <point x="400" y="402"/>
      <point x="354" y="421"/>
      <point x="313" y="421" type="curve" smooth="yes"/>
      <point x="230" y="421"/>
      <point x="171" y="366"/>
      <point x="171" y="290" type="curve" smooth="yes"/>
      <point x="171" y="213"/>
      <point x="228" y="158"/>
      <point x="310" y="158" type="curve" smooth="yes"/>
      <point x="351" y="158"/>
      <point x="397" y="179"/>
    </contour>
    <contour>
      <point x="116" y="289" type="curve" smooth="yes"/>
      <point x="116" y="393"/>
      <point x="199" y="480"/>
      <point x="307" y="480" type="curve" smooth="yes"/>
      <point x="414" y="480"/>
      <point x="497" y="394"/>
      <point x="497" y="291" type="curve" smooth="yes"/>
      <point x="497" y="187"/>
      <point x="414" y="100"/>
      <point x="305" y="100" type="curve" smooth="yes"/>
      <point x="199" y="100"/>
      <point x="116" y="186"/>
    </contour>
  </outline>
</glyph>
<glyph name="ordfeminine" format="1">
  <advance width="342"/>
  <unicode hex="00AA"/>
  <outline>
    <contour>
      <point x="325" y="381" type="line"/>
      <point x="326" y="559" type="line" smooth="yes"/>
      <point x="327" y="627"/>
      <point x="271" y="664"/>
      <point x="180" y="664" type="curve" smooth="yes"/>
      <point x="136" y="664"/>
      <point x="79" y="656"/>
      <point x="24" y="641" type="curve"/>
      <point x="56" y="550" type="line"/>
      <point x="91" y="558"/>
      <point x="126" y="563"/>
      <point x="145" y="563" type="curve" smooth="yes"/>
      <point x="169" y="563"/>
      <point x="181" y="556"/>
      <point x="181" y="542" type="curve" smooth="yes"/>
      <point x="181" y="381" type="line"/>
    </contour>
    <contour>
      <point x="196" y="430" type="curve"/>
      <point x="181" y="470" type="line"/>
      <point x="174" y="465"/>
      <point x="164" y="461"/>
      <point x="156" y="461" type="curve" smooth="yes"/>
      <point x="146" y="461"/>
      <point x="142" y="466"/>
      <point x="142" y="475" type="curve" smooth="yes"/>
      <point x="142" y="484"/>
      <point x="146" y="489"/>
      <point x="153" y="489" type="curve" smooth="yes"/>
      <point x="193" y="489" type="line"/>
      <point x="193" y="551" type="line"/>
      <point x="121" y="551" type="line" smooth="yes"/>
      <point x="44" y="550"/>
      <point x="4" y="520"/>
      <point x="4" y="463" type="curve" smooth="yes"/>
      <point x="4" y="410"/>
      <point x="40" y="374"/>
      <point x="105" y="374" type="curve" smooth="yes"/>
      <point x="154" y="374"/>
      <point x="184" y="396"/>
    </contour>
  </outline>
</glyph>
<glyph name="logicalnot" format="1">
  <advance width="506"/>
  <unicode hex="00AC"/>
  <outline>
    <contour>
      <point x="471" y="253" type="line"/>
      <point x="471" y="384" type="line"/>
      <point x="24" y="384" type="line"/>
      <point x="24" y="253" type="line"/>
    </contour>
    <contour>
      <point x="471" y="103" type="line"/>
      <point x="471" y="384" type="line"/>
      <point x="316" y="384" type="line"/>
      <point x="316" y="103" type="line"/>
    </contour>
  </outline>
</glyph>
<glyph name="registered" format="1">
  <advance width="613"/>
  <unicode hex="00AE"/>
  <outline>
    <contour>
      <point x="593" y="291" type="curve" smooth="yes"/>
      <point x="593" y="445"/>
      <point x="468" y="573"/>
      <point x="307" y="573" type="curve" smooth="yes"/>
      <point x="146" y="573"/>
      <point x="20" y="443"/>
      <point x="20" y="289" type="curve" smooth="yes"/>
      <point x="20" y="135"/>
      <point x="145" y="7"/>
      <point x="305" y="7" type="curve" smooth="yes"/>
      <point x="467" y="7"/>
      <point x="593" y="137"/>
    </contour>
    <contour>
      <point x="436" y="181" type="line"/>
      <point x="381" y="273" type="line"/>
      <point x="290" y="273" type="line"/>
      <point x="328" y="181" type="line"/>
    </contour>
    <contour>
      <point x="116" y="289" type="curve" smooth="yes"/>
      <point x="116" y="393"/>
      <point x="199" y="480"/>
      <point x="307" y="480" type="curve" smooth="yes"/>
      <point x="414" y="480"/>
      <point x="497" y="394"/>
      <point x="497" y="291" type="curve" smooth="yes"/>
      <point x="497" y="187"/>
      <point x="414" y="100"/>
      <point x="305" y="100" type="curve" smooth="yes"/>
      <point x="199" y="100"/>
      <point x="116" y="186"/>
    </contour>
    <contour>
      <point x="293" y="181" type="line"/>
      <point x="293" y="240" type="line"/>
      <point x="318" y="240" type="line" smooth="yes"/>
      <point x="385" y="240"/>
      <point x="424" y="274"/>
      <point x="424" y="335" type="curve" smooth="yes"/>
      <point x="424" y="390"/>
      <point x="385" y="422"/>
      <point x="318" y="422" type="curve" smooth="yes"/>
      <point x="197" y="422" type="line"/>
      <point x="197" y="181" type="line"/>
    </contour>
    <contour>
      <point x="293" y="353" type="line"/>
      <point x="318" y="353" type="line" smooth="yes"/>
      <point x="328" y="353"/>
      <point x="334" y="344"/>
      <point x="334" y="331" type="curve" smooth="yes"/>
      <point x="334" y="317"/>
      <point x="328" y="310"/>
      <point x="318" y="310" type="curve" smooth="yes"/>
      <point x="293" y="310" type="line"/>
    </contour>
  </outline>
</glyph>
<glyph name="degree" format="1">
  <advance width="352"/>
  <unicode hex="00B0"/>
  <outline>
    <contour>
      <point x="281" y="586" type="curve" smooth="yes"/>
      <point x="281" y="643"/>
      <point x="235" y="688"/>
      <point x="178" y="688" type="curve" smooth="yes"/>
      <point x="120" y="688"/>
      <point x="74" y="643"/>
      <point x="74" y="586" type="curve" smooth="yes"/>
      <point x="74" y="529"/>
      <point x="120" y="484"/>
      <point x="178" y="484" type="curve" smooth="yes"/>
      <point x="235" y="484"/>
      <point x="281" y="529"/>
    </contour>
    <contour>
      <point x="153" y="586" type="curve" smooth="yes"/>
      <point x="153" y="600"/>
      <point x="164" y="611"/>
      <point x="178" y="611" type="curve" smooth="yes"/>
      <point x="191" y="611"/>
      <point x="202" y="600"/>
      <point x="202" y="586" type="curve" smooth="yes"/>
      <point x="202" y="572"/>
      <point x="191" y="561"/>
      <point x="178" y="561" type="curve" smooth="yes"/>
      <point x="164" y="561"/>
      <point x="153" y="572"/>
    </contour>
  </outline>
</glyph>
<glyph name="paragraph" format="1">
  <advance width="601"/>
  <unicode hex="00B6"/>
  <outline>
    <contour>
      <point x="357" y="-86" type="line"/>
      <point x="357" y="501" type="line"/>
      <point x="402" y="501" type="line"/>
      <point x="402" y="-86" type="line"/>
      <point x="563" y="-86" type="line"/>
      <point x="563" y="617" type="line"/>
      <point x="217" y="617" type="line"/>
      <point x="51" y="617"/>
      <point x="-11" y="519"/>
      <point x="-11" y="419" type="curve" smooth="yes"/>
      <point x="-11" y="344"/>
      <point x="28" y="228"/>
      <point x="179" y="228" type="curve" smooth="yes"/>
      <point x="185" y="228"/>
      <point x="191" y="228"/>
      <point x="196" y="228" type="curve"/>
      <point x="196" y="-86" type="line"/>
    </contour>
  </outline>
</glyph>
<glyph name="periodcentered" format="1">
  <advance width="215"/>
  <unicode hex="00B7"/>
  <outline>
    <contour>
      <point x="216" y="249" type="curve" smooth="yes"/>
      <point x="216" y="304"/>
      <point x="176" y="343"/>
      <point x="118" y="343" type="curve" smooth="yes"/>
      <point x="61" y="343"/>
      <point x="21" y="304"/>
      <point x="21" y="249" type="curve" smooth="yes"/>
      <point x="21" y="192"/>
      <point x="61" y="154"/>
      <point x="118" y="154" type="curve" smooth="yes"/>
      <point x="176" y="154"/>
      <point x="216" y="192"/>
    </contour>
    <contour>
      <point x="118" y="249" type="move" name="_dot"/>
    </contour>
  </outline>
</glyph>
<glyph name="ordmasculine" format="1">
  <advance width="358"/>
  <unicode hex="00BA"/>
  <outline>
    <contour>
      <point x="352" y="519" type="curve" smooth="yes"/>
      <point x="352" y="608"/>
      <point x="285" y="663"/>
      <point x="178" y="663" type="curve" smooth="yes"/>
      <point x="72" y="663"/>
      <point x="6" y="608"/>
      <point x="6" y="519" type="curve" smooth="yes"/>
      <point x="6" y="432"/>
      <point x="72" y="376"/>
      <point x="178" y="376" type="curve" smooth="yes"/>
      <point x="285" y="376"/>
      <point x="352" y="432"/>
    </contour>
    <contour>
      <point x="154" y="518" type="curve" smooth="yes"/>
      <point x="154" y="541"/>
      <point x="163" y="556"/>
      <point x="178" y="556" type="curve" smooth="yes"/>
      <point x="194" y="556"/>
      <point x="203" y="541"/>
      <point x="203" y="518" type="curve" smooth="yes"/>
      <point x="203" y="495"/>
      <point x="194" y="480"/>
      <point x="178" y="480" type="curve" smooth="yes"/>
      <point x="163" y="480"/>
      <point x="154" y="495"/>
    </contour>
  </outline>
</glyph>
<glyph name="AE" format="1">
  <advance width="960"/>
  <unicode hex="00C6"/>
  <outline>
    <contour>
      <point x="214" y="0" type="line"/>
      <point x="454" y="503" type="line"/>
      <point x="316" y="414" type="line"/>
      <point x="509" y="414" type="line"/>
      <point x="509" y="582" type="line"/>
      <point x="281" y="582" type="line"/>
      <point x="-20" y="0" type="line"/>
    </contour>
    <contour>
      <point x="509" y="75" type="line"/>
      <point x="509" y="235" type="line"/>
      <point x="195" y="235" type="line"/>
      <point x="196" y="75" type="line"/>
    </contour>
    <contour>
      <point x="939" y="0" type="line"/>
      <point x="939" y="168" type="line"/>
      <point x="656" y="168" type="line"/>
      <point x="656" y="215" type="line"/>
      <point x="894" y="215" type="line"/>
      <point x="894" y="375" type="line"/>
      <point x="656" y="375" type="line"/>
      <point x="656" y="414" type="line"/>
      <point x="928" y="414" type="line"/>
      <point x="928" y="582" type="line"/>
      <point x="430" y="582" type="line"/>
      <point x="430" y="0" type="line"/>
    </contour>
    <contour>
      <point x="543" y="582" type="move" name="top"/>
    </contour>
    <contour>
      <point x="543" y="0" type="move" name="bottom"/>
    </contour>
  </outline>
</glyph>
<glyph name="multiply" format="1">
  <advance width="446"/>
  <unicode hex="00D7"/>
  <outline>
    <contour>
      <point x="34" y="366" type="line"/>
      <point x="130" y="459" type="line"/>
      <point x="411" y="183" type="line"/>
      <point x="315" y="90" type="line"/>
    </contour>
    <contour>
      <point x="411" y="366" type="line"/>
      <point x="315" y="459" type="line"/>
      <point x="34" y="183" type="line"/>
      <point x="130" y="90" type="line"/>
    </contour>
  </outline>
</glyph>
<glyph name="Oslash" format="1">
  <advance width="719"/>
  <unicode hex="00D8"/>
  <outline>
    <component base="slashlongcomb.case" xOffset="22.411"/>
    <component base="O"/>
    <contour>
      <point x="360" y="582" type="move" name="top"/>
    </contour>
    <contour>
      <point x="360" y="0" type="move" name="bottom"/>
    </contour>
  </outline>
</glyph>
<glyph name="Thorn" format="1">
  <advance width="633"/>
  <unicode hex="00DE"/>
  <outline>
    <contour>
      <point x="337" y="83" type="line"/>
      <point x="505" y="83"/>
      <point x="613" y="170"/>
      <point x="613" y="307" type="curve" smooth="yes"/>
      <point x="613" y="443"/>
      <point x="505" y="530"/>
      <point x="337" y="530" type="curve" smooth="yes"/>
      <point x="221" y="530" type="line"/>
      <point x="221" y="359" type="line"/>
      <point x="322" y="359" type="line" smooth="yes"/>
      <point x="363" y="359"/>
      <point x="381" y="339"/>
      <point x="381" y="307" type="curve" smooth="yes"/>
      <point x="381" y="275"/>
      <point x="363" y="254"/>
      <point x="322" y="254" type="curve" smooth="yes"/>
      <point x="221" y="254" type="line"/>
      <point x="221" y="83" type="line"/>
    </contour>
    <contour>
      <point x="268" y="0" type="line"/>
      <point x="268" y="583" type="line"/>
      <point x="38" y="583" type="line"/>
      <point x="38" y="0" type="line"/>
    </contour>
  </outline>
</glyph>
<glyph name="germandbls" format="1">
  <advance width="607"/>
  <unicode hex="00DF"/>
  <outline>
    <contour>
      <point x="594" y="179" type="curve" smooth="yes"/>
      <point x="594" y="292"/>
      <point x="506" y="354"/>
      <point x="355" y="354" type="curve"/>
      <point x="309" y="264" type="line"/>
      <point x="424" y="264"/>
      <point x="540" y="330"/>
      <point x="540" y="439" type="curve" smooth="yes"/>
      <point x="540" y="542"/>
      <point x="453" y="626"/>
      <point x="295" y="626" type="curve" smooth="yes"/>
      <point x="155" y="626"/>
      <point x="33" y="544"/>
      <point x="33" y="388" type="curve" smooth="yes"/>
      <point x="33" y="0" type="line"/>
      <point x="253" y="0" type="line"/>
      <point x="253" y="417" type="line" smooth="yes"/>
      <point x="253" y="445"/>
      <point x="270" y="462"/>
      <point x="296" y="462" type="curve" smooth="yes"/>
      <point x="318" y="462"/>
      <point x="334" y="444"/>
      <point x="334" y="418" type="curve" smooth="yes"/>
      <point x="334" y="392"/>
      <point x="315" y="375"/>
      <point x="288" y="373" type="curve"/>
      <point x="288" y="213" type="line"/>
      <point x="331" y="213" type="line" smooth="yes"/>
      <point x="363" y="213"/>
      <point x="377" y="204"/>
      <point x="377" y="185" type="curve" smooth="yes"/>
      <point x="377" y="166"/>
      <point x="361" y="156"/>
      <point x="339" y="156" type="curve" smooth="yes"/>
      <point x="320" y="156"/>
      <point x="304" y="160"/>
      <point x="288" y="166" type="curve"/>
      <point x="267" y="4" type="line"/>
      <point x="289" y="-4"/>
      <point x="336" y="-9"/>
      <point x="372" y="-9" type="curve" smooth="yes"/>
      <point x="507" y="-9"/>
      <point x="594" y="60"/>
    </contour>
  </outline>
</glyph>
<glyph name="ae" format="1">
  <advance width="839"/>
  <unicode hex="00E6"/>
  <outline>
    <contour>
      <point x="433" y="125" type="curve"/>
      <point x="333" y="125" type="line"/>
      <point x="384" y="26"/>
      <point x="482" y="-9"/>
      <point x="582" y="-9" type="curve" smooth="yes"/>
      <point x="676" y="-9"/>
      <point x="743" y="16"/>
      <point x="789" y="64" type="curve"/>
      <point x="677" y="176" type="line"/>
      <point x="647" y="157"/>
      <point x="627" y="148"/>
      <point x="589" y="148" type="curve" smooth="yes"/>
      <point x="536" y="148"/>
      <point x="508" y="173"/>
      <point x="508" y="223" type="curve" smooth="yes"/>
      <point x="508" y="255" type="line" smooth="yes"/>
      <point x="508" y="298"/>
      <point x="530" y="323"/>
      <point x="565" y="323" type="curve" smooth="yes"/>
      <point x="601" y="323"/>
      <point x="623" y="298"/>
      <point x="623" y="255" type="curve"/>
      <point x="663" y="278" type="line"/>
      <point x="494" y="278" type="line"/>
      <point x="494" y="177" type="line"/>
      <point x="821" y="177" type="line"/>
      <point x="823" y="192"/>
      <point x="825" y="212"/>
      <point x="825" y="229" type="curve" smooth="yes"/>
      <point x="825" y="387"/>
      <point x="702" y="467"/>
      <point x="568" y="467" type="curve" smooth="yes"/>
      <point x="487" y="467"/>
      <point x="412" y="437"/>
      <point x="363" y="386" type="curve"/>
      <point x="450" y="387" type="line"/>
      <point x="405" y="443"/>
      <point x="330" y="467"/>
      <point x="239" y="467" type="curve" smooth="yes"/>
      <point x="169" y="467"/>
      <point x="86" y="450"/>
      <point x="29" y="418" type="curve"/>
      <point x="98" y="277" type="line"/>
      <point x="128" y="298"/>
      <point x="173" y="309"/>
      <point x="205" y="309" type="curve" smooth="yes"/>
      <point x="265" y="309"/>
      <point x="288" y="289"/>
      <point x="288" y="251" type="curve" smooth="yes"/>
      <point x="288" y="166" type="line" smooth="yes"/>
      <point x="288" y="137"/>
      <point x="274" y="118"/>
      <point x="247" y="118" type="curve" smooth="yes"/>
      <point x="225" y="118"/>
      <point x="215" y="130"/>
      <point x="215" y="146" type="curve" smooth="yes"/>
      <point x="215" y="167"/>
      <point x="229" y="177"/>
      <point x="260" y="177" type="curve" smooth="yes"/>
      <point x="303" y="177" type="line"/>
      <point x="303" y="278" type="line"/>
      <point x="224" y="278" type="line" smooth="yes"/>
      <point x="78" y="278"/>
      <point x="8" y="231"/>
      <point x="8" y="137" type="curve" smooth="yes"/>
      <point x="8" y="56"/>
      <point x="87" y="-9"/>
      <point x="217" y="-9" type="curve" smooth="yes"/>
      <point x="312" y="-9"/>
      <point x="387" y="13"/>
    </contour>
    <contour>
      <point x="398" y="458" type="move" name="top"/>
    </contour>
  </outline>
</glyph>
<glyph name="eth" format="1">
  <advance width="542"/>
  <unicode hex="00F0"/>
  <outline>
    <contour>
      <point x="521" y="261" type="curve" smooth="yes"/>
      <point x="521" y="427"/>
      <point x="399" y="570"/>
      <point x="208" y="626" type="curve"/>
      <point x="61" y="543" type="line"/>
      <point x="199" y="499"/>
      <point x="312" y="428"/>
      <point x="307" y="351" type="curve"/>
      <point x="280" y="365"/>
      <point x="235" y="374"/>
      <point x="192" y="374" type="curve" smooth="yes"/>
      <point x="76" y="374"/>
      <point x="0" y="301"/>
      <point x="0" y="189" type="curve" smooth="yes"/>
      <point x="0" y="68"/>
      <point x="95" y="-10"/>
      <point x="241" y="-10" type="curve" smooth="yes"/>
      <point x="411" y="-10"/>
      <point x="521" y="97"/>
    </contour>
    <contour>
      <point x="210" y="200" type="curve" smooth="yes"/>
      <point x="210" y="221"/>
      <point x="224" y="235"/>
      <point x="247" y="235" type="curve" smooth="yes"/>
      <point x="271" y="235"/>
      <point x="286" y="221"/>
      <point x="286" y="200" type="curve" smooth="yes"/>
      <point x="286" y="178"/>
      <point x="271" y="164"/>
      <point x="248" y="164" type="curve" smooth="yes"/>
      <point x="225" y="164"/>
      <point x="210" y="178"/>
    </contour>
    <contour>
      <point x="483" y="561" type="line"/>
      <point x="448" y="633" type="line"/>
      <point x="55" y="458" type="line"/>
      <point x="90" y="387" type="line"/>
    </contour>
  </outline>
</glyph>
<glyph name="divide" format="1">
  <advance width="446"/>
  <unicode hex="00F7"/>
  <outline>
    <contour>
      <point x="422" y="209" type="line"/>
      <point x="422" y="340" type="line"/>
      <point x="24" y="340" type="line"/>
      <point x="24" y="209" type="line"/>
    </contour>
    <component base="dotaccentcomb" xOffset="121.975" yOffset="-30.436" xScale="0.767" yScale="0.77"/>
    <component base="dotaccentcomb" xOffset="121.975" yOffset="-330.830" xScale="0.767" yScale="0.77"/>
  </outline>
</glyph>
<glyph name="oslash" format="1">
  <advance width="571"/>
  <unicode hex="00F8"/>
  <outline>
    <component base="slashlongcomb" xOffset="2.678"/>
    <component base="o"/>
    <contour>
      <point x="286" y="458" type="move" name="top"/>
    </contour>
  </outline>
</glyph>
<glyph name="eogonek" format="1">
  <advance width="562"/>
  <unicode hex="0119"/>
  <outline>
    <contour>
      <point x="504" y="-184" type="curve"/>
      <point x="479" y="-97" type="line"/>
      <point x="467" y="-102"/>
      <point x="448" y="-108"/>
      <point x="432" y="-108" type="curve" smooth="yes"/>
      <point x="403" y="-108"/>
      <point x="388" y="-90"/>
      <point x="388" y="-72" type="curve" smooth="yes"/>
      <point x="388" y="-39"/>
      <point x="406" y="-15"/>
      <point x="476" y="33" type="curve" smooth="yes"/>
      <point x="489" y="42"/>
      <point x="501" y="52"/>
      <point x="513" y="64" type="curve"/>
      <point x="400" y="176" type="line"/>
      <point x="370" y="157"/>
      <point x="351" y="148"/>
      <point x="311" y="148" type="curve" smooth="yes"/>
      <point x="256" y="148"/>
      <point x="227" y="173"/>
      <point x="227" y="223" type="curve" smooth="yes"/>
      <point x="227" y="255" type="line" smooth="yes"/>
      <point x="227" y="298"/>
      <point x="249" y="323"/>
      <point x="287" y="323" type="curve" smooth="yes"/>
      <point x="325" y="323"/>
      <point x="346" y="298"/>
      <point x="346" y="255" type="curve"/>
      <point x="432" y="281" type="line"/>
      <point x="197" y="281" type="line"/>
      <point x="197" y="179" type="line"/>
      <point x="545" y="179" type="line"/>
      <point x="547" y="194"/>
      <point x="549" y="214"/>
      <point x="549" y="229" type="curve" smooth="yes"/>
      <point x="549" y="387"/>
      <point x="426" y="467"/>
      <point x="285" y="467" type="curve" smooth="yes"/>
      <point x="130" y="467"/>
      <point x="13" y="369"/>
      <point x="13" y="230" type="curve" smooth="yes"/>
      <point x="13" y="93"/>
      <point x="125" y="-9"/>
      <point x="304" y="-9" type="curve" smooth="yes"/>
      <point x="322" y="-9"/>
      <point x="362" y="-8"/>
      <point x="381" y="-3" type="curve"/>
      <point x="357" y="20" type="line"/>
      <point x="302" y="7"/>
      <point x="260" y="-41"/>
      <point x="260" y="-93" type="curve" smooth="yes"/>
      <point x="260" y="-161"/>
      <point x="312" y="-203"/>
      <point x="403" y="-203" type="curve" smooth="yes"/>
      <point x="442" y="-203"/>
      <point x="484" y="-194"/>
    </contour>
    <contour>
      <point x="285" y="458" type="move" name="top"/>
    </contour>
    <contour>
      <point x="285" y="0" type="move" name="bottom"/>
    </contour>
  </outline>
</glyph>
<glyph name="IJ" format="1">
  <advance width="619"/>
  <unicode hex="0132"/>
  <outline>
    <contour>
      <point x="586" y="280" type="curve" smooth="yes"/>
      <point x="586" y="582" type="line"/>
      <point x="356" y="582" type="line"/>
      <point x="356" y="267" type="line" smooth="yes"/>
      <point x="356" y="198"/>
      <point x="332" y="168"/>
      <point x="267" y="168" type="curve" smooth="yes"/>
      <point x="219" y="168"/>
      <point x="155" y="186"/>
      <point x="97" y="221" type="curve"/>
      <point x="14" y="64" type="line"/>
      <point x="78" y="19"/>
      <point x="170" y="-9"/>
      <point x="278" y="-9" type="curve" smooth="yes"/>
      <point x="463" y="-9"/>
      <point x="586" y="94"/>
    </contour>
    <contour>
      <point x="262" y="285" type="line"/>
      <point x="262" y="582" type="line"/>
      <point x="32" y="582" type="line"/>
      <point x="32" y="285" type="line"/>
    </contour>
    <contour>
      <point x="143" y="582" type="move" name="top"/>
    </contour>
  </outline>
</glyph>
<glyph name="kgreenlandic" format="1">
  <advance width="602"/>
  <unicode hex="0138"/>
  <outline>
    <contour>
      <point x="292" y="148" type="line"/>
      <point x="401" y="234" type="line"/>
      <point x="616" y="458" type="line"/>
      <point x="357" y="458" type="line"/>
      <point x="223" y="318" type="line"/>
      <point x="218" y="67" type="line"/>
    </contour>
    <contour>
      <point x="253" y="0" type="line"/>
      <point x="253" y="458" type="line"/>
      <point x="33" y="458" type="line"/>
      <point x="33" y="0" type="line"/>
    </contour>
    <contour>
      <point x="631" y="0" type="line"/>
      <point x="386" y="306" type="line"/>
      <point x="251" y="144" type="line"/>
      <point x="365" y="0" type="line"/>
    </contour>
    <contour>
      <point x="281" y="458" type="move" name="top"/>
    </contour>
    <contour>
      <point x="281" y="0" type="move" name="bottom"/>
    </contour>
  </outline>
</glyph>
<glyph name="Eng" format="1">
  <advance width="678"/>
  <unicode hex="014A"/>
  <outline>
    <contour>
      <point x="262" y="0" type="line"/>
      <point x="262" y="323" type="line"/>
      <point x="174" y="323" type="line"/>
      <point x="452" y="0" type="line"/>
      <point x="504" y="259" type="line"/>
      <point x="227" y="582" type="line"/>
      <point x="38" y="582" type="line"/>
      <point x="38" y="0" type="line"/>
    </contour>
    <contour>
      <point x="641" y="78" type="curve" smooth="yes"/>
      <point x="641" y="582" type="line"/>
      <point x="417" y="582" type="line"/>
      <point x="417" y="68" type="line" smooth="yes"/>
      <point x="417" y="29"/>
      <point x="397" y="10"/>
      <point x="363" y="10" type="curve" smooth="yes"/>
      <point x="349" y="10"/>
      <point x="335" y="12"/>
      <point x="318" y="20" type="curve"/>
      <point x="213" y="-134" type="line"/>
      <point x="261" y="-161"/>
      <point x="318" y="-170"/>
      <point x="383" y="-170" type="curve" smooth="yes"/>
      <point x="552" y="-170"/>
      <point x="641" y="-89"/>
    </contour>
  </outline>
</glyph>
<glyph name="eng" format="1">
  <advance width="599"/>
  <unicode hex="014B"/>
  <outline>
    <contour>
      <point x="567" y="35" type="curve" smooth="yes"/>
      <point x="567" y="260" type="line" smooth="yes"/>
      <point x="567" y="407"/>
      <point x="481" y="467"/>
      <point x="375" y="467" type="curve" smooth="yes"/>
      <point x="278" y="467"/>
      <point x="193" y="410"/>
      <point x="174" y="284" type="curve"/>
      <point x="253" y="211" type="line"/>
      <point x="253" y="272"/>
      <point x="280" y="288"/>
      <point x="307" y="288" type="curve" smooth="yes"/>
      <point x="331" y="288"/>
      <point x="346" y="272"/>
      <point x="346" y="223" type="curve" smooth="yes"/>
      <point x="346" y="37" type="line" smooth="yes"/>
      <point x="346" y="4"/>
      <point x="332" y="-10"/>
      <point x="315" y="-10" type="curve" smooth="yes"/>
      <point x="302" y="-10"/>
      <point x="288" y="-6"/>
      <point x="277" y="-1" type="curve"/>
      <point x="225" y="-149" type="line"/>
      <point x="257" y="-163"/>
      <point x="301" y="-170"/>
      <point x="348" y="-170" type="curve" smooth="yes"/>
      <point x="486" y="-170"/>
      <point x="567" y="-90"/>
    </contour>
    <contour>
      <point x="253" y="0" type="line"/>
      <point x="253" y="327" type="line"/>
      <point x="242" y="368" type="line"/>
      <point x="242" y="458" type="line"/>
      <point x="33" y="458" type="line"/>
      <point x="33" y="0" type="line"/>
    </contour>
  </outline>
</glyph>
<glyph name="OE" format="1">
  <advance width="974"/>
  <unicode hex="0152"/>
  <outline>
    <contour>
      <point x="503" y="0" type="line"/>
      <point x="503" y="173" type="line"/>
      <point x="368" y="173" type="line" smooth="yes"/>
      <point x="300" y="173"/>
      <point x="252" y="212"/>
      <point x="252" y="291" type="curve" smooth="yes"/>
      <point x="252" y="370"/>
      <point x="300" y="408"/>
      <point x="368" y="408" type="curve" smooth="yes"/>
      <point x="503" y="408" type="line"/>
      <point x="503" y="582" type="line"/>
      <point x="358" y="582" type="line" smooth="yes"/>
      <point x="158" y="582"/>
      <point x="20" y="473"/>
      <point x="20" y="291" type="curve" smooth="yes"/>
      <point x="20" y="109"/>
      <point x="158" y="0"/>
      <point x="358" y="0" type="curve" smooth="yes"/>
    </contour>
    <contour>
      <point x="953" y="0" type="line"/>
      <point x="953" y="168" type="line"/>
      <point x="671" y="168" type="line"/>
      <point x="671" y="215" type="line"/>
      <point x="909" y="215" type="line"/>
      <point x="909" y="375" type="line"/>
      <point x="671" y="375" type="line"/>
      <point x="671" y="414" type="line"/>
      <point x="943" y="414" type="line"/>
      <point x="943" y="582" type="line"/>
      <point x="445" y="582" type="line"/>
      <point x="445" y="0" type="line"/>
    </contour>
    <contour>
      <point x="558" y="582" type="move" name="top"/>
    </contour>
    <contour>
      <point x="558" y="0" type="move" name="bottom"/>
    </contour>
  </outline>
</glyph>
<glyph name="oe" format="1">
  <advance width="889"/>
  <unicode hex="0153"/>
  <outline>
    <contour>
      <point x="533" y="230" type="curve" smooth="yes"/>
      <point x="533" y="369"/>
      <point x="439" y="467"/>
      <point x="282" y="467" type="curve" smooth="yes"/>
      <point x="126" y="467"/>
      <point x="13" y="369"/>
      <point x="13" y="230" type="curve" smooth="yes"/>
      <point x="13" y="90"/>
      <point x="126" y="-9"/>
      <point x="282" y="-9" type="curve" smooth="yes"/>
      <point x="439" y="-9"/>
      <point x="533" y="90"/>
    </contour>
    <contour>
      <point x="230" y="230" type="curve" smooth="yes"/>
      <point x="230" y="280"/>
      <point x="255" y="302"/>
      <point x="286" y="302" type="curve" smooth="yes"/>
      <point x="316" y="302"/>
      <point x="341" y="280"/>
      <point x="341" y="230" type="curve" smooth="yes"/>
      <point x="341" y="179"/>
      <point x="316" y="156"/>
      <point x="286" y="156" type="curve" smooth="yes"/>
      <point x="255" y="156"/>
      <point x="230" y="179"/>
    </contour>
    <contour>
      <point x="840" y="64" type="curve"/>
      <point x="727" y="176" type="line"/>
      <point x="697" y="157"/>
      <point x="678" y="148"/>
      <point x="640" y="148" type="curve" smooth="yes"/>
      <point x="587" y="148"/>
      <point x="558" y="173"/>
      <point x="558" y="223" type="curve" smooth="yes"/>
      <point x="558" y="255" type="line" smooth="yes"/>
      <point x="558" y="298"/>
      <point x="580" y="323"/>
      <point x="616" y="323" type="curve" smooth="yes"/>
      <point x="651" y="323"/>
      <point x="673" y="298"/>
      <point x="673" y="255" type="curve"/>
      <point x="714" y="278" type="line"/>
      <point x="544" y="278" type="line"/>
      <point x="544" y="177" type="line"/>
      <point x="872" y="177" type="line"/>
      <point x="874" y="192"/>
      <point x="876" y="212"/>
      <point x="876" y="229" type="curve" smooth="yes"/>
      <point x="876" y="387"/>
      <point x="753" y="467"/>
      <point x="619" y="467" type="curve" smooth="yes"/>
      <point x="464" y="467"/>
      <point x="361" y="369"/>
      <point x="361" y="230" type="curve" smooth="yes"/>
      <point x="361" y="93"/>
      <point x="464" y="-9"/>
      <point x="633" y="-9" type="curve" smooth="yes"/>
      <point x="726" y="-9"/>
      <point x="793" y="16"/>
    </contour>
    <contour>
      <point x="450" y="458" type="move" name="top"/>
    </contour>
    <contour>
      <point x="450" y="0" type="move" name="bottom"/>
    </contour>
  </outline>
</glyph>
<glyph name="florin" format="1">
  <advance width="394"/>
  <unicode hex="0192"/>
  <outline>
    <contour>
      <point x="252" y="-12" type="curve" smooth="yes"/>
      <point x="307" y="434" type="line" smooth="yes"/>
      <point x="309" y="451"/>
      <point x="324" y="462"/>
      <point x="347" y="461" type="curve" smooth="yes"/>
      <point x="359" y="461"/>
      <point x="374" y="456"/>
      <point x="387" y="447" type="curve"/>
      <point x="458" y="592" type="line"/>
      <point x="422" y="613"/>
      <point x="363" y="625"/>
      <point x="309" y="625" type="curve" smooth="yes"/>
      <point x="190" y="626"/>
      <point x="106" y="563"/>
      <point x="94" y="466" type="curve" smooth="yes"/>
      <point x="38" y="20" type="line" smooth="yes"/>
      <point x="35" y="3"/>
      <point x="21" y="-8"/>
      <point x="5" y="-7" type="curve" smooth="yes"/>
      <point x="-8" y="-7"/>
      <point x="-24" y="-2"/>
      <point x="-36" y="7" type="curve"/>
      <point x="-87" y="-138" type="line"/>
      <point x="-60" y="-158"/>
      <point x="-11" y="-171"/>
      <point x="33" y="-171" type="curve" smooth="yes"/>
      <point x="152" y="-172"/>
      <point x="240" y="-109"/>
    </contour>
    <contour>
      <point x="366" y="256" type="line"/>
      <point x="382" y="389" type="line"/>
      <point x="18" y="389" type="line"/>
      <point x="2" y="256" type="line"/>
    </contour>
  </outline>
</glyph>
<glyph name="Ohorn" format="1">
  <advance width="719"/>
  <unicode hex="01A0"/>
  <outline>
    <contour>
      <point x="699" y="291" type="curve" smooth="yes"/>
      <point x="699" y="385"/>
      <point x="660" y="461"/>
      <point x="598" y="513" type="curve"/>
      <point x="343" y="471" type="line"/>
      <point x="393" y="465"/>
      <point x="443" y="456"/>
      <point x="504" y="456" type="curve" smooth="yes"/>
      <point x="632" y="456"/>
      <point x="712" y="517"/>
      <point x="712" y="623" type="curve" smooth="yes"/>
      <point x="712" y="662"/>
      <point x="700" y="694"/>
      <point x="679" y="719" type="curve"/>
      <point x="536" y="677" type="line"/>
      <point x="546" y="666"/>
      <point x="552" y="649"/>
      <point x="552" y="631" type="curve" smooth="yes"/>
      <point x="552" y="603"/>
      <point x="531" y="586"/>
      <point x="502" y="586" type="curve" smooth="yes"/>
      <point x="471" y="586"/>
      <point x="427" y="597"/>
      <point x="369" y="597" type="curve" smooth="yes"/>
      <point x="163" y="597"/>
      <point x="20" y="468"/>
      <point x="20" y="291" type="curve" smooth="yes"/>
      <point x="20" y="113"/>
      <point x="163" y="-15"/>
      <point x="360" y="-15" type="curve" smooth="yes"/>
      <point x="556" y="-15"/>
      <point x="699" y="113"/>
    </contour>
    <contour>
      <point x="252" y="291" type="curve" smooth="yes"/>
      <point x="252" y="372"/>
      <point x="301" y="417"/>
      <point x="360" y="417" type="curve" smooth="yes"/>
      <point x="418" y="417"/>
      <point x="467" y="372"/>
      <point x="467" y="291" type="curve" smooth="yes"/>
      <point x="467" y="210"/>
      <point x="418" y="165"/>
      <point x="360" y="165" type="curve" smooth="yes"/>
      <point x="301" y="165"/>
      <point x="252" y="210"/>
    </contour>
    <contour>
      <point x="360" y="582" type="move" name="top"/>
    </contour>
    <contour>
      <point x="360" y="0" type="move" name="bottom"/>
    </contour>
  </outline>
</glyph>
<glyph name="ohorn" format="1">
  <advance width="571"/>
  <unicode hex="01A1"/>
  <outline>
    <contour>
      <point x="558" y="230" type="curve" smooth="yes"/>
      <point x="558" y="328"/>
      <point x="502" y="405"/>
      <point x="413" y="443" type="curve"/>
      <point x="263" y="339" type="line"/>
      <point x="292" y="333"/>
      <point x="330" y="328"/>
      <point x="369" y="328" type="curve" smooth="yes"/>
      <point x="489" y="328"/>
      <point x="572" y="391"/>
      <point x="572" y="499" type="curve" smooth="yes"/>
      <point x="572" y="539"/>
      <point x="558" y="571"/>
      <point x="537" y="596" type="curve"/>
      <point x="394" y="554" type="line"/>
      <point x="404" y="543"/>
      <point x="412" y="526"/>
      <point x="412" y="508" type="curve" smooth="yes"/>
      <point x="412" y="477"/>
      <point x="400" y="459"/>
      <point x="376" y="459" type="curve" smooth="yes"/>
      <point x="356" y="459"/>
      <point x="330" y="467"/>
      <point x="289" y="467" type="curve" smooth="yes"/>
      <point x="126" y="467"/>
      <point x="13" y="369"/>
      <point x="13" y="230" type="curve" smooth="yes"/>
      <point x="13" y="90"/>
      <point x="126" y="-9"/>
      <point x="286" y="-9" type="curve" smooth="yes"/>
      <point x="445" y="-9"/>
      <point x="558" y="90"/>
    </contour>
    <contour>
      <point x="230" y="230" type="curve" smooth="yes"/>
      <point x="230" y="280"/>
      <point x="255" y="302"/>
      <point x="286" y="302" type="curve" smooth="yes"/>
      <point x="316" y="302"/>
      <point x="341" y="280"/>
      <point x="341" y="230" type="curve" smooth="yes"/>
      <point x="341" y="179"/>
      <point x="316" y="156"/>
      <point x="286" y="156" type="curve" smooth="yes"/>
      <point x="255" y="156"/>
      <point x="230" y="179"/>
    </contour>
    <contour>
      <point x="286" y="458" type="move" name="top"/>
    </contour>
    <contour>
      <point x="286" y="0" type="move" name="bottom"/>
    </contour>
  </outline>
</glyph>
<glyph name="acutecomb" format="1">
  <advance width="508"/>
  <unicode hex="0301"/>
  <outline>
    <contour>
      <point x="300" y="504" type="line"/>
      <point x="474" y="644" type="line"/>
      <point x="267" y="644" type="line"/>
      <point x="157" y="504" type="line"/>
    </contour>
    <contour>
      <point x="254" y="644" type="move" name="top"/>
    </contour>
    <contour>
      <point x="254" y="458" type="move" name="_top"/>
    </contour>
  </outline>
</glyph>
<glyph name="tildecomb" format="1">
  <advance width="508"/>
  <unicode hex="0303"/>
  <outline>
    <contour>
      <point x="451" y="645" type="curve"/>
      <point x="348" y="645" type="line"/>
      <point x="346" y="623"/>
      <point x="332" y="609"/>
      <point x="311" y="609" type="curve" smooth="yes"/>
      <point x="282" y="609"/>
      <point x="248" y="657"/>
      <point x="183" y="657" type="curve" smooth="yes"/>
      <point x="105" y="657"/>
      <point x="59" y="596"/>
      <point x="57" y="503" type="curve"/>
      <point x="160" y="503" type="line"/>
      <point x="161" y="526"/>
      <point x="175" y="541"/>
      <point x="197" y="541" type="curve" smooth="yes"/>
      <point x="226" y="541"/>
      <point x="260" y="493"/>
      <point x="325" y="493" type="curve" smooth="yes"/>
      <point x="403" y="493"/>
      <point x="449" y="554"/>
    </contour>
    <contour>
      <point x="254" y="636" type="move" name="top"/>
    </contour>
    <contour>
      <point x="254" y="458" type="move" name="_top"/>
    </contour>
  </outline>
</glyph>
<glyph name="hookabovecomb" format="1">
  <advance width="508"/>
  <unicode hex="0309"/>
  <outline>
    <contour>
      <point x="387" y="615" type="curve" smooth="yes"/>
      <point x="387" y="680"/>
      <point x="335" y="724"/>
      <point x="259" y="724" type="curve" smooth="yes"/>
      <point x="215" y="724"/>
      <point x="174" y="713"/>
      <point x="142" y="688" type="curve"/>
      <point x="186" y="610" type="line"/>
      <point x="203" y="622"/>
      <point x="218" y="627"/>
      <point x="234" y="627" type="curve" smooth="yes"/>
      <point x="253" y="627"/>
      <point x="267" y="617"/>
      <point x="267" y="597" type="curve" smooth="yes"/>
      <point x="267" y="584"/>
      <point x="262" y="570"/>
      <point x="230" y="555" type="curve"/>
      <point x="296" y="495" type="line"/>
      <point x="354" y="521"/>
      <point x="387" y="558"/>
    </contour>
    <contour>
      <point x="254" y="702" type="move" name="top"/>
    </contour>
    <contour>
      <point x="254" y="458" type="move" name="_top"/>
    </contour>
  </outline>
</glyph>
<glyph name="dotbelowcomb" format="1">
  <advance width="508"/>
  <unicode hex="0323"/>
  <outline>
    <contour>
      <point x="339" y="-114" type="curve" smooth="yes"/>
      <point x="339" y="-65"/>
      <point x="302" y="-32"/>
      <point x="254" y="-32" type="curve" smooth="yes"/>
      <point x="205" y="-32"/>
      <point x="169" y="-65"/>
      <point x="169" y="-114" type="curve" smooth="yes"/>
      <point x="169" y="-163"/>
      <point x="205" y="-194"/>
      <point x="254" y="-194" type="curve" smooth="yes"/>
      <point x="302" y="-194"/>
      <point x="339" y="-163"/>
    </contour>
    <contour>
      <point x="254" y="0" type="move" name="_bottom"/>
    </contour>
    <contour>
      <point x="254" y="-168" type="move" name="bottom"/>
    </contour>
  </outline>
</glyph>
<glyph name="Delta" format="1">
  <advance width="692"/>
  <unicode hex="0394"/>
  <outline>
    <contour>
      <point x="220" y="0" type="line"/>
      <point x="345" y="365" type="line"/>
      <point x="463" y="0" type="line"/>
      <point x="703" y="0" type="line"/>
      <point x="467" y="583" type="line"/>
      <point x="236" y="583" type="line"/>
      <point x="-11" y="0" type="line"/>
    </contour>
    <contour>
      <point x="491" y="0" type="line"/>
      <point x="491" y="156" type="line"/>
      <point x="184" y="156" type="line"/>
      <point x="184" y="0" type="line"/>
    </contour>
  </outline>
</glyph>
<glyph name="Omega" format="1">
  <advance width="692"/>
  <unicode hex="03A9"/>
  <outline>
    <contour>
      <point x="326" y="0" type="line"/>
      <point x="326" y="194" type="line"/>
      <point x="271" y="219"/>
      <point x="239" y="265"/>
      <point x="239" y="315" type="curve" smooth="yes"/>
      <point x="239" y="375"/>
      <point x="282" y="416"/>
      <point x="346" y="416" type="curve" smooth="yes"/>
      <point x="409" y="416"/>
      <point x="453" y="375"/>
      <point x="453" y="315" type="curve" smooth="yes"/>
      <point x="453" y="266"/>
      <point x="422" y="221"/>
      <point x="367" y="194" type="curve"/>
      <point x="367" y="0" type="line"/>
      <point x="689" y="0" type="line"/>
      <point x="689" y="169" type="line"/>
      <point x="564" y="169" type="line"/>
      <point x="623" y="219"/>
      <point x="652" y="277"/>
      <point x="652" y="341" type="curve" smooth="yes"/>
      <point x="652" y="482"/>
      <point x="517" y="592"/>
      <point x="346" y="592" type="curve" smooth="yes"/>
      <point x="175" y="592"/>
      <point x="40" y="482"/>
      <point x="40" y="342" type="curve" smooth="yes"/>
      <point x="40" y="277"/>
      <point x="69" y="219"/>
      <point x="129" y="169" type="curve"/>
      <point x="3" y="169" type="line"/>
      <point x="3" y="0" type="line"/>
    </contour>
    <contour>
      <point x="17" y="583" type="move" name="topleft"/>
    </contour>
  </outline>
</glyph>
<glyph name="mu" format="1">
  <advance width="602"/>
  <unicode hex="03BC"/>
  <outline>
    <contour>
      <point x="252" y="-161" type="line"/>
      <point x="252" y="458" type="line"/>
      <point x="33" y="458" type="line"/>
      <point x="33" y="-161" type="line"/>
    </contour>
    <component base="u" xOffset="6.775"/>
  </outline>
</glyph>
<glyph name="pi" format="1">
  <advance width="622"/>
  <unicode hex="03C0"/>
  <outline>
    <contour>
      <point x="160" y="240" type="line"/>
      <point x="153" y="257"/>
      <point x="147" y="278"/>
      <point x="147" y="288" type="curve"/>
      <point x="146" y="302"/>
      <point x="155" y="312"/>
      <point x="169" y="312" type="curve"/>
      <point x="610" y="312" type="line"/>
      <point x="609" y="458" type="line"/>
      <point x="139" y="458" type="line"/>
      <point x="44" y="458"/>
      <point x="-23" y="402"/>
      <point x="-22" y="325" type="curve"/>
      <point x="-22" y="285"/>
      <point x="-8" y="232"/>
      <point x="11" y="192" type="curve"/>
    </contour>
    <contour>
      <point x="318" y="0" type="line"/>
      <point x="351" y="325" type="line"/>
      <point x="171" y="325" type="line"/>
      <point x="138" y="0" type="line"/>
    </contour>
    <contour>
      <point x="531" y="0" type="line"/>
      <point x="531" y="325" type="line"/>
      <point x="352" y="325" type="line"/>
      <point x="352" y="0" type="line"/>
    </contour>
  </outline>
</glyph>
<glyph name="figuredash" format="1">
  <advance width="522"/>
  <unicode hex="2012"/>
  <outline>
    <contour>
      <point x="522" y="192" type="line"/>
      <point x="522" y="323" type="line"/>
      <point x="0" y="323" type="line"/>
      <point x="0" y="192" type="line"/>
    </contour>
  </outline>
</glyph>
<glyph name="endash" format="1">
  <advance width="348"/>
  <unicode hex="2013"/>
  <outline>
    <contour>
      <point x="348" y="192" type="line"/>
      <point x="348" y="323" type="line"/>
      <point x="0" y="323" type="line"/>
      <point x="0" y="192" type="line"/>
    </contour>
  </outline>
</glyph>
<glyph name="emdash" format="1">
  <advance width="495"/>
  <unicode hex="2014"/>
  <outline>
    <contour>
      <point x="495" y="192" type="line"/>
      <point x="495" y="323" type="line"/>
      <point x="0" y="323" type="line"/>
      <point x="0" y="192" type="line"/>
    </contour>
  </outline>
</glyph>
<glyph name="daggerdbl" format="1">
  <advance width="532"/>
  <unicode hex="2021"/>
  <outline>
    <contour>
      <point x="372" y="-153" type="line"/>
      <point x="372" y="258" type="line"/>
      <point x="514" y="258" type="line"/>
      <point x="514" y="423" type="line"/>
      <point x="372" y="423" type="line"/>
      <point x="372" y="581" type="line"/>
      <point x="153" y="581" type="line"/>
      <point x="153" y="423" type="line"/>
      <point x="18" y="423" type="line"/>
      <point x="18" y="258" type="line"/>
      <point x="153" y="258" type="line"/>
      <point x="153" y="-153" type="line"/>
    </contour>
    <contour>
      <point x="514" y="6" type="line"/>
      <point x="514" y="172" type="line"/>
      <point x="18" y="172" type="line"/>
      <point x="18" y="6" type="line"/>
    </contour>
  </outline>
</glyph>
<glyph name="perthousand" format="1">
  <advance width="1123"/>
  <unicode hex="2030"/>
  <outline>
    <contour>
      <point x="251" y="0" type="line"/>
      <point x="656" y="583" type="line"/>
      <point x="513" y="583" type="line"/>
      <point x="108" y="0" type="line"/>
    </contour>
    <contour>
      <point x="316" y="424" type="curve" smooth="yes"/>
      <point x="316" y="521"/>
      <point x="255" y="586"/>
      <point x="164" y="586" type="curve" smooth="yes"/>
      <point x="73" y="586"/>
      <point x="10" y="521"/>
      <point x="10" y="424" type="curve" smooth="yes"/>
      <point x="10" y="326"/>
      <point x="73" y="260"/>
      <point x="164" y="260" type="curve" smooth="yes"/>
      <point x="255" y="260"/>
      <point x="316" y="326"/>
    </contour>
    <contour>
      <point x="142" y="424" type="curve" smooth="yes"/>
      <point x="142" y="454"/>
      <point x="152" y="478"/>
      <point x="164" y="478" type="curve" smooth="yes"/>
      <point x="176" y="478"/>
      <point x="187" y="454"/>
      <point x="187" y="424" type="curve" smooth="yes"/>
      <point x="187" y="391"/>
      <point x="176" y="369"/>
      <point x="164" y="369" type="curve" smooth="yes"/>
      <point x="152" y="369"/>
      <point x="142" y="391"/>
    </contour>
    <contour>
      <point x="764" y="160" type="curve" smooth="yes"/>
      <point x="764" y="257"/>
      <point x="703" y="322"/>
      <point x="612" y="322" type="curve" smooth="yes"/>
      <point x="520" y="322"/>
      <point x="458" y="257"/>
      <point x="458" y="160" type="curve" smooth="yes"/>
      <point x="458" y="62"/>
      <point x="520" y="-4"/>
      <point x="612" y="-4" type="curve" smooth="yes"/>
      <point x="703" y="-4"/>
      <point x="764" y="62"/>
    </contour>
    <contour>
      <point x="589" y="160" type="curve" smooth="yes"/>
      <point x="589" y="190"/>
      <point x="599" y="214"/>
      <point x="612" y="214" type="curve" smooth="yes"/>
      <point x="623" y="214"/>
      <point x="634" y="190"/>
      <point x="634" y="160" type="curve" smooth="yes"/>
      <point x="634" y="127"/>
      <point x="623" y="104"/>
      <point x="612" y="104" type="curve" smooth="yes"/>
      <point x="599" y="104"/>
      <point x="589" y="127"/>
    </contour>
    <contour>
      <point x="1111" y="160" type="curve" smooth="yes"/>
      <point x="1111" y="257"/>
      <point x="1049" y="322"/>
      <point x="959" y="322" type="curve" smooth="yes"/>
      <point x="867" y="322"/>
      <point x="805" y="257"/>
      <point x="805" y="160" type="curve" smooth="yes"/>
      <point x="805" y="62"/>
      <point x="867" y="-4"/>
      <point x="959" y="-4" type="curve" smooth="yes"/>
      <point x="1049" y="-4"/>
      <point x="1111" y="62"/>
    </contour>
    <contour>
      <point x="936" y="160" type="curve" smooth="yes"/>
      <point x="936" y="190"/>
      <point x="946" y="214"/>
      <point x="959" y="214" type="curve" smooth="yes"/>
      <point x="970" y="214"/>
      <point x="981" y="190"/>
      <point x="981" y="160" type="curve" smooth="yes"/>
      <point x="981" y="127"/>
      <point x="970" y="104"/>
      <point x="959" y="104" type="curve" smooth="yes"/>
      <point x="946" y="104"/>
      <point x="936" y="127"/>
    </contour>
  </outline>
</glyph>
<glyph name="minute" format="1">
  <advance width="233"/>
  <unicode hex="2032"/>
  <outline>
    <contour>
      <point x="155" y="378" type="line"/>
      <point x="198" y="583" type="line"/>
      <point x="49" y="583" type="line"/>
      <point x="35" y="378" type="line"/>
    </contour>
  </outline>
</glyph>
<glyph name="guilsinglleft" format="1">
  <advance width="243"/>
  <unicode hex="2039"/>
  <outline>
    <contour>
      <point x="256" y="63" type="line"/>
      <point x="167" y="230" type="line"/>
      <point x="256" y="395" type="line"/>
      <point x="82" y="395" type="line"/>
      <point x="-25" y="230" type="line"/>
      <point x="82" y="63" type="line"/>
    </contour>
  </outline>
</glyph>
<glyph name="fraction" format="1">
  <advance width="145"/>
  <unicode hex="2044"/>
  <outline>
    <contour>
      <point x="-57" y="0" type="line"/>
      <point x="348" y="583" type="line"/>
      <point x="204" y="583" type="line"/>
      <point x="-200" y="0" type="line"/>
    </contour>
  </outline>
</glyph>
<glyph name="franc" format="1">
  <advance width="590"/>
  <unicode hex="20A3"/>
  <outline>
    <contour>
      <point x="302" y="0" type="line"/>
      <point x="302" y="283" type="line"/>
      <point x="203" y="187" type="line"/>
      <point x="561" y="187" type="line"/>
      <point x="561" y="343" type="line"/>
      <point x="203" y="343" type="line"/>
      <point x="302" y="248" type="line"/>
      <point x="302" y="513" type="line"/>
      <point x="203" y="417" type="line"/>
      <point x="575" y="417" type="line"/>
      <point x="575" y="583" type="line"/>
      <point x="76" y="583" type="line"/>
      <point x="76" y="0" type="line"/>
    </contour>
    <contour>
      <point x="465" y="61" type="line"/>
      <point x="465" y="125" type="line"/>
      <point x="19" y="125" type="line"/>
      <point x="19" y="61" type="line"/>
    </contour>
  </outline>
</glyph>
<glyph name="lira" format="1">
  <advance width="493"/>
  <unicode hex="20A4"/>
  <outline>
    <contour>
      <point x="486" y="0" type="line"/>
      <point x="486" y="163" type="line"/>
      <point x="295" y="163" type="line"/>
      <point x="295" y="376" type="line" smooth="yes"/>
      <point x="295" y="400"/>
      <point x="305" y="411"/>
      <point x="326" y="411" type="curve" smooth="yes"/>
      <point x="351" y="411"/>
      <point x="382" y="395"/>
      <point x="418" y="366" type="curve"/>
      <point x="499" y="526" type="line"/>
      <point x="448" y="569"/>
      <point x="376" y="592"/>
      <point x="302" y="592" type="curve" smooth="yes"/>
      <point x="153" y="592"/>
      <point x="68" y="515"/>
      <point x="68" y="381" type="curve" smooth="yes"/>
      <point x="68" y="0" type="line"/>
    </contour>
    <contour>
      <point x="169" y="0" type="line"/>
      <point x="169" y="163" type="line"/>
      <point x="12" y="163" type="line"/>
      <point x="12" y="0" type="line"/>
    </contour>
    <contour>
      <point x="425" y="187" type="line"/>
      <point x="425" y="251" type="line"/>
      <point x="12" y="251" type="line"/>
      <point x="12" y="187" type="line"/>
    </contour>
    <contour>
      <point x="425" y="283" type="line"/>
      <point x="425" y="348" type="line"/>
      <point x="12" y="348" type="line"/>
      <point x="12" y="283" type="line"/>
    </contour>
  </outline>
</glyph>
<glyph name="peseta" format="1">
  <advance width="1372"/>
  <unicode hex="20A7"/>
  <outline>
    <contour>
      <point x="228" y="0" type="line"/>
      <point x="228" y="144" type="line"/>
      <point x="281" y="144" type="line" smooth="yes"/>
      <point x="429" y="144"/>
      <point x="515" y="224"/>
      <point x="515" y="365" type="curve" smooth="yes"/>
      <point x="515" y="503"/>
      <point x="429" y="583"/>
      <point x="281" y="583" type="curve" smooth="yes"/>
      <point x="31" y="583" type="line"/>
      <point x="31" y="0" type="line"/>
    </contour>
    <contour>
      <point x="228" y="446" type="line"/>
      <point x="257" y="446" type="line" smooth="yes"/>
      <point x="303" y="446"/>
      <point x="330" y="416"/>
      <point x="330" y="365" type="curve" smooth="yes"/>
      <point x="330" y="312"/>
      <point x="303" y="281"/>
      <point x="257" y="281" type="curve" smooth="yes"/>
      <point x="228" y="281" type="line"/>
    </contour>
    <contour>
      <point x="923" y="18" type="curve"/>
      <point x="887" y="163" type="line"/>
      <point x="872" y="157"/>
      <point x="862" y="154"/>
      <point x="848" y="154" type="curve"/>
      <point x="827" y="154"/>
      <point x="814" y="166"/>
      <point x="814" y="187" type="curve"/>
      <point x="814" y="562" type="line"/>
      <point x="625" y="562" type="line"/>
      <point x="625" y="150" type="line"/>
      <point x="625" y="53"/>
      <point x="691" y="-9"/>
      <point x="792" y="-10" type="curve"/>
      <point x="841" y="-10"/>
      <point x="894" y="1"/>
    </contour>
    <contour>
      <point x="915" y="304" type="line"/>
      <point x="915" y="431" type="line"/>
      <point x="562" y="431" type="line"/>
      <point x="562" y="304" type="line"/>
    </contour>
    <contour>
      <point x="1353" y="138" type="curve" smooth="yes"/>
      <point x="1353" y="291"/>
      <point x="1146" y="280"/>
      <point x="1146" y="326" type="curve" smooth="yes"/>
      <point x="1146" y="337"/>
      <point x="1155" y="343"/>
      <point x="1171" y="343" type="curve" smooth="yes"/>
      <point x="1207" y="343"/>
      <point x="1243" y="330"/>
      <point x="1303" y="302" type="curve"/>
      <point x="1363" y="421" type="line"/>
      <point x="1298" y="452"/>
      <point x="1241" y="468"/>
      <point x="1161" y="468" type="curve" smooth="yes"/>
      <point x="1048" y="468"/>
      <point x="976" y="410"/>
      <point x="976" y="321" type="curve" smooth="yes"/>
      <point x="976" y="167"/>
      <point x="1176" y="173"/>
      <point x="1177" y="131" type="curve" smooth="yes"/>
      <point x="1178" y="120"/>
      <point x="1172" y="117"/>
      <point x="1158" y="117" type="curve" smooth="yes"/>
      <point x="1116" y="117"/>
      <point x="1070" y="129"/>
      <point x="1008" y="154" type="curve"/>
      <point x="954" y="39" type="line"/>
      <point x="1014" y="8"/>
      <point x="1084" y="-10"/>
      <point x="1162" y="-10" type="curve" smooth="yes"/>
      <point x="1281" y="-10"/>
      <point x="1353" y="50"/>
    </contour>
  </outline>
</glyph>
<glyph name="dong" format="1">
  <advance width="590"/>
  <unicode hex="20AB"/>
  <outline>
    <contour>
      <point x="388" y="232" type="curve"/>
      <point x="388" y="374"/>
      <point x="320" y="466"/>
      <point x="214" y="466" type="curve" smooth="yes"/>
      <point x="87" y="466"/>
      <point x="7" y="375"/>
      <point x="7" y="233" type="curve" smooth="yes"/>
      <point x="7" y="86"/>
      <point x="90" y="-7"/>
      <point x="220" y="-7" type="curve" smooth="yes"/>
      <point x="323" y="-7"/>
      <point x="388" y="86"/>
    </contour>
    <contour>
      <point x="488" y="-113" type="line"/>
      <point x="488" y="-39" type="line"/>
      <point x="90" y="-39" type="line"/>
      <point x="90" y="-113" type="line"/>
    </contour>
    <contour>
      <point x="229" y="227" type="curve" smooth="yes"/>
      <point x="229" y="271"/>
      <point x="246" y="298"/>
      <point x="277" y="298" type="curve" smooth="yes"/>
      <point x="306" y="298"/>
      <point x="324" y="271"/>
      <point x="324" y="227" type="curve" smooth="yes"/>
      <point x="324" y="183"/>
      <point x="306" y="155"/>
      <point x="277" y="155" type="curve" smooth="yes"/>
      <point x="246" y="155"/>
      <point x="229" y="183"/>
    </contour>
    <contour>
      <point x="543" y="0" type="line"/>
      <point x="543" y="617" type="line"/>
      <point x="324" y="617" type="line"/>
      <point x="324" y="0" type="line"/>
    </contour>
    <contour>
      <point x="595" y="489" type="line"/>
      <point x="595" y="563" type="line"/>
      <point x="244" y="563" type="line"/>
      <point x="244" y="489" type="line"/>
    </contour>
  </outline>
</glyph>
<glyph name="trademark" format="1">
  <advance width="788"/>
  <unicode hex="2122"/>
  <outline>
    <contour>
      <point x="463" y="233" type="line"/>
      <point x="463" y="367" type="line"/>
      <point x="492" y="265" type="line"/>
      <point x="600" y="265" type="line"/>
      <point x="628" y="367" type="line"/>
      <point x="628" y="233" type="line"/>
      <point x="767" y="233" type="line"/>
      <point x="767" y="583" type="line"/>
      <point x="600" y="583" type="line"/>
      <point x="545" y="442" type="line" smooth="yes"/>
      <point x="491" y="583" type="line"/>
      <point x="324" y="583" type="line"/>
      <point x="324" y="233" type="line"/>
    </contour>
    <contour>
      <point x="225" y="233" type="line"/>
      <point x="225" y="463" type="line"/>
      <point x="306" y="463" type="line"/>
      <point x="306" y="583" type="line"/>
      <point x="-11" y="583" type="line"/>
      <point x="-11" y="463" type="line"/>
      <point x="69" y="463" type="line"/>
      <point x="69" y="233" type="line"/>
    </contour>
  </outline>
</glyph>
<glyph name="estimated" format="1">
  <advance width="684"/>
  <unicode hex="212E"/>
  <outline>
    <contour>
      <point x="567" y="112" type="curve" smooth="yes"/>
      <point x="525" y="112" type="line"/>
      <point x="482" y="62"/>
      <point x="416" y="30"/>
      <point x="343" y="30" type="curve" smooth="yes"/>
      <point x="275" y="30"/>
      <point x="212" y="58"/>
      <point x="169" y="104" type="curve" smooth="yes"/>
      <point x="166" y="108"/>
      <point x="162" y="113"/>
      <point x="162" y="120" type="curve" smooth="yes"/>
      <point x="162" y="256" type="line"/>
      <point x="162" y="258"/>
      <point x="164" y="259"/>
      <point x="167" y="259" type="curve" smooth="yes"/>
      <point x="626" y="259" type="line"/>
      <point x="626" y="265" type="line"/>
      <point x="626" y="404"/>
      <point x="499" y="516"/>
      <point x="343" y="516" type="curve" smooth="yes"/>
      <point x="186" y="516"/>
      <point x="59" y="404"/>
      <point x="59" y="265" type="curve" smooth="yes"/>
      <point x="59" y="127"/>
      <point x="186" y="15"/>
      <point x="343" y="15" type="curve" smooth="yes"/>
      <point x="433" y="15"/>
      <point x="516" y="54"/>
    </contour>
    <contour>
      <point x="162" y="277" type="curve" smooth="yes"/>
      <point x="162" y="411" type="line"/>
      <point x="162" y="418"/>
      <point x="166" y="424"/>
      <point x="170" y="428" type="curve" smooth="yes"/>
      <point x="214" y="473"/>
      <point x="275" y="501"/>
      <point x="343" y="501" type="curve" smooth="yes"/>
      <point x="410" y="501"/>
      <point x="471" y="474"/>
      <point x="515" y="430" type="curve" smooth="yes"/>
      <point x="519" y="426"/>
      <point x="523" y="420"/>
      <point x="523" y="414" type="curve" smooth="yes"/>
      <point x="523" y="277" type="line"/>
      <point x="523" y="274"/>
      <point x="521" y="273"/>
      <point x="519" y="273" type="curve" smooth="yes"/>
      <point x="167" y="273" type="line"/>
      <point x="164" y="273"/>
      <point x="162" y="274"/>
    </contour>
  </outline>
</glyph>
<glyph name="partialdiff" format="1">
  <advance width="547"/>
  <unicode hex="2202"/>
  <outline>
    <contour>
      <point x="531" y="296" type="curve" smooth="yes"/>
      <point x="531" y="476"/>
      <point x="416" y="592"/>
      <point x="240" y="592" type="curve" smooth="yes"/>
      <point x="159" y="592"/>
      <point x="72" y="568"/>
      <point x="16" y="530" type="curve"/>
      <point x="102" y="378" type="line"/>
      <point x="135" y="410"/>
      <point x="176" y="425"/>
      <point x="226" y="425" type="curve" smooth="yes"/>
      <point x="283" y="425"/>
      <point x="313" y="408"/>
      <point x="316" y="366" type="curve"/>
      <point x="292" y="380"/>
      <point x="260" y="393"/>
      <point x="216" y="393" type="curve" smooth="yes"/>
      <point x="94" y="393"/>
      <point x="13" y="313"/>
      <point x="13" y="199" type="curve" smooth="yes"/>
      <point x="13" y="72"/>
      <point x="109" y="-10"/>
      <point x="253" y="-10" type="curve" smooth="yes"/>
      <point x="426" y="-10"/>
      <point x="531" y="112"/>
    </contour>
    <contour>
      <point x="222" y="200" type="curve" smooth="yes"/>
      <point x="222" y="224"/>
      <point x="233" y="235"/>
      <point x="260" y="235" type="curve" smooth="yes"/>
      <point x="287" y="235"/>
      <point x="299" y="227"/>
      <point x="299" y="200" type="curve"/>
      <point x="299" y="169"/>
      <point x="285" y="164"/>
      <point x="260" y="164" type="curve" smooth="yes"/>
      <point x="233" y="164"/>
      <point x="222" y="174"/>
    </contour>
  </outline>
</glyph>
<glyph name="emptyset" format="1">
  <advance width="509"/>
  <unicode hex="2205"/>
  <outline>
    <contour>
      <point x="513" y="457" type="line"/>
      <point x="461" y="512" type="line"/>
      <point x="-4" y="90" type="line"/>
      <point x="47" y="35" type="line"/>
    </contour>
    <contour>
      <point x="483" y="275" type="curve" smooth="yes"/>
      <point x="483" y="396"/>
      <point x="382" y="494"/>
      <point x="258" y="494" type="curve" smooth="yes"/>
      <point x="134" y="494"/>
      <point x="33" y="396"/>
      <point x="33" y="275" type="curve" smooth="yes"/>
      <point x="33" y="153"/>
      <point x="134" y="54"/>
      <point x="258" y="54" type="curve" smooth="yes"/>
      <point x="382" y="54"/>
      <point x="483" y="153"/>
    </contour>
    <contour>
      <point x="172" y="275" type="curve" smooth="yes"/>
      <point x="172" y="321"/>
      <point x="210" y="359"/>
      <point x="258" y="359" type="curve" smooth="yes"/>
      <point x="305" y="359"/>
      <point x="344" y="321"/>
      <point x="344" y="275" type="curve" smooth="yes"/>
      <point x="344" y="227"/>
      <point x="305" y="189"/>
      <point x="258" y="189" type="curve" smooth="yes"/>
      <point x="210" y="189"/>
      <point x="172" y="227"/>
    </contour>
  </outline>
</glyph>
<glyph name="product" format="1">
  <advance width="629"/>
  <unicode hex="220F"/>
  <outline>
    <contour>
      <point x="257" y="-161" type="line"/>
      <point x="257" y="451" type="line"/>
      <point x="373" y="451" type="line"/>
      <point x="373" y="-161" type="line"/>
      <point x="592" y="-161" type="line"/>
      <point x="592" y="617" type="line"/>
      <point x="38" y="617" type="line"/>
      <point x="38" y="-161" type="line"/>
    </contour>
  </outline>
</glyph>
<glyph name="summation" format="1">
  <advance width="528"/>
  <unicode hex="2211"/>
  <outline>
    <contour>
      <point x="520" y="-115" type="line"/>
      <point x="520" y="67" type="line"/>
      <point x="291" y="67" type="line"/>
      <point x="440" y="248" type="line"/>
      <point x="291" y="438" type="line"/>
      <point x="512" y="438" type="line"/>
      <point x="512" y="619" type="line"/>
      <point x="29" y="619" type="line"/>
      <point x="29" y="468" type="line"/>
      <point x="202" y="247" type="line"/>
      <point x="17" y="33" type="line"/>
      <point x="17" y="-115" type="line"/>
    </contour>
  </outline>
</glyph>
<glyph name="minus" format="1">
  <advance width="446"/>
  <unicode hex="2212"/>
  <outline>
    <contour>
      <point x="422" y="209" type="line"/>
      <point x="422" y="340" type="line"/>
      <point x="24" y="340" type="line"/>
      <point x="24" y="209" type="line"/>
    </contour>
  </outline>
</glyph>
<glyph name="radical" format="1">
  <advance width="623"/>
  <unicode hex="221A"/>
  <outline>
    <contour>
      <point x="433" y="-136" type="line"/>
      <point x="651" y="615" type="line"/>
      <point x="443" y="615" type="line"/>
      <point x="317" y="74" type="line"/>
      <point x="251" y="352" type="line"/>
      <point x="-9" y="352" type="line"/>
      <point x="-9" y="186" type="line"/>
      <point x="101" y="186" type="line"/>
      <point x="199" y="-136" type="line"/>
    </contour>
  </outline>
</glyph>
<glyph name="infinity" format="1">
  <advance width="707"/>
  <unicode hex="221E"/>
  <outline>
    <contour>
      <point x="694" y="246" type="curve" smooth="yes"/>
      <point x="694" y="358"/>
      <point x="616" y="441"/>
      <point x="508" y="441" type="curve" smooth="yes"/>
      <point x="321" y="441"/>
      <point x="327" y="191"/>
      <point x="208" y="191" type="curve" smooth="yes"/>
      <point x="180" y="191"/>
      <point x="158" y="213"/>
      <point x="158" y="245" type="curve" smooth="yes"/>
      <point x="158" y="277"/>
      <point x="180" y="300"/>
      <point x="208" y="300" type="curve" smooth="yes"/>
      <point x="327" y="300"/>
      <point x="331" y="50"/>
      <point x="508" y="50" type="curve" smooth="yes"/>
      <point x="616" y="50"/>
      <point x="694" y="132"/>
    </contour>
    <contour>
      <point x="498" y="300" type="curve" smooth="yes"/>
      <point x="528" y="300"/>
      <point x="549" y="277"/>
      <point x="549" y="246" type="curve" smooth="yes"/>
      <point x="549" y="214"/>
      <point x="528" y="190"/>
      <point x="498" y="190" type="curve" smooth="yes"/>
      <point x="379" y="190"/>
      <point x="375" y="441"/>
      <point x="199" y="441" type="curve" smooth="yes"/>
      <point x="91" y="441"/>
      <point x="13" y="358"/>
      <point x="13" y="245" type="curve" smooth="yes"/>
      <point x="13" y="132"/>
      <point x="91" y="50"/>
      <point x="199" y="50" type="curve" smooth="yes"/>
      <point x="385" y="50"/>
      <point x="379" y="300"/>
    </contour>
  </outline>
</glyph>
<glyph name="integral" format="1">
  <advance width="391"/>
  <unicode hex="222B"/>
  <outline>
    <contour>
      <point x="292" y="112" type="curve"/>
      <point x="292" y="167"/>
      <point x="267" y="456"/>
      <point x="267" y="501" type="curve"/>
      <point x="267" y="554"/>
      <point x="287" y="574"/>
      <point x="339" y="574" type="curve"/>
      <point x="356" y="574"/>
      <point x="371" y="571"/>
      <point x="394" y="564" type="curve"/>
      <point x="412" y="697" type="line"/>
      <point x="374" y="713"/>
      <point x="347" y="719"/>
      <point x="312" y="719" type="curve"/>
      <point x="164" y="719"/>
      <point x="107" y="653"/>
      <point x="107" y="481" type="curve"/>
      <point x="107" y="432"/>
      <point x="135" y="152"/>
      <point x="135" y="97" type="curve"/>
      <point x="135" y="38"/>
      <point x="113" y="15"/>
      <point x="57" y="15" type="curve"/>
      <point x="39" y="15"/>
      <point x="21" y="20"/>
      <point x="-8" y="33" type="curve"/>
      <point x="-31" y="-101" type="line"/>
      <point x="0" y="-121"/>
      <point x="33" y="-128"/>
      <point x="86" y="-128" type="curve"/>
      <point x="235" y="-128"/>
      <point x="292" y="-61"/>
    </contour>
  </outline>
</glyph>
<glyph name="approxequal" format="1">
  <advance width="446"/>
  <unicode hex="2248"/>
  <outline>
    <contour>
      <point x="411" y="461" type="curve"/>
      <point x="268" y="461" type="line"/>
      <point x="268" y="439"/>
      <point x="262" y="429"/>
      <point x="249" y="429" type="curve" smooth="yes"/>
      <point x="231" y="429"/>
      <point x="211" y="462"/>
      <point x="151" y="462" type="curve" smooth="yes"/>
      <point x="71" y="462"/>
      <point x="35" y="405"/>
      <point x="35" y="280" type="curve"/>
      <point x="179" y="280" type="line"/>
      <point x="179" y="302"/>
      <point x="184" y="312"/>
      <point x="198" y="312" type="curve" smooth="yes"/>
      <point x="216" y="312"/>
      <point x="237" y="279"/>
      <point x="295" y="279" type="curve" smooth="yes"/>
      <point x="375" y="279"/>
      <point x="411" y="336"/>
    </contour>
    <contour>
      <point x="411" y="256" type="curve"/>
      <point x="268" y="256" type="line"/>
      <point x="268" y="234"/>
      <point x="262" y="225"/>
      <point x="249" y="225" type="curve" smooth="yes"/>
      <point x="231" y="225"/>
      <point x="211" y="258"/>
      <point x="151" y="258" type="curve" smooth="yes"/>
      <point x="71" y="258"/>
      <point x="35" y="201"/>
      <point x="35" y="76" type="curve"/>
      <point x="179" y="76" type="line"/>
      <point x="179" y="98"/>
      <point x="184" y="108"/>
      <point x="198" y="108" type="curve" smooth="yes"/>
      <point x="216" y="108"/>
      <point x="237" y="74"/>
      <point x="295" y="74" type="curve" smooth="yes"/>
      <point x="375" y="74"/>
      <point x="411" y="132"/>
    </contour>
  </outline>
</glyph>
<glyph name="notequal" format="1">
  <advance width="446"/>
  <unicode hex="2260"/>
  <outline>
    <contour>
      <point x="216" y="6" type="line"/>
      <point x="386" y="539" type="line"/>
      <point x="223" y="539" type="line"/>
      <point x="53" y="6" type="line"/>
    </contour>
    <contour>
      <point x="422" y="116" type="line"/>
      <point x="422" y="247" type="line"/>
      <point x="24" y="247" type="line"/>
      <point x="24" y="116" type="line"/>
    </contour>
    <contour>
      <point x="422" y="302" type="line"/>
      <point x="422" y="433" type="line"/>
      <point x="24" y="433" type="line"/>
      <point x="24" y="302" type="line"/>
    </contour>
  </outline>
</glyph>
<glyph name="A.ss01" format="1">
  <advance width="668"/>
  <outline>
    <contour>
      <point x="262" y="0" type="line"/>
      <point x="262" y="325" type="line" smooth="yes"/>
      <point x="262" y="388"/>
      <point x="293" y="417"/>
      <point x="334" y="417" type="curve" smooth="yes"/>
      <point x="375" y="417"/>
      <point x="406" y="388"/>
      <point x="406" y="325" type="curve" smooth="yes"/>
      <point x="406" y="0" type="line"/>
      <point x="636" y="0" type="line"/>
      <point x="636" y="306" type="line" smooth="yes"/>
      <point x="636" y="490"/>
      <point x="512" y="597"/>
      <point x="334" y="597" type="curve" smooth="yes"/>
      <point x="156" y="597"/>
      <point x="32" y="490"/>
      <point x="32" y="306" type="curve" smooth="yes"/>
      <point x="32" y="0" type="line"/>
    </contour>
    <contour>
      <point x="487" y="106" type="line"/>
      <point x="487" y="274" type="line"/>
      <point x="176" y="274" type="line"/>
      <point x="176" y="106" type="line"/>
    </contour>
    <contour>
      <point x="636" y="0" type="move" name="ogonek"/>
    </contour>
    <contour>
      <point x="334" y="582" type="move" name="top"/>
    </contour>
    <contour>
      <point x="38" y="582" type="move" name="topleft"/>
    </contour>
    <contour>
      <point x="334" y="0" type="move" name="bottom"/>
    </contour>
  </outline>
</glyph>
<glyph name="Adieresis.alt" format="1">
  <advance width="698"/>
  <outline>
    <contour>
      <point x="214" y="0" type="line"/>
      <point x="392" y="477" type="line"/>
      <point x="303" y="477" type="line"/>
      <point x="481" y="0" type="line"/>
      <point x="718" y="0" type="line"/>
      <point x="462" y="582" type="line"/>
      <point x="236" y="582" type="line"/>
      <point x="-20" y="0" type="line"/>
    </contour>
    <contour>
      <point x="515" y="74" type="line"/>
      <point x="457" y="234" type="line"/>
      <point x="204" y="234" type="line"/>
      <point x="146" y="74" type="line"/>
    </contour>
    <contour>
      <point x="166" y="500" type="curve" smooth="yes"/>
      <point x="166" y="548"/>
      <point x="129" y="581"/>
      <point x="81" y="581" type="curve" smooth="yes"/>
      <point x="32" y="581"/>
      <point x="-4" y="548"/>
      <point x="-4" y="500" type="curve" smooth="yes"/>
      <point x="-4" y="451"/>
      <point x="32" y="419"/>
      <point x="81" y="419" type="curve" smooth="yes"/>
      <point x="129" y="419"/>
      <point x="166" y="451"/>
    </contour>
    <contour>
      <point x="703" y="500" type="curve" smooth="yes"/>
      <point x="703" y="548"/>
      <point x="666" y="581"/>
      <point x="618" y="581" type="curve" smooth="yes"/>
      <point x="569" y="581"/>
      <point x="533" y="548"/>
      <point x="533" y="500" type="curve" smooth="yes"/>
      <point x="533" y="451"/>
      <point x="569" y="419"/>
      <point x="618" y="419" type="curve" smooth="yes"/>
      <point x="666" y="419"/>
      <point x="703" y="451"/>
    </contour>
  </outline>
</glyph>
<glyph name="E.ss01" format="1">
  <advance width="599"/>
  <outline>
    <contour>
      <point x="597" y="33" type="curve"/>
      <point x="531" y="194" type="line"/>
      <point x="477" y="170"/>
      <point x="404" y="155"/>
      <point x="351" y="155" type="curve" smooth="yes"/>
      <point x="275" y="155"/>
      <point x="248" y="167"/>
      <point x="248" y="185" type="curve" smooth="yes"/>
      <point x="248" y="199"/>
      <point x="259" y="211"/>
      <point x="294" y="211" type="curve" smooth="yes"/>
      <point x="489" y="211" type="line"/>
      <point x="489" y="375" type="line"/>
      <point x="310" y="375" type="line" smooth="yes"/>
      <point x="279" y="375"/>
      <point x="273" y="384"/>
      <point x="273" y="397" type="curve" smooth="yes"/>
      <point x="273" y="416"/>
      <point x="299" y="427"/>
      <point x="363" y="427" type="curve" smooth="yes"/>
      <point x="412" y="427"/>
      <point x="462" y="419"/>
      <point x="520" y="398" type="curve"/>
      <point x="582" y="560" type="line"/>
      <point x="520" y="582"/>
      <point x="438" y="597"/>
      <point x="354" y="597" type="curve" smooth="yes"/>
      <point x="137" y="597"/>
      <point x="41" y="507"/>
      <point x="41" y="411" type="curve" smooth="yes"/>
      <point x="41" y="339"/>
      <point x="97" y="275"/>
      <point x="219" y="275" type="curve"/>
      <point x="215" y="323" type="line"/>
      <point x="87" y="323"/>
      <point x="17" y="254"/>
      <point x="17" y="170" type="curve" smooth="yes"/>
      <point x="17" y="62"/>
      <point x="128" y="-15"/>
      <point x="342" y="-15" type="curve" smooth="yes"/>
      <point x="434" y="-15"/>
      <point x="531" y="4"/>
    </contour>
    <contour>
      <point x="557" y="0" type="move" name="ogonek"/>
    </contour>
    <contour>
      <point x="323" y="582" type="move" name="top"/>
    </contour>
    <contour>
      <point x="-13" y="582" type="move" name="topleft"/>
    </contour>
    <contour>
      <point x="323" y="0" type="move" name="bottom"/>
    </contour>
  </outline>
</glyph>
<glyph name="Eng.ss01" format="1">
  <advance width="671"/>
  <outline>
    <contour>
      <point x="638" y="78" type="curve" smooth="yes"/>
      <point x="638" y="334" type="line" smooth="yes"/>
      <point x="638" y="503"/>
      <point x="558" y="597"/>
      <point x="419" y="597" type="curve" smooth="yes"/>
      <point x="279" y="597"/>
      <point x="199" y="490"/>
      <point x="199" y="327" type="curve" smooth="yes"/>
      <point x="199" y="249" type="line"/>
      <point x="268" y="249" type="line"/>
      <point x="268" y="323" type="line" smooth="yes"/>
      <point x="268" y="388"/>
      <point x="303" y="417"/>
      <point x="341" y="417" type="curve" smooth="yes"/>
      <point x="381" y="417"/>
      <point x="408" y="391"/>
      <point x="408" y="328" type="curve" smooth="yes"/>
      <point x="408" y="68" type="line" smooth="yes"/>
      <point x="408" y="29"/>
      <point x="389" y="10"/>
      <point x="355" y="10" type="curve" smooth="yes"/>
      <point x="340" y="10"/>
      <point x="327" y="12"/>
      <point x="309" y="20" type="curve"/>
      <point x="205" y="-134" type="line"/>
      <point x="253" y="-161"/>
      <point x="310" y="-170"/>
      <point x="375" y="-170" type="curve" smooth="yes"/>
      <point x="544" y="-170"/>
      <point x="638" y="-89"/>
    </contour>
    <contour>
      <point x="268" y="0" type="line"/>
      <point x="268" y="441" type="line"/>
      <point x="261" y="467" type="line"/>
      <point x="261" y="582" type="line"/>
      <point x="38" y="582" type="line"/>
      <point x="38" y="0" type="line"/>
    </contour>
  </outline>
</glyph>
<glyph name="Eogonek.ss01" format="1">
  <advance width="599"/>
  <outline>
    <contour>
      <point x="579" y="-184" type="curve"/>
      <point x="554" y="-97" type="line"/>
      <point x="542" y="-102"/>
      <point x="523" y="-108"/>
      <point x="505" y="-108" type="curve" smooth="yes"/>
      <point x="474" y="-108"/>
      <point x="462" y="-93"/>
      <point x="462" y="-74" type="curve" smooth="yes"/>
      <point x="462" y="-43"/>
      <point x="505" y="-1"/>
      <point x="597" y="33" type="curve"/>
      <point x="531" y="194" type="line"/>
      <point x="477" y="169"/>
      <point x="404" y="155"/>
      <point x="351" y="155" type="curve" smooth="yes"/>
      <point x="275" y="155"/>
      <point x="248" y="167"/>
      <point x="248" y="185" type="curve" smooth="yes"/>
      <point x="248" y="199"/>
      <point x="259" y="211"/>
      <point x="294" y="211" type="curve" smooth="yes"/>
      <point x="489" y="211" type="line"/>
      <point x="489" y="375" type="line"/>
      <point x="310" y="375" type="line" smooth="yes"/>
      <point x="279" y="375"/>
      <point x="273" y="384"/>
      <point x="273" y="397" type="curve" smooth="yes"/>
      <point x="273" y="416"/>
      <point x="299" y="427"/>
      <point x="363" y="427" type="curve" smooth="yes"/>
      <point x="412" y="427"/>
      <point x="462" y="419"/>
      <point x="520" y="398" type="curve"/>
      <point x="582" y="560" type="line"/>
      <point x="520" y="582"/>
      <point x="438" y="597"/>
      <point x="354" y="597" type="curve" smooth="yes"/>
      <point x="137" y="597"/>
      <point x="41" y="507"/>
      <point x="41" y="411" type="curve" smooth="yes"/>
      <point x="41" y="368"/>
      <point x="61" y="328"/>
      <point x="102" y="302" type="curve"/>
      <point x="45" y="274"/>
      <point x="17" y="225"/>
      <point x="17" y="170" type="curve" smooth="yes"/>
      <point x="17" y="62"/>
      <point x="128" y="-15"/>
      <point x="342" y="-15" type="curve" smooth="yes"/>
      <point x="372" y="-15"/>
      <point x="404" y="-12"/>
      <point x="436" y="-10" type="curve"/>
      <point x="436" y="24" type="line"/>
      <point x="374" y="0"/>
      <point x="335" y="-42"/>
      <point x="335" y="-96" type="curve" smooth="yes"/>
      <point x="335" y="-161"/>
      <point x="387" y="-203"/>
      <point x="478" y="-203" type="curve" smooth="yes"/>
      <point x="517" y="-203"/>
      <point x="559" y="-194"/>
    </contour>
    <contour>
      <point x="-13" y="582" type="move" name="topleft"/>
    </contour>
    <contour>
      <point x="323" y="582" type="move" name="top"/>
    </contour>
    <contour>
      <point x="323" y="0" type="move" name="bottom"/>
    </contour>
  </outline>
</glyph>
<glyph name="F.ss01" format="1">
  <advance width="533"/>
  <outline>
    <contour>
      <point x="262" y="0" type="line"/>
      <point x="262" y="327" type="line" smooth="yes"/>
      <point x="262" y="391"/>
      <point x="304" y="417"/>
      <point x="370" y="417" type="curve" smooth="yes"/>
      <point x="395" y="417"/>
      <point x="430" y="410"/>
      <point x="461" y="395" type="curve"/>
      <point x="527" y="563" type="line"/>
      <point x="484" y="584"/>
      <point x="420" y="597"/>
      <point x="350" y="597" type="curve" smooth="yes"/>
      <point x="150" y="597"/>
      <point x="32" y="500"/>
      <point x="32" y="322" type="curve" smooth="yes"/>
      <point x="32" y="0" type="line"/>
    </contour>
    <contour>
      <point x="456" y="174" type="line"/>
      <point x="456" y="341" type="line"/>
      <point x="173" y="341" type="line"/>
      <point x="173" y="174" type="line"/>
    </contour>
  </outline>
</glyph>
<glyph name="G.ss01" format="1">
  <advance width="650"/>
  <outline>
    <contour>
      <point x="562" y="168" type="curve"/>
      <point x="464" y="225" type="line"/>
      <point x="447" y="182"/>
      <point x="403" y="161"/>
      <point x="353" y="161" type="curve" smooth="yes"/>
      <point x="295" y="161"/>
      <point x="252" y="195"/>
      <point x="252" y="279" type="curve" smooth="yes"/>
      <point x="252" y="367"/>
      <point x="297" y="413"/>
      <point x="372" y="413" type="curve" smooth="yes"/>
      <point x="421" y="413"/>
      <point x="460" y="391"/>
      <point x="495" y="350" type="curve"/>
      <point x="642" y="475" type="line"/>
      <point x="580" y="551"/>
      <point x="483" y="593"/>
      <point x="360" y="593" type="curve" smooth="yes"/>
      <point x="161" y="593"/>
      <point x="20" y="467"/>
      <point x="20" y="279" type="curve" smooth="yes"/>
      <point x="20" y="90"/>
      <point x="153" y="-15"/>
      <point x="321" y="-15" type="curve" smooth="yes"/>
      <point x="439" y="-15"/>
      <point x="524" y="35"/>
    </contour>
    <contour>
      <point x="622" y="0" type="line"/>
      <point x="622" y="306" type="line"/>
      <point x="423" y="306" type="line"/>
      <point x="423" y="97" type="line"/>
      <point x="473" y="74" type="line"/>
      <point x="473" y="0" type="line"/>
    </contour>
    <contour>
      <point x="362" y="583" type="move" name="top"/>
    </contour>
    <contour>
      <point x="348" y="3" type="move" name="bottom"/>
    </contour>
  </outline>
</glyph>
<glyph name="Germandbls" format="1">
  <advance width="683"/>
  <outline>
    <contour>
      <point x="666" y="178" type="curve" smooth="yes"/>
      <point x="666" y="298"/>
      <point x="554" y="370"/>
      <point x="437" y="370" type="curve" smooth="yes"/>
      <point x="412" y="370"/>
      <point x="392" y="368"/>
      <point x="375" y="364" type="curve"/>
      <point x="461" y="249" type="line"/>
      <point x="602" y="416" type="line"/>
      <point x="602" y="543" type="line"/>
      <point x="544" y="577"/>
      <point x="444" y="597"/>
      <point x="369" y="597" type="curve" smooth="yes"/>
      <point x="152" y="597"/>
      <point x="32" y="486"/>
      <point x="32" y="310" type="curve" smooth="yes"/>
      <point x="32" y="0" type="line"/>
      <point x="262" y="0" type="line"/>
      <point x="262" y="306" type="line" smooth="yes"/>
      <point x="262" y="382"/>
      <point x="298" y="428"/>
      <point x="372" y="428" type="curve" smooth="yes"/>
      <point x="426" y="428"/>
      <point x="466" y="412"/>
      <point x="510" y="389" type="curve"/>
      <point x="495" y="529" type="line"/>
      <point x="300" y="300" type="line"/>
      <point x="339" y="212" type="line"/>
      <point x="352" y="216"/>
      <point x="369" y="220"/>
      <point x="387" y="220" type="curve" smooth="yes"/>
      <point x="421" y="220"/>
      <point x="434" y="208"/>
      <point x="434" y="192" type="curve" smooth="yes"/>
      <point x="434" y="176"/>
      <point x="421" y="164"/>
      <point x="384" y="164" type="curve" smooth="yes"/>
      <point x="364" y="164"/>
      <point x="336" y="171"/>
      <point x="318" y="179" type="curve"/>
      <point x="288" y="4" type="line"/>
      <point x="322" y="-8"/>
      <point x="366" y="-15"/>
      <point x="423" y="-15" type="curve" smooth="yes"/>
      <point x="556" y="-15"/>
      <point x="666" y="57"/>
    </contour>
  </outline>
</glyph>
<glyph name="I.ss01" format="1">
  <advance width="450"/>
  <outline>
    <contour>
      <point x="340" y="18" type="line"/>
      <point x="340" y="565" type="line"/>
      <point x="110" y="565" type="line"/>
      <point x="110" y="18" type="line"/>
    </contour>
    <contour>
      <point x="422" y="0" type="line"/>
      <point x="422" y="168" type="line"/>
      <point x="28" y="168" type="line"/>
      <point x="28" y="0" type="line"/>
    </contour>
    <contour>
      <point x="422" y="414" type="line"/>
      <point x="422" y="582" type="line"/>
      <point x="28" y="582" type="line"/>
      <point x="28" y="414" type="line"/>
    </contour>
    <contour>
      <point x="340" y="0" type="move" name="ogonek"/>
    </contour>
    <contour>
      <point x="225" y="582" type="move" name="top"/>
    </contour>
    <contour>
      <point x="-21" y="582" type="move" name="topleft"/>
    </contour>
    <contour>
      <point x="225" y="0" type="move" name="bottom"/>
    </contour>
  </outline>
</glyph>
<glyph name="IJ.ss01" format="1">
  <advance width="619"/>
  <outline>
    <contour>
      <point x="586" y="197" type="curve" smooth="yes"/>
      <point x="586" y="582" type="line"/>
      <point x="356" y="582" type="line"/>
      <point x="356" y="184" type="line" smooth="yes"/>
      <point x="356" y="115"/>
      <point x="332" y="85"/>
      <point x="267" y="85" type="curve" smooth="yes"/>
      <point x="219" y="85"/>
      <point x="155" y="103"/>
      <point x="97" y="138" type="curve"/>
      <point x="14" y="-19" type="line"/>
      <point x="78" y="-64"/>
      <point x="170" y="-92"/>
      <point x="278" y="-92" type="curve" smooth="yes"/>
      <point x="463" y="-92"/>
      <point x="586" y="11"/>
    </contour>
    <contour>
      <point x="262" y="202" type="line"/>
      <point x="262" y="582" type="line"/>
      <point x="32" y="582" type="line"/>
      <point x="32" y="202" type="line"/>
    </contour>
    <contour>
      <point x="143" y="582" type="move" name="top"/>
    </contour>
  </outline>
</glyph>
<glyph name="J.ss01" format="1">
  <advance width="499"/>
  <outline>
    <contour>
      <point x="467" y="151" type="curve" smooth="yes"/>
      <point x="467" y="582" type="line"/>
      <point x="42" y="582" type="line"/>
      <point x="42" y="414" type="line"/>
      <point x="240" y="414" type="line"/>
      <point x="240" y="141" type="line" smooth="yes"/>
      <point x="240" y="102"/>
      <point x="220" y="82"/>
      <point x="186" y="82" type="curve" smooth="yes"/>
      <point x="157" y="82"/>
      <point x="130" y="96"/>
      <point x="99" y="131" type="curve"/>
      <point x="-24" y="-11" type="line"/>
      <point x="28" y="-68"/>
      <point x="108" y="-98"/>
      <point x="206" y="-98" type="curve" smooth="yes"/>
      <point x="375" y="-98"/>
      <point x="467" y="-16"/>
    </contour>
    <contour>
      <point x="255" y="582" type="move" name="top"/>
    </contour>
  </outline>
</glyph>
<glyph name="M.ss01" format="1">
  <advance width="983"/>
  <outline>
    <contour>
      <point x="951" y="0" type="line"/>
      <point x="951" y="351" type="line" smooth="yes"/>
      <point x="951" y="511"/>
      <point x="870" y="597"/>
      <point x="736" y="597" type="curve" smooth="yes"/>
      <point x="602" y="597"/>
      <point x="509" y="508"/>
      <point x="509" y="354" type="curve" smooth="yes"/>
      <point x="509" y="246" type="line"/>
      <point x="609" y="246" type="line"/>
      <point x="609" y="339" type="line" smooth="yes"/>
      <point x="609" y="398"/>
      <point x="637" y="417"/>
      <point x="668" y="417" type="curve" smooth="yes"/>
      <point x="698" y="417"/>
      <point x="721" y="399"/>
      <point x="721" y="345" type="curve" smooth="yes"/>
      <point x="721" y="0" type="line"/>
    </contour>
    <contour>
      <point x="268" y="0" type="line"/>
      <point x="268" y="441" type="line"/>
      <point x="261" y="467" type="line"/>
      <point x="261" y="582" type="line"/>
      <point x="38" y="582" type="line"/>
      <point x="38" y="0" type="line"/>
    </contour>
    <contour>
      <point x="609" y="0" type="line"/>
      <point x="609" y="351" type="line" smooth="yes"/>
      <point x="609" y="511"/>
      <point x="534" y="597"/>
      <point x="412" y="597" type="curve" smooth="yes"/>
      <point x="274" y="597"/>
      <point x="209" y="499"/>
      <point x="209" y="345" type="curve" smooth="yes"/>
      <point x="209" y="249" type="line"/>
      <point x="268" y="249" type="line"/>
      <point x="268" y="339" type="line" smooth="yes"/>
      <point x="268" y="398"/>
      <point x="296" y="417"/>
      <point x="326" y="417" type="curve" smooth="yes"/>
      <point x="357" y="417"/>
      <point x="379" y="399"/>
      <point x="379" y="345" type="curve" smooth="yes"/>
      <point x="379" y="0" type="line"/>
    </contour>
    <contour>
      <point x="494" y="582" type="move" name="top"/>
    </contour>
    <contour>
      <point x="494" y="0" type="move" name="bottom"/>
    </contour>
  </outline>
</glyph>
<glyph name="N.ss01" format="1">
  <advance width="671"/>
  <outline>
    <contour>
      <point x="638" y="0" type="line"/>
      <point x="638" y="334" type="line" smooth="yes"/>
      <point x="638" y="503"/>
      <point x="558" y="597"/>
      <point x="419" y="597" type="curve" smooth="yes"/>
      <point x="279" y="597"/>
      <point x="199" y="490"/>
      <point x="199" y="327" type="curve" smooth="yes"/>
      <point x="199" y="249" type="line"/>
      <point x="268" y="249" type="line"/>
      <point x="268" y="323" type="line" smooth="yes"/>
      <point x="268" y="388"/>
      <point x="303" y="417"/>
      <point x="341" y="417" type="curve" smooth="yes"/>
      <point x="381" y="417"/>
      <point x="408" y="391"/>
      <point x="408" y="328" type="curve" smooth="yes"/>
      <point x="408" y="0" type="line"/>
    </contour>
    <contour>
      <point x="268" y="0" type="line"/>
      <point x="268" y="441" type="line"/>
      <point x="261" y="467" type="line"/>
      <point x="261" y="582" type="line"/>
      <point x="38" y="582" type="line"/>
      <point x="38" y="0" type="line"/>
    </contour>
    <contour>
      <point x="338" y="582" type="move" name="top"/>
    </contour>
    <contour>
      <point x="338" y="0" type="move" name="bottom"/>
    </contour>
  </outline>
</glyph>
<glyph name="Oogonek" format="1">
  <advance width="719"/>
  <outline>
    <contour>
      <point x="496" y="-184" type="curve"/>
      <point x="471" y="-97" type="line"/>
      <point x="458" y="-102"/>
      <point x="440" y="-108"/>
      <point x="421" y="-108" type="curve" smooth="yes"/>
      <point x="391" y="-108"/>
      <point x="379" y="-93"/>
      <point x="379" y="-77" type="curve" smooth="yes"/>
      <point x="379" y="-53"/>
      <point x="398" y="-26"/>
      <point x="486" y="4" type="curve" smooth="yes"/>
      <point x="609" y="47"/>
      <point x="699" y="150"/>
      <point x="699" y="291" type="curve" smooth="yes"/>
      <point x="699" y="468"/>
      <point x="556" y="597"/>
      <point x="360" y="597" type="curve" smooth="yes"/>
      <point x="163" y="597"/>
      <point x="20" y="468"/>
      <point x="20" y="291" type="curve" smooth="yes"/>
      <point x="20" y="113"/>
      <point x="163" y="-15"/>
      <point x="360" y="-15" type="curve" smooth="yes"/>
      <point x="373" y="-15"/>
      <point x="388" y="-14"/>
      <point x="412" y="-12" type="curve"/>
      <point x="397" y="45" type="line"/>
      <point x="308" y="19"/>
      <point x="252" y="-30"/>
      <point x="252" y="-96" type="curve" smooth="yes"/>
      <point x="252" y="-161"/>
      <point x="303" y="-203"/>
      <point x="395" y="-203" type="curve" smooth="yes"/>
      <point x="433" y="-203"/>
      <point x="475" y="-194"/>
    </contour>
    <contour>
      <point x="252" y="291" type="curve" smooth="yes"/>
      <point x="252" y="371"/>
      <point x="301" y="417"/>
      <point x="360" y="417" type="curve" smooth="yes"/>
      <point x="418" y="417"/>
      <point x="467" y="371"/>
      <point x="467" y="291" type="curve" smooth="yes"/>
      <point x="467" y="210"/>
      <point x="418" y="165"/>
      <point x="360" y="165" type="curve" smooth="yes"/>
      <point x="301" y="165"/>
      <point x="252" y="210"/>
    </contour>
    <contour>
      <point x="360" y="582" type="move" name="top"/>
    </contour>
  </outline>
</glyph>
<glyph name="Q.ss01" format="1">
  <advance width="719"/>
  <outline>
    <contour>
      <point x="699" y="291" type="curve" smooth="yes"/>
      <point x="699" y="468"/>
      <point x="556" y="597"/>
      <point x="360" y="597" type="curve" smooth="yes"/>
      <point x="163" y="597"/>
      <point x="20" y="468"/>
      <point x="20" y="291" type="curve" smooth="yes"/>
      <point x="20" y="113"/>
      <point x="163" y="-15"/>
      <point x="360" y="-15" type="curve" smooth="yes"/>
      <point x="556" y="-15"/>
      <point x="699" y="113"/>
    </contour>
    <contour>
      <point x="475" y="-112" type="line"/>
      <point x="475" y="24" type="line"/>
      <point x="465" y="87" type="line"/>
      <point x="465" y="275" type="line"/>
      <point x="253" y="275" type="line"/>
      <point x="253" y="87" type="line"/>
      <point x="245" y="24" type="line"/>
      <point x="245" y="-112" type="line"/>
    </contour>
    <contour>
      <point x="252" y="291" type="curve" smooth="yes"/>
      <point x="252" y="372"/>
      <point x="301" y="417"/>
      <point x="360" y="417" type="curve" smooth="yes"/>
      <point x="418" y="417"/>
      <point x="467" y="372"/>
      <point x="467" y="291" type="curve" smooth="yes"/>
      <point x="467" y="206"/>
      <point x="432" y="165"/>
      <point x="360" y="165" type="curve" smooth="yes"/>
      <point x="287" y="165"/>
      <point x="252" y="206"/>
    </contour>
  </outline>
</glyph>
<glyph name="Saltillo" format="1">
  <advance width="308"/>
  <outline>
    <contour>
      <point x="238" y="246" type="line"/>
      <point x="267" y="583" type="line"/>
      <point x="41" y="583" type="line"/>
      <point x="41" y="246" type="line"/>
    </contour>
  </outline>
</glyph>
<glyph name="Schwa" format="1">
  <advance width="692"/>
  <outline>
    <contour>
      <point x="672" y="291" type="curve" smooth="yes"/>
      <point x="672" y="471"/>
      <point x="531" y="597"/>
      <point x="328" y="597" type="curve" smooth="yes"/>
      <point x="216" y="597"/>
      <point x="102" y="545"/>
      <point x="46" y="483" type="curve"/>
      <point x="182" y="348" type="line"/>
      <point x="215" y="391"/>
      <point x="284" y="417"/>
      <point x="326" y="417" type="curve" smooth="yes"/>
      <point x="396" y="417"/>
      <point x="440" y="370"/>
      <point x="440" y="300" type="curve" smooth="yes"/>
      <point x="440" y="255" type="line" smooth="yes"/>
      <point x="440" y="185"/>
      <point x="414" y="148"/>
      <point x="346" y="148" type="curve" smooth="yes"/>
      <point x="280" y="148"/>
      <point x="252" y="185"/>
      <point x="252" y="255" type="curve"/>
      <point x="178" y="199" type="line"/>
      <point x="464" y="199" type="line"/>
      <point x="464" y="335" type="line"/>
      <point x="20" y="335" type="line"/>
      <point x="20" y="300" type="line" smooth="yes"/>
      <point x="20" y="109"/>
      <point x="152" y="-15"/>
      <point x="346" y="-15" type="curve" smooth="yes"/>
      <point x="535" y="-15"/>
      <point x="672" y="108"/>
    </contour>
    <contour>
      <point x="346" y="582" type="move" name="top"/>
    </contour>
    <contour>
      <point x="346" y="0" type="move" name="bottom"/>
    </contour>
  </outline>
</glyph>
<glyph name="T_h" format="1">
  <advance width="1087"/>
  <outline>
    <contour>
      <point x="389" y="0" type="line"/>
      <point x="389" y="411" type="line"/>
      <point x="547" y="411" type="line"/>
      <point x="547" y="583" type="line"/>
      <point x="3" y="583" type="line"/>
      <point x="3" y="411" type="line"/>
      <point x="163" y="411" type="line"/>
      <point x="163" y="0" type="line"/>
    </contour>
    <contour>
      <point x="757" y="0" type="line"/>
      <point x="757" y="583" type="line"/>
      <point x="538" y="583" type="line"/>
      <point x="538" y="0" type="line"/>
    </contour>
    <contour>
      <point x="1055" y="0" type="line"/>
      <point x="1055" y="294" type="line"/>
      <point x="1055" y="399"/>
      <point x="986" y="468"/>
      <point x="890" y="468" type="curve"/>
      <point x="778" y="468"/>
      <point x="711" y="373"/>
      <point x="711" y="227" type="curve"/>
      <point x="757" y="227" type="line"/>
      <point x="757" y="259"/>
      <point x="774" y="282"/>
      <point x="798" y="281" type="curve"/>
      <point x="820" y="281"/>
      <point x="836" y="262"/>
      <point x="836" y="232" type="curve"/>
      <point x="836" y="0" type="line" smooth="yes"/>
    </contour>
    <contour>
      <point x="276" y="0" type="move" name="bottom_1"/>
    </contour>
    <contour>
      <point x="0" y="0" type="move" name="center_2"/>
    </contour>
    <contour>
      <point x="0" y="0" type="move" name="center_1"/>
    </contour>
    <contour>
      <point x="827" y="458" type="move" name="top_2"/>
    </contour>
    <contour>
      <point x="551" y="0" type="move" name="caret_1"/>
    </contour>
    <contour>
      <point x="276" y="458" type="move" name="top_1"/>
    </contour>
    <contour>
      <point x="827" y="0" type="move" name="bottom_2"/>
    </contour>
  </outline>
</glyph>
<glyph name="U.ss01" format="1">
  <advance width="671"/>
  <outline>
    <contour>
      <point x="472" y="254" type="curve" smooth="yes"/>
      <point x="472" y="332" type="line"/>
      <point x="403" y="332" type="line"/>
      <point x="403" y="259" type="line" smooth="yes"/>
      <point x="403" y="194"/>
      <point x="368" y="165"/>
      <point x="330" y="165" type="curve" smooth="yes"/>
      <point x="290" y="165"/>
      <point x="262" y="191"/>
      <point x="262" y="254" type="curve" smooth="yes"/>
      <point x="262" y="582" type="line"/>
      <point x="32" y="582" type="line"/>
      <point x="32" y="247" type="line" smooth="yes"/>
      <point x="32" y="79"/>
      <point x="113" y="-15"/>
      <point x="262" y="-15" type="curve" smooth="yes"/>
      <point x="392" y="-15"/>
      <point x="472" y="91"/>
    </contour>
    <contour>
      <point x="633" y="0" type="line"/>
      <point x="633" y="582" type="line"/>
      <point x="403" y="582" type="line"/>
      <point x="403" y="141" type="line"/>
      <point x="410" y="115" type="line"/>
      <point x="410" y="0" type="line"/>
    </contour>
    <contour>
      <point x="531" y="0" type="move" name="ogonek"/>
    </contour>
    <contour>
      <point x="333" y="582" type="move" name="top"/>
    </contour>
    <contour>
      <point x="531" y="582" type="move" name="topright"/>
    </contour>
    <contour>
      <point x="333" y="0" type="move" name="bottom"/>
    </contour>
  </outline>
</glyph>
<glyph name="Udieresis.alt.02" format="1">
  <advance width="662"/>
  <outline>
    <contour>
      <point x="629" y="264" type="curve" smooth="yes"/>
      <point x="629" y="582" type="line"/>
      <point x="403" y="582" type="line"/>
      <point x="403" y="271" type="line" smooth="yes"/>
      <point x="403" y="192"/>
      <point x="376" y="165"/>
      <point x="333" y="165" type="curve" smooth="yes"/>
      <point x="290" y="165"/>
      <point x="262" y="192"/>
      <point x="262" y="271" type="curve" smooth="yes"/>
      <point x="262" y="582" type="line"/>
      <point x="32" y="582" type="line"/>
      <point x="32" y="264" type="line" smooth="yes"/>
      <point x="32" y="88"/>
      <point x="142" y="-15"/>
      <point x="331" y="-15" type="curve" smooth="yes"/>
      <point x="520" y="-15"/>
      <point x="629" y="88"/>
    </contour>
    <contour>
      <point x="412" y="356" type="curve" smooth="yes"/>
      <point x="412" y="397"/>
      <point x="380" y="431"/>
      <point x="333" y="431" type="curve" smooth="yes"/>
      <point x="286" y="431"/>
      <point x="255" y="397"/>
      <point x="255" y="356" type="curve" smooth="yes"/>
      <point x="255" y="316"/>
      <point x="286" y="282"/>
      <point x="333" y="282" type="curve" smooth="yes"/>
      <point x="380" y="282"/>
      <point x="412" y="316"/>
    </contour>
    <contour>
      <point x="412" y="516" type="curve" smooth="yes"/>
      <point x="412" y="557"/>
      <point x="380" y="591"/>
      <point x="333" y="591" type="curve" smooth="yes"/>
      <point x="286" y="591"/>
      <point x="255" y="557"/>
      <point x="255" y="516" type="curve" smooth="yes"/>
      <point x="255" y="476"/>
      <point x="286" y="442"/>
      <point x="333" y="442" type="curve" smooth="yes"/>
      <point x="380" y="442"/>
      <point x="412" y="476"/>
    </contour>
  </outline>
</glyph>
<glyph name="Udieresis.alt" format="1">
  <advance width="662"/>
  <outline>
    <contour>
      <point x="629" y="264" type="curve" smooth="yes"/>
      <point x="629" y="582" type="line"/>
      <point x="403" y="582" type="line"/>
      <point x="403" y="271" type="line" smooth="yes"/>
      <point x="403" y="192"/>
      <point x="376" y="165"/>
      <point x="333" y="165" type="curve" smooth="yes"/>
      <point x="290" y="165"/>
      <point x="262" y="192"/>
      <point x="262" y="271" type="curve" smooth="yes"/>
      <point x="262" y="582" type="line"/>
      <point x="32" y="582" type="line"/>
      <point x="32" y="264" type="line" smooth="yes"/>
      <point x="32" y="88"/>
      <point x="142" y="-15"/>
      <point x="331" y="-15" type="curve" smooth="yes"/>
      <point x="520" y="-15"/>
      <point x="629" y="88"/>
    </contour>
    <contour>
      <point x="360" y="509" type="curve" smooth="yes"/>
      <point x="360" y="558"/>
      <point x="323" y="591"/>
      <point x="274" y="591" type="curve" smooth="yes"/>
      <point x="226" y="591"/>
      <point x="189" y="558"/>
      <point x="189" y="509" type="curve" smooth="yes"/>
      <point x="189" y="460"/>
      <point x="226" y="428"/>
      <point x="274" y="428" type="curve" smooth="yes"/>
      <point x="323" y="428"/>
      <point x="360" y="460"/>
    </contour>
    <contour>
      <point x="477" y="509" type="curve" smooth="yes"/>
      <point x="477" y="558"/>
      <point x="440" y="591"/>
      <point x="391" y="591" type="curve" smooth="yes"/>
      <point x="343" y="591"/>
      <point x="306" y="558"/>
      <point x="306" y="509" type="curve" smooth="yes"/>
      <point x="306" y="460"/>
      <point x="343" y="428"/>
      <point x="391" y="428" type="curve" smooth="yes"/>
      <point x="440" y="428"/>
      <point x="477" y="460"/>
    </contour>
  </outline>
</glyph>
